<svg width="211" height="277" viewBox="0 0 211 277" fill="none" xmlns="http://www.w3.org/2000/svg">
    <path opacity="0.2" d="M109.255 101.094C112.303 92.1963 117.694 84.2855 124.862 78.1953C158.82 49.3392 211 73.4738 211 118.037V207C211 245.66 179.659 277 141 277H48.9995L109.255 101.094Z" fill="#FF6107"/>
    <g clip-path="url(#clip0_5_2)">
        <path d="M179.508 48.8357C183.72 51.0301 186.581 53.8342 188.638 56.9485C188.687 57.0505 188.751 57.1578 188.8 57.2598C194.51 69.3565 201.138 108.036 191.791 141.092C182.43 174.144 169.044 199.218 146.222 183.912L148.273 161.901C148.273 161.901 161.912 172.567 170.69 148.448C179.462 124.343 180.691 82.5131 170.73 58.4098C169.466 55.3542 167.728 51.962 165.112 50.482C168.937 47.3697 173.847 45.8939 179.508 48.8357Z" fill="#DBD0C6"/>
        <path opacity="0.5" d="M179.508 48.8357C183.72 51.0301 186.581 53.8342 188.638 56.9485C188.687 57.0505 188.751 57.1578 188.8 57.2598C194.51 69.3565 201.138 108.036 191.791 141.092C182.43 174.144 169.044 199.218 146.222 183.912L148.273 161.901C148.273 161.901 161.912 172.567 170.69 148.448C179.462 124.343 180.691 82.5131 170.73 58.4098C169.466 55.3542 167.728 51.962 165.112 50.482C168.937 47.3697 173.847 45.8939 179.508 48.8357Z" fill="#DCDCDC"/>
        <path opacity="0.5" d="M170.68 148.427C170.728 148.291 170.776 148.155 170.823 148.02C173.131 149.459 175.625 150.608 178.239 151.274C182.767 152.427 186.404 151.724 189.146 149.858C179.932 178.35 166.984 197.797 146.227 183.897L148.278 161.886C148.258 161.895 161.902 172.546 170.68 148.427Z" fill="white"/>
        <path opacity="0.5" d="M179.508 48.8357C183.72 51.0301 186.581 53.8342 188.638 56.9485C188.687 57.0505 188.751 57.1578 188.8 57.2597C191.013 61.9546 193.371 70.6676 194.884 81.4906C190.412 72.7626 183.578 65.8817 173.216 65.5571C172.489 63.0465 171.654 60.6505 170.73 58.4098C169.466 55.3542 167.728 51.962 165.112 50.482C168.937 47.3697 173.847 45.8939 179.508 48.8357Z" fill="white"/>
        <path d="M154.613 37.7335C165.11 40.0378 182.747 45.076 188.618 56.9579C186.561 53.8435 183.7 51.0395 179.488 48.8451C173.847 45.8935 168.937 47.3693 165.112 50.4816C161.452 53.4651 158.777 57.9318 157.399 61.4642C157.399 61.4642 151.23 59.5305 144.84 54.2298C144.446 53.9046 144.107 53.6157 143.783 53.3322L137.645 49.5783C137.615 49.5676 144.036 35.4177 154.613 37.7335Z" fill="white"/>
        <path d="M81.359 19.9178C90.2068 13.4199 104.048 16.1896 113.491 22.5477C114.161 23.0039 114.759 23.5196 115.296 24.0647C111.484 21.6038 106.631 21.7606 102.547 25.2731C98.6776 28.6072 94.9081 34.1632 92.3181 38.4391L69.2973 32.3199C69.2973 32.3199 72.5112 26.4158 81.359 19.9178Z" fill="white"/>
        <path d="M115.297 24.0646C122.253 31.1752 118.043 45.2558 118.043 45.2558L92.3235 38.424C94.9082 34.1632 98.6829 28.5921 102.552 25.258C106.631 21.7605 111.484 21.6037 115.297 24.0646Z" fill="#DBD0C6"/>
        <path d="M115.297 24.0646C122.253 31.1752 118.043 45.2558 118.043 45.2558L92.3235 38.424C94.9082 34.1632 98.6829 28.5921 102.552 25.258C106.631 21.7605 111.484 21.6037 115.297 24.0646Z" fill="#DCDCDC"/>
        <path d="M168.343 57.8236C174.626 60.442 180.395 68.1346 177.858 88.3476C175.305 108.555 147.655 196.843 147.066 198.517C146.476 200.192 144.737 198.63 143.506 197.264C142.274 195.898 138.35 194.093 134.161 195.06C129.978 196.012 129.667 195.258 127.69 192.783C125.719 190.292 119.817 188.418 114.762 189.826C109.706 191.233 110.405 188.428 106.97 186.049C103.536 183.671 98.6004 183.917 95.2402 183.734C91.88 183.552 87.5644 181.219 86.1145 180.522C84.6441 179.835 116.737 108.114 116.737 108.114C121.234 97.7455 134.689 71.2209 142.184 63.3652C151.218 53.8813 157.906 53.472 168.343 57.8236Z" fill="#FE6001"/>
        <path d="M142.169 63.3599C151.218 53.8814 157.891 53.4667 168.343 57.8237C174.536 60.4102 180.231 67.9246 177.958 87.4845C176.039 87.589 173.168 86.8836 167.582 85.2226C165.141 84.4991 162.173 83.5898 158.545 82.4824C156.094 81.7385 153.806 80.967 151.654 80.1927C144.42 77.5787 138.978 74.8833 135.295 72.8241C137.81 68.81 140.197 65.4461 142.169 63.3599Z" fill="#FE6001"/>
        <g opacity="0.5">
            <path opacity="0.5" d="M173.197 66.381C168.73 64.6223 164.13 65.4104 160.679 67.654C155.975 70.7112 152.582 74.9079 150 79.5936C143.597 77.1705 138.687 74.7469 135.289 72.8392C137.825 68.8153 140.212 65.4514 142.184 63.3652C151.233 53.8867 157.906 53.472 168.358 57.829C172.1 59.3834 175.654 62.7705 177.383 69.5157C176.383 68.2144 175.011 67.1041 173.197 66.381Z" fill="#D24F00"/>
        </g>
        <path d="M132.622 188.5C134.617 182.252 162.876 99.0269 167.567 85.2172C168.579 85.5224 169.5 85.7957 170.351 86.0274C163.493 105.991 137.998 180.306 136.059 186.201C135.27 188.585 134.402 190.907 133.605 192.932C134.192 193.189 135.024 193.041 136.572 192.4C139.75 191.077 142.483 192.463 143.262 193.669C144.041 194.876 145.177 196.225 145.766 194.551C146.318 192.982 171.28 116.089 177.595 89.8655C174.009 112.575 147.609 196.878 147.03 198.522C146.441 200.196 144.702 198.635 143.47 197.269C142.239 195.903 138.314 194.098 134.125 195.065C132.079 195.531 130.956 195.593 130.117 195.23C130.98 193.212 131.863 190.895 132.622 188.5Z" fill="#99000A"/>
        <path opacity="0.5" d="M118.058 175.644C123.354 161.318 146.868 93.935 151.649 80.2078C152.428 80.499 153.248 80.7706 154.082 81.0475C147.768 99.0834 126.514 159.854 121.57 173.371C119.027 180.308 117.003 184.902 115.517 187.871C116.077 187.966 116.818 187.837 117.938 187.35C121.963 185.596 126.396 186.97 127.744 189.208C128.423 190.362 128.805 191.107 129.453 191.386C130.245 189.376 131.108 187.069 131.896 184.685C133.815 178.8 159.36 104.248 166.052 84.752C166.591 84.9077 167.109 85.0731 167.587 85.2075C162.896 99.0172 134.643 182.227 132.642 188.49C131.868 190.88 131 193.202 130.173 195.216C129.304 194.843 128.726 194.029 127.71 192.773C125.739 190.282 119.837 188.408 114.782 189.816C113.374 190.202 112.423 190.257 111.697 190.103C113.303 187.177 115.474 182.6 118.058 175.644Z" fill="#99000A"/>
        <path d="M116.736 108.114C120.05 100.482 128.228 84.0854 135.289 72.839C135.685 73.0631 136.126 73.3031 136.567 73.5431C130.621 84.6564 129.917 96.2415 127.046 103.148C127.046 103.148 101.537 172.49 101.167 173.445C99.7268 177.007 97.3301 181.215 99.9663 181.143C102.602 181.07 105.268 179.567 107.812 182.26C109.408 183.94 109.769 185.61 111.236 185.872C112.728 182.888 114.787 178.29 117.331 171.302C122.217 157.951 142.956 98.6438 149.679 79.4464C150.337 79.6951 150.98 79.9385 151.654 80.1925C146.868 93.9348 123.359 161.303 118.063 175.629C115.494 182.59 113.324 187.167 111.697 190.103C109.807 189.692 109.47 187.76 106.99 186.039C103.556 183.661 98.6204 183.907 95.2602 183.724C91.9 183.542 87.5844 181.209 86.1345 180.512C84.649 179.82 116.736 108.114 116.736 108.114Z" fill="#99000A"/>
        <path d="M36.2482 71.6474C36.2482 71.6474 12.8077 123.121 7.58692 134.727C2.36614 146.333 -0.963786 145.245 13.9283 152.352C28.8151 159.473 77.1214 176.934 84.6493 179.821C92.1773 182.708 93.1858 184.707 98.436 172.247C103.686 159.787 124.378 104.226 124.378 104.226L36.2482 71.6474Z" fill="#D24F00"/>
        <path d="M22.6347 113.407C25.0294 114.165 27.1975 115.471 29.4399 116.565C32.9167 118.247 36.5852 119.962 39.449 117.46C42.3385 114.934 43.4929 111.221 45.2047 108.043C47.8668 103.081 49.6329 97.8707 52.1182 92.5916C62.65 94.8915 89.3085 105.173 92.6898 106.211C95.5983 107.099 99.4195 108.139 101.659 110.3C99.2287 114.123 97.9133 118.39 96.0248 122.455C94.4515 125.818 91.6837 128.624 90.3118 132.04C89.2355 134.713 87.6646 135.804 90.9889 137.534C92.8693 138.501 101.759 141.613 101.672 142.006C101.225 144.239 96.5183 154.72 95.1642 158.278C93.4561 162.746 90.4612 165.523 85.103 166.875C79.2571 168.361 73.7968 167.642 67.6864 165.882C61.8022 164.201 56.0145 162.197 50.2647 160.038C42.5895 157.184 34.6839 154.503 27.1246 151.368C22.4235 149.408 18.5072 146.182 16.8847 141.881C13.8619 133.9 16.6487 125.405 19.9806 118.491C20.2525 117.959 22.4483 113.358 22.6347 113.407Z" fill="#FE6001"/>
        <path d="M7.7125 134.466C9.40616 136.927 10.9012 139.47 12.0912 142.11C13.5691 145.376 14.698 150.164 14.9469 152.829C14.5955 152.671 14.2441 152.514 13.9282 152.352C-0.958625 145.23 2.366 146.332 7.58676 134.727C7.6337 134.641 7.66556 134.551 7.7125 134.466Z" fill="#EFE8E1"/>
        <path d="M99.3529 170.026C99.005 170.87 98.7041 171.629 98.4305 172.261C93.1954 184.727 92.1922 182.712 84.6439 179.835C83.674 179.46 82.0254 178.846 79.864 178.051C84.9862 173.564 91.417 170.369 99.3529 170.026Z" fill="#EFE8E1"/>
        <path d="M39.0996 66.2424C43.7872 58.704 49.4018 53.2041 54.0894 45.6657C63.8094 48.7308 73.5922 51.6655 83.3236 54.65C97.7495 59.0833 111.791 64.7038 125.914 70.0475C131.598 72.2007 136.718 73.8843 142.241 76.3535C144.63 77.4149 146.799 78.3817 149.97 79.5826C149.12 81.1312 148.355 82.7268 147.66 84.3639C140.452 96.847 136.842 110.766 132.406 118.071C127.694 125.821 130.517 124.543 115.691 118.358C100.9 112.169 54.3014 95.1063 42.8417 91.7339C36.2539 89.7882 31.9044 88.2742 29.5274 86.4543C32.887 79.703 35.4094 72.1993 39.0996 66.2424Z" fill="#D24F00"/>
        <path d="M165.603 56.2152C153.54 49.596 98.6544 28.4807 70.9001 25.0692C65.4391 24.4015 52.9905 28.4624 43.4274 44.7953C33.8794 61.1336 28.9621 69.71 27.2401 73.4947C25.5385 77.2695 30.7572 79.7336 41.7688 82.9821C52.7955 86.236 97.5793 102.626 111.828 108.574C126.072 114.536 123.366 115.771 127.895 108.295C132.425 100.82 136.058 86.1634 143.905 73.6C151.751 61.0366 160.923 53.3302 172.349 60.7935C172.355 60.7785 170.379 58.8287 165.603 56.2152Z" fill="#FE6001"/>
        <path opacity="0.4" d="M143.494 74.2854C139.326 76.4463 133.484 75.5598 127.962 73.6672C124.341 72.4436 51.931 45.2957 44.6384 42.8476C54.0025 28.1398 65.6663 24.43 70.9153 25.0739C98.6492 28.4952 153.525 49.5901 165.603 56.2146C170.379 58.8281 172.355 60.7779 172.355 60.7779C160.928 53.3146 151.736 61.0307 143.91 73.5843C143.76 73.8195 143.629 74.0449 143.494 74.2854Z" fill="#BB000A"/>
        <path d="M151.941 63.2899C145.251 59.9011 61.2134 31.5426 56.0552 30.3035C62.0761 25.9129 67.6854 24.6662 70.9003 25.0688C98.6493 28.4954 153.525 49.5903 165.603 56.2148C170.379 58.8283 172.355 60.7781 172.355 60.7781C164.605 55.7278 157.897 57.6389 151.941 63.2899Z" fill="#BB000A"/>
        <path d="M89.8757 131.497C89.6278 132.105 89.9398 132.808 90.5778 133.066L101.556 137.422C102.194 137.68 102.922 137.394 103.19 136.776C103.19 136.776 107.658 130.246 112.329 119.819C117.004 109.378 119.498 100.559 119.498 100.559C119.746 99.9507 119.434 99.2476 118.811 98.9944L107.818 94.6335C107.18 94.3751 106.452 94.6613 106.204 95.2692C106.204 95.2692 105.127 98.8572 98.5154 114.127C91.8883 129.391 89.8757 131.497 89.8757 131.497Z" fill="#EFE8E1"/>
        <path d="M106.707 101.498C106.001 103.505 107.202 105.775 109.389 106.545C111.591 107.32 113.935 106.297 114.641 104.291C115.352 102.27 114.146 100.014 111.959 99.2444C109.772 98.4746 107.418 99.4772 106.707 101.498Z" fill="#99000A"/>
        <path d="M106.958 101.316C106.379 102.96 107.34 104.807 109.119 105.433C110.899 106.06 112.805 105.222 113.384 103.578C113.962 101.933 113.002 100.087 111.222 99.4601C109.447 98.8185 107.542 99.6566 106.958 101.316Z" fill="#BB000A"/>
        <path d="M107.789 100.591C108.333 99.8163 109.22 99.4164 110.236 99.4182C112.143 99.4449 113.567 101.37 113.059 103.006C113.043 103.051 112.983 103.03 112.979 102.994C112.677 101.684 111.956 100.6 110.385 100.538C109.03 100.485 107.568 102.039 107.765 103.261C107.774 103.332 107.667 103.345 107.638 103.284C107.194 102.331 107.152 101.486 107.789 100.591Z" fill="#A21016"/>
        <path d="M23.6721 108.195C23.4242 108.803 23.7362 109.506 24.3741 109.764L35.3672 114.125C36.0052 114.384 36.7332 114.098 36.9864 113.475C36.9864 113.475 41.4549 106.944 46.1249 96.5175C50.8003 86.0759 53.2941 77.2568 53.2941 77.2568C53.5419 76.649 53.23 75.9458 52.592 75.6874L41.5989 71.3265C40.961 71.068 40.233 71.3543 39.9851 71.9621C39.9851 71.9621 38.9087 75.5501 32.2967 90.8197C25.6847 106.089 23.6721 108.195 23.6721 108.195Z" fill="#EFE8E1"/>
        <path d="M40.5033 78.1967C39.7972 80.2029 40.9984 82.4735 43.1855 83.2433C45.3727 84.0131 47.7313 82.9955 48.4374 80.9893C49.1488 78.9681 47.9423 76.7125 45.7552 75.9427C43.568 75.1729 41.2147 76.1755 40.5033 78.1967Z" fill="#99000A"/>
        <path d="M40.7542 78.0141C40.1755 79.6582 41.151 81.5104 42.9158 82.1316C44.6957 82.758 46.6012 81.9199 47.1799 80.2758C47.7586 78.6316 46.7982 76.7848 45.0183 76.1583C43.2587 75.5221 41.3382 76.3549 40.7542 78.0141Z" fill="#BB000A"/>
        <path d="M41.5706 77.2838C42.1145 76.509 43.0012 76.1091 44.0328 76.1162C45.939 76.1429 47.3635 78.0683 46.8557 79.7035C46.8398 79.7488 46.7795 79.7275 46.775 79.692C46.4732 78.3822 45.7529 77.298 44.181 77.2363C42.8265 77.1834 41.3642 78.7369 41.5613 79.9591C41.5703 80.03 41.4638 80.0434 41.4496 79.9876C40.9902 79.0291 40.9486 78.1838 41.5706 77.2838Z" fill="#A21016"/>
        <path opacity="0.5" d="M139.814 46.595C139.814 46.595 95.1439 28.5329 69.498 26.0669C69.498 26.0669 53.0328 22.6111 31.6989 67.8587C31.6989 67.8587 49.7283 33.6369 67.1319 28.7433C81.9486 25.516 139.814 46.595 139.814 46.595Z" fill="white"/>
        <path d="M16.492 126.909C16.6275 126.669 20.5242 117.428 20.434 117.685C18.5227 123.115 15.6085 134.092 15.9813 137.512C16.5428 142.659 21.4681 146.342 26.5988 148.623C35.625 152.648 45.616 155.232 54.8733 158.744C63.2309 161.923 71.416 166.652 80.4536 166.358C88.8135 166.062 93.2118 160.406 96.2662 154.666C96.4646 154.295 99.8501 146.891 99.7015 147.314C93.6026 165.171 91.7208 169.747 83.9741 171.479C74.3341 173.63 62.9775 167.412 53.9481 163.878C47.3003 161.283 41.0811 158.772 34.3218 156.495C28.8499 154.654 23.7071 152.793 18.864 149.647C9.7882 143.74 13.1766 133.439 16.492 126.909Z" fill="#C9000A"/>
    </g>
    <defs>
        <clipPath id="clip0_5_2">
            <rect width="178.156" height="159.91" fill="white" transform="translate(53.0913) rotate(19.3907)"/>
        </clipPath>
    </defs>
</svg>