<svg width="84" height="63" viewBox="0 0 84 63" fill="none" xmlns="http://www.w3.org/2000/svg">
    <path d="M83.3504 58.9598C82.2205 59.3166 81.0906 59.6734 79.9607 59.9707C79.4255 56.8189 78.8308 53.6077 78.3551 50.4559C78.3551 50.3965 78.2362 50.3965 78.2362 50.4559C78.3551 53.7266 78.7119 56.9973 78.7714 60.268C77.9983 60.4464 77.2252 60.6843 76.4521 60.8627C76.3332 59.1976 76.2143 57.592 76.2143 56.1053C76.2143 55.9864 76.0359 55.9269 75.9764 56.0459C75.5007 57.7704 75.2033 59.4355 75.0844 61.1601C64.7965 63.3009 54.3897 63.3009 43.1504 61.6953C43.2099 60.268 43.2693 58.8408 43.2099 57.4136C43.2099 57.2947 42.972 57.2947 42.972 57.4136C42.5557 58.7814 42.1989 60.1491 41.9016 61.5169C41.1285 61.3979 40.296 61.279 39.4634 61.1006C39.5824 60.3275 39.6418 59.6139 39.5824 58.8408C39.5824 58.6624 39.2255 58.603 39.1661 58.7814C38.9282 59.4355 38.6309 60.1491 38.2741 60.9222C29.1756 59.2571 19.4229 56.6405 8.71877 53.2509C8.77824 53.0725 8.77824 52.8941 8.83771 52.7157C9.43238 49.9802 9.90812 47.2447 9.67025 44.5092C9.67025 44.4497 9.61078 44.4497 9.55132 44.5092C8.59984 47.1852 7.76729 49.9802 6.99422 52.7157C4.97233 52.0615 2.8315 51.3479 0.690674 50.6343C2.17736 44.6876 3.72351 39.6329 5.26966 35.2323C10.9191 19.4139 17.1037 12.3968 23.4667 7.04473C25.8454 5.02284 28.2835 3.53615 30.7217 2.3468C35.3602 0.087042 39.9986 -0.0913603 44.4587 0.0275745C50.227 0.205977 56.1143 1.03852 61.6448 4.78497C68.2456 9.24502 76.1548 16.3811 80.0797 29.9397C81.0906 33.4482 81.8637 39.2761 82.6962 43.6766C82.7557 44.0929 82.8746 44.5092 82.9341 44.9255C83.1125 45.6985 84.2424 58.6624 83.3504 58.9598Z"
          fill="#FF7733"/>
    <path opacity="0.25"
          d="M83.3503 58.9594C82.2205 59.3162 81.0906 59.673 79.9607 59.9704C79.4255 56.8186 78.8308 53.6074 78.3551 50.4556C78.3551 50.3961 78.2362 50.3961 78.2362 50.4556C78.3551 53.7263 78.7119 56.997 78.7714 60.2677C77.9983 60.4461 77.2252 60.684 76.4521 60.8624C76.3332 59.1973 76.2143 57.5917 76.2143 56.105C76.2143 55.9861 76.0359 55.9266 75.9764 56.0455C75.5007 57.7701 75.2033 59.4352 75.0844 61.1597C64.7965 63.3005 54.3897 63.3005 43.1504 61.6949C43.2099 60.2677 43.2693 58.8405 43.2099 57.4133C43.2099 57.2943 42.972 57.2943 42.972 57.4133C42.5557 58.781 42.1989 60.1488 41.9016 61.5165C41.1285 61.3976 40.296 61.2787 39.4634 61.1003C39.5823 60.3272 39.6418 59.6136 39.5824 58.8405C39.5824 58.6621 39.2255 58.6026 39.1661 58.781C38.9282 59.4352 38.6309 60.1488 38.2741 60.9219C29.1756 59.2568 19.4229 56.6402 8.71877 53.2506C8.77824 53.0722 8.77824 52.8937 8.83771 52.7153C9.43238 49.9798 9.90812 47.2443 9.67025 44.5088C9.67025 44.4494 9.61078 44.4494 9.55132 44.5088C8.59984 47.1849 7.76729 49.9798 6.99422 52.7153C4.97233 52.0612 2.8315 51.3476 0.690674 50.634C2.17736 44.6872 3.72351 39.6325 5.26966 35.2319C11.8111 39.2162 19.304 41.7733 26.7969 43.4979C45.1128 47.7201 64.3803 47.7201 82.7557 43.6763C82.8151 44.0926 82.9341 44.5088 82.9935 44.9251C83.1125 45.6982 84.2424 58.6621 83.3503 58.9594Z"
          fill="black"/>
    <path d="M19.304 28.0365C17.52 27.2039 15.0819 27.6202 13.3573 28.9285C11.6327 30.2963 10.7407 32.3181 10.4434 34.2806C9.96766 37.4323 10.7407 40.5841 12.6437 42.9033C14.5467 45.2226 17.4606 46.7687 20.7907 47.0661C21.2665 47.1255 21.8017 47.1255 22.2179 46.8877C23.11 46.4119 23.2884 45.3415 23.2884 44.509C23.4073 41.0004 23.2884 37.5513 22.6937 34.1616C22.3963 32.0208 21.5043 29.0474 19.304 28.0365Z"
          fill="#FFE9D9"/>
    <path d="M72.4679 34.8156C74.3708 34.4588 76.6306 35.4698 77.9983 37.1349C79.3661 38.8594 79.6634 41.0597 79.485 43.0816C79.1877 46.2928 77.6415 49.0878 75.2034 50.9313C72.7652 52.7153 69.554 53.4884 66.2833 52.9532C65.8075 52.8937 65.3318 52.7748 64.9155 52.418C64.2019 51.7638 64.2614 50.6934 64.4398 49.8014C65.2129 46.4118 66.2238 43.0221 67.5916 39.9298C68.4836 37.8485 70.0892 35.2319 72.4679 34.8156Z"
          fill="#FFE9D9"/>
    <path opacity="0.5"
          d="M77.7011 42.4277C77.7011 42.4277 77.7606 42.4277 77.7011 42.4277C76.5118 39.9895 74.4899 40.8816 72.9437 41.8925C71.8733 42.5466 70.9218 43.4981 70.1488 44.5091C69.792 44.9848 69.4946 45.4605 69.1973 45.9363C68.781 46.7094 68.4242 47.5419 68.1269 48.3744C67.889 49.0286 68.781 49.6233 69.0189 48.9097C69.4351 47.6014 70.0298 46.4715 70.7434 45.4605C72.5869 45.0443 75.0251 44.8659 75.7387 46.8283H75.7982C75.7982 44.2117 73.6573 44.0333 71.8138 44.2117L71.8733 44.1523C73.1816 42.7845 75.8576 40.7032 77.7011 42.4277Z"
          fill="black"/>
    <path opacity="0.5"
          d="M11.93 34.9941C11.93 35.0536 11.8705 34.9941 11.93 34.9941C13.714 32.9722 15.4386 34.3995 16.6874 35.7672C17.5199 36.7187 18.1741 37.8486 18.6498 39.0974C18.8282 39.6326 19.0066 40.1678 19.185 40.7625C19.3634 41.595 19.5418 42.487 19.6013 43.4385C19.6608 44.1521 18.6498 44.4495 18.5903 43.7358C18.5309 42.3086 18.293 41.0598 17.8767 39.8705C16.2116 38.919 13.8924 38.1459 12.7031 39.811C12.7031 39.811 12.6436 39.811 12.6436 39.7515C13.4167 37.1944 15.4386 37.6702 17.2226 38.3243C17.2226 38.2648 17.1631 38.2648 17.1631 38.2054C16.2116 36.5998 14.1303 33.8643 11.93 34.9941Z"
          fill="black"/>
    <path d="M59.9799 4.72547C52.8438 2.76305 45.7077 1.87104 38.3337 1.98997C30.3651 2.10891 23.5858 7.87725 22.0991 15.7269C20.7314 22.8036 19.8394 29.9397 19.3636 37.1352C18.8284 45.1038 24.0021 52.3589 31.7329 54.4997C38.8095 56.4621 45.9456 57.3541 53.3195 57.2352C61.3476 57.1162 68.1269 51.3479 69.6136 43.4982C70.9813 36.4216 71.8734 29.2855 72.3491 22.09C72.8248 14.1213 67.6512 6.80683 59.9799 4.72547Z"
          fill="#FFE9D9"/>
    <path d="M47.9673 42.7253C48.0267 41.8333 47.6105 41.0007 47.0158 40.2871C46.4211 39.633 45.5886 39.0978 44.6371 38.9194C44.1613 38.8599 43.6856 38.8599 43.2099 39.0383C42.7341 39.1572 42.3179 39.3951 41.9611 39.633C41.2474 40.1682 40.7717 40.9412 40.4744 41.7143C41.069 41.1196 41.7232 40.5844 42.3773 40.2276C43.0315 39.8708 43.8045 39.7519 44.5181 39.8114C45.2318 39.9303 45.8859 40.2871 46.4806 40.7628C47.1347 41.2981 47.6105 41.9522 47.9673 42.7253Z"
          fill="#4D2108"/>
    <path d="M25.4885 31.9021C24.8938 33.3293 24.8344 35.0539 25.3696 36.4811C25.9642 37.9678 27.2725 39.1571 28.7592 39.8113C30.008 40.3465 31.4352 40.5249 32.7435 40.287C34.0518 39.9897 35.3006 39.2166 36.0737 38.0867C36.6089 37.3137 36.9062 36.3622 36.9657 35.3512C37.1441 33.2104 36.2521 30.9506 34.6465 29.5234C33.2193 28.2746 31.1379 27.6799 29.2349 28.0962C27.5699 28.453 26.1426 30.4154 25.4885 31.9021Z"
          fill="white"/>
    <path d="M28.0456 34.4593C27.7483 36.7786 29.4134 38.8599 31.7326 39.1573C34.0518 39.4546 36.1332 37.7895 36.4305 35.4703C36.7278 33.1511 35.0628 31.0697 32.7435 30.7724C30.4838 30.5345 28.3429 32.1401 28.0456 34.4593Z"
          fill="#70D1D7"/>
    <path d="M32.4463 36.9571C32.2679 36.9571 32.1489 36.9571 31.9705 36.9571C30.9001 36.8381 30.127 35.8272 30.246 34.7568C30.3649 33.8648 31.0785 33.1512 31.9705 33.0322C32.1489 33.0322 32.2679 33.0322 32.4463 33.0322C33.5167 33.1512 34.2897 34.1621 34.1708 35.2325C34.1113 36.184 33.3977 36.8976 32.4463 36.9571Z"
          fill="#4D2108"/>
    <path d="M35.0626 29.8803C35.1221 29.9397 35.0626 29.9992 35.0031 29.9397C31.9108 27.2042 26.7966 28.6314 25.31 32.4373H25.2505C25.9046 27.2637 31.9108 25.777 35.0626 29.8803Z"
          fill="#4D2108"/>
    <path d="M64.9152 36.8975C65.1531 38.4437 64.7963 40.1087 63.8448 41.3576C62.8933 42.6658 61.3472 43.4984 59.7415 43.7363C58.3738 43.9741 57.006 43.7957 55.7572 43.201C54.5679 42.6064 53.5569 41.536 53.0812 40.2277C52.7839 39.3357 52.7244 38.3247 52.8433 37.3732C53.2001 35.2324 54.6273 33.27 56.5303 32.3185C58.2549 31.486 60.3957 31.4265 62.1202 32.259C63.7853 33.0321 64.7368 35.2919 64.9152 36.8975Z"
          fill="white"/>
    <path d="M61.823 38.7408C61.5257 41.06 59.4443 42.6656 57.1251 42.4278C54.8059 42.1304 53.2003 40.0491 53.4381 37.7298C53.7355 35.4106 55.8168 33.805 58.1361 34.0429C60.4553 34.3402 62.1204 36.4216 61.823 38.7408Z"
          fill="#70D1D7"/>
    <path d="M57.8386 40.168C57.6602 40.168 57.5413 40.168 57.3629 40.168C56.8277 40.1085 56.352 39.8112 56.0546 39.3949C55.7573 38.9787 55.5789 38.4435 55.6383 37.9677C55.7573 37.0757 56.4709 36.3621 57.3629 36.2432C57.5413 36.2432 57.6602 36.2432 57.8386 36.2432C58.9091 36.3621 59.6821 37.373 59.5632 38.4435C59.4443 39.3949 58.7306 40.1085 57.8386 40.168Z"
          fill="#4D2108"/>
    <path d="M56.1736 32.5562C56.1141 32.6157 56.1736 32.6751 56.233 32.6157C59.8605 30.7722 64.499 33.3887 64.9747 37.4325H65.0342C65.7478 32.3183 60.2768 29.4044 56.1736 32.5562Z"
          fill="#4D2108"/>
    <path d="M23.5261 27.3231C26.2021 23.874 31.4352 22.5657 35.8953 24.766C36.1332 24.885 36.3116 25.1823 36.3116 25.4202C36.3116 25.7175 36.3116 25.7175 36.1926 25.9554C36.0737 26.1933 35.7764 26.1933 35.5385 26.1338C31.0784 25.1823 27.2725 25.2418 23.7045 27.561C23.5855 27.6205 23.4666 27.4421 23.5261 27.3231Z"
          fill="#B35324"/>
    <path d="M67.1752 33.3888C65.748 29.2856 61.288 26.3122 56.2927 26.9069C56.0548 26.9663 55.7575 27.1447 55.6386 27.3826C55.5196 27.6205 55.5196 27.6799 55.5791 27.9178C55.6386 28.1557 55.8764 28.2746 56.1143 28.3341C60.6338 28.8693 64.2019 30.237 66.8779 33.5672C66.9968 33.6861 67.2347 33.5077 67.1752 33.3888Z"
          fill="#B35324"/>
    <path d="M31.1379 45.2821C32.803 49.8017 37.2036 53.3697 42.1394 54.1428C47.2536 54.9159 52.7246 52.7156 55.7574 48.6718C53.4977 47.9582 51.2379 47.3635 48.8592 46.8878C48.5619 46.8283 48.2645 46.7688 47.9077 46.7094C44.4586 46.0552 40.9501 45.5795 37.382 45.4011C35.3601 45.2227 33.2193 45.2227 31.1379 45.2821Z"
          fill="black"/>
    <path d="M35.4197 51.1694C37.3226 52.7156 39.6419 53.786 42.1395 54.1428C44.5182 54.4996 46.9564 54.2617 49.1566 53.4292C45.1129 51.0505 40.1176 50.2179 35.4197 51.1694Z"
          fill="#B33636"/>
    <path d="M37.4414 45.3418C37.4414 46.1743 37.5603 47.0069 37.6793 47.8394C37.7387 48.1962 37.9766 48.553 38.3929 48.6125C41.0689 49.3856 43.7449 49.7424 46.5399 49.8019C46.8373 49.8019 47.1941 49.6829 47.3725 49.3856C47.9077 48.553 48.4429 47.7205 48.9186 46.8285C48.6213 46.769 48.3239 46.7095 47.9671 46.6501C44.518 45.9959 41.0094 45.5797 37.4414 45.3418Z"
          fill="white"/>
    <path d="M73.241 30.3557C71.6353 30.5341 70.0297 30.7125 68.3646 30.8315C68.3052 29.88 68.1268 28.9285 67.8889 28.0365C67.4726 26.4309 66.8185 24.8847 65.6291 23.517C65.5697 23.4575 65.4507 23.517 65.5102 23.5765C66.1643 25.0631 66.3427 26.6093 66.3427 28.1555C66.3427 29.1069 66.2833 29.9989 66.2238 30.9504C65.3913 31.0099 64.5587 31.0099 63.7262 31.0099C63.6667 30.1179 63.5478 29.1664 63.3099 28.2744C63.1315 27.5013 62.8342 26.7877 62.4179 26.0741C62.3584 25.9552 62.1206 26.0146 62.18 26.1336C62.299 26.9066 62.299 27.6202 62.2395 28.3339C62.18 29.2259 62.0016 30.1179 61.8827 31.0099C57.6605 31.0099 53.3788 30.7125 48.9188 30.1773C48.9188 29.9989 48.9188 29.8205 48.9188 29.5827C48.9188 28.988 48.9783 28.3933 48.9783 27.7986C48.9783 26.0741 48.9783 24.3495 48.8593 22.625C48.7999 21.7924 48.7404 21.0194 48.6809 20.1868C48.6809 20.0084 48.3836 20.0084 48.3836 20.1868C48.3241 20.9599 48.2052 21.7924 48.1457 22.5655C47.9673 24.2306 47.7889 25.9552 47.551 27.6202C47.4321 28.3933 47.3132 29.1664 47.1942 29.9395C44.6966 29.5827 42.08 29.2259 39.404 28.7501C39.404 28.5717 39.404 28.3933 39.404 28.2149C39.404 27.5608 39.404 26.9066 39.404 26.193C39.404 25.0631 39.404 23.9927 39.2851 22.9223C39.2851 22.8629 39.1067 22.8034 39.1067 22.9223C38.8093 23.8143 38.4525 24.8847 38.2147 25.9552C38.0363 26.7877 37.8579 27.6202 37.7389 28.4528C35.4197 28.0365 33.1005 27.5608 30.6623 27.0256C30.7218 26.6688 30.7218 26.312 30.7812 26.0146C30.8407 25.3605 30.9596 24.6469 31.0786 23.9927C31.257 22.7439 31.5543 21.5546 31.9111 20.3652C32.0895 19.7705 32.3274 19.2353 32.5653 18.6407C32.6247 18.5217 32.4463 18.4623 32.3869 18.5217C31.9111 18.9975 31.4948 19.5327 31.138 20.1274C30.4839 21.1383 29.9487 22.2682 29.473 23.3981C29.0567 24.409 28.7593 25.4794 28.5215 26.5498C26.8564 26.193 25.1913 25.8362 23.4667 25.42C23.4667 25.42 23.4667 25.4199 23.4667 25.3605C23.7046 24.0522 23.883 22.8034 23.883 21.4356C23.883 21.2572 23.883 21.1383 23.883 20.9599C23.883 20.841 23.7046 20.841 23.6452 20.9599C23.5857 21.0788 23.5857 21.1978 23.5262 21.3167C23.1099 22.506 22.5153 23.7549 22.0395 25.0631C21.0881 24.8253 20.0771 24.5874 19.0662 24.3495C19.1256 22.625 19.304 21.0788 19.5419 19.6516C19.6608 18.7596 19.8392 17.8676 20.0771 17.035C21.6827 10.4936 25.1318 7.04452 29.2351 4.30902C30.9002 3.17914 32.6842 2.3466 34.4682 1.69246C38.0957 0.443642 41.9611 0.443642 45.7076 0.622044C50.5839 0.859914 55.5197 1.57352 60.1581 4.01169C65.4507 6.80665 71.3975 11.0288 73.3004 18.046C73.6572 19.2353 73.7762 20.841 73.8951 22.3871C73.9546 23.2791 74.014 24.1117 74.133 24.8253C74.133 25.0037 74.133 26.1336 74.014 27.3824C73.8356 28.8096 73.5978 30.2963 73.241 30.3557Z"
          fill="#FF7733"/>
    <g opacity="0.5">
        <path opacity="0.5"
              d="M21.8611 19.3545C21.9801 18.8787 22.0395 18.3435 22.1585 17.7489C21.4448 17.511 20.7312 17.2731 20.0176 17.0947C19.8392 17.9273 19.6608 18.7598 19.4824 19.7113C20.196 20.0086 20.9096 20.306 21.5638 20.6033C21.6827 20.187 21.7422 19.7708 21.8611 19.3545Z"
              fill="white"/>
        <path opacity="0.5"
              d="M28.343 19.5923C26.6184 19.176 24.9533 18.7002 23.2882 18.165C23.1693 18.9381 23.0504 19.7112 22.9314 20.4843C22.872 20.7221 22.872 20.9005 22.8125 21.1384C23.0504 21.1979 23.2288 21.3168 23.4666 21.3763C23.5856 21.4357 23.7045 21.4357 23.8234 21.4952C24.8939 21.9115 25.9643 22.2683 27.0942 22.6846C27.8672 22.9819 28.6403 23.2198 29.4134 23.4576C29.8891 22.2683 30.4243 21.1384 31.0785 20.1869C30.127 20.0085 29.235 19.7707 28.343 19.5923Z"
              fill="white"/>
        <path opacity="0.5"
              d="M34.825 20.9003C33.814 20.7219 32.8031 20.5435 31.8516 20.3057C31.4948 21.495 31.1974 22.7438 31.019 23.9332C31.8516 24.171 32.6841 24.4684 33.5761 24.7063C33.9329 23.4574 34.4087 22.2086 34.825 20.9003Z"
              fill="white"/>
        <path opacity="0.5"
              d="M36.1332 21.1387C35.7764 22.447 35.3601 23.8147 35.0627 25.1825C36.0737 25.4798 37.1441 25.7177 38.155 25.9555C38.3929 24.8851 38.7497 23.8147 39.0471 22.9227C39.0471 22.8632 39.2255 22.8632 39.2255 22.9227C39.2849 23.9931 39.3444 25.123 39.3444 26.1934C40.058 26.3718 40.7716 26.4907 41.4852 26.6691C41.7826 25.123 42.1394 23.5768 42.5556 22.0307C40.4148 21.8523 38.274 21.4955 36.1332 21.1387Z"
              fill="white"/>
        <path opacity="0.5"
              d="M48.0862 22.6254C46.8374 22.5064 45.5885 22.3875 44.3397 22.2686C44.0424 23.8742 43.8045 25.4798 43.5667 27.0854C44.8749 27.3233 46.1832 27.5017 47.4915 27.6801C47.7888 26.015 47.9078 24.3499 48.0862 22.6254Z"
              fill="white"/>
        <path opacity="0.5"
              d="M71.8732 25.8957C71.9326 26.4309 72.0516 27.0256 72.111 27.5608C72.7057 27.5013 73.3598 27.4418 73.9545 27.3229C74.0735 26.0741 74.1329 24.9442 74.0735 24.7658C73.9545 24.0522 73.8951 23.2196 73.8356 22.3276C73.0625 22.4466 72.2894 22.506 71.5164 22.5655C71.6353 23.6954 71.6948 24.8253 71.8732 25.8957Z"
              fill="white"/>
        <path opacity="0.5"
              d="M52.7248 22.9224C51.4165 22.863 50.1677 22.744 48.8594 22.6846C48.9783 24.4091 48.9783 26.1337 48.9783 27.8582C50.1677 27.9772 51.357 28.0961 52.5464 28.1556C52.4869 26.431 52.5464 24.647 52.7248 22.9224Z"
              fill="white"/>
        <path opacity="0.5"
              d="M57.0659 23.1009C55.936 23.1009 54.8061 23.0414 53.6762 22.9819C53.6168 24.766 53.6762 26.4905 53.7357 28.2745C54.6277 28.334 55.5792 28.3935 56.4712 28.3935C56.7686 26.6094 57.0064 24.8849 57.0659 23.1009Z"
              fill="white"/>
        <path opacity="0.5"
              d="M65.6885 23.4575C66.8779 24.8848 67.5915 26.3714 67.9483 27.9771C68.9592 27.9176 69.9107 27.7987 70.9217 27.6797C70.8622 26.9661 70.8027 26.2525 70.6838 25.5389C70.5648 24.5874 70.5649 23.6359 70.5054 22.625C66.4021 22.9818 62.2989 23.1007 58.1956 23.0413C58.2551 24.7658 58.1956 26.5498 57.9578 28.3339C59.385 28.3339 60.8122 28.3339 62.2394 28.2744C62.2989 27.5608 62.2989 26.8472 62.1799 26.0741C62.1799 25.8957 62.3584 25.8957 62.4178 26.0146C62.7746 26.7283 63.072 27.4419 63.3098 28.2149C64.3208 28.1555 65.3317 28.096 66.3427 28.0365C66.3427 26.4904 66.1643 24.9442 65.5101 23.4575C65.5101 23.4575 65.6291 23.3981 65.6885 23.4575Z"
              fill="white"/>
    </g>
    <path d="M48.443 39.276C47.2537 38.6813 46.0048 38.3245 44.6371 38.2056C43.2099 38.0272 41.7827 38.1461 40.3554 38.5029L40.0581 37.4325C41.6043 37.0757 43.1504 36.9568 44.756 37.1352C46.1832 37.3136 47.6105 37.7299 48.8593 38.3245L48.443 39.276Z"
          fill="#4D2108"/>
    <path d="M61.1096 47.8988C60.2176 48.0177 59.3256 48.0177 58.4336 47.8988C51.5354 47.1257 46.659 40.2869 47.5511 32.794C47.9673 29.1665 49.6919 25.8958 52.3084 23.5766C54.9845 21.2574 58.2552 20.1869 61.6448 20.6032C64.975 21.0195 67.9484 22.8035 70.0297 25.6579C72.0516 28.5124 72.9436 32.0804 72.5274 35.7079C72.1111 39.3354 70.3865 42.6062 67.77 44.9254C65.8075 46.6499 63.4883 47.6609 61.1096 47.8988ZM59.0877 21.6736C56.8874 21.9115 54.8061 22.863 53.0221 24.4091C50.5839 26.55 49.0377 29.5828 48.6215 32.913C47.8484 39.8707 52.3084 46.0553 58.5525 46.8283C61.5854 47.1851 64.5587 46.2337 66.9969 44.0928C69.4351 41.952 70.9812 38.9192 71.3975 35.589C71.8138 32.1994 70.9812 28.9287 69.0783 26.3121C67.2348 23.6955 64.4993 22.0899 61.4664 21.7331C60.6933 21.6142 59.8608 21.6142 59.0877 21.6736Z"
          fill="#4D2108"/>
    <path d="M31.4353 44.509C30.5433 44.6279 29.6513 44.6279 28.7593 44.509C21.9205 43.6765 17.0442 36.8972 17.8767 29.3448C18.293 25.7173 20.0176 22.4466 22.6341 20.1274C25.3102 17.8081 28.5809 16.7377 31.9705 17.154C35.3007 17.5703 38.2741 19.3543 40.3554 22.2087C42.3773 25.0632 43.2693 28.6312 42.8531 32.2587C42.4368 35.8862 40.7122 39.1569 38.0957 41.4762C36.1332 43.2007 33.8735 44.2117 31.4353 44.509ZM19.0066 29.4638C18.1741 36.362 22.6341 42.606 28.9377 43.3197C31.9705 43.6765 34.9439 42.725 37.3821 40.5842C39.8202 38.4433 41.3664 35.4105 41.7826 32.0803C42.1989 28.6907 41.3664 25.42 39.4634 22.8034C37.6199 20.1868 34.8844 18.5812 31.8516 18.2244C28.8187 17.8676 25.8454 18.8191 23.4072 20.9599C20.9691 23.1007 19.4229 26.1336 19.0066 29.4638Z"
          fill="#4D2108"/>
</svg>
