<svg width="70" height="80" viewBox="0 0 70 80" fill="none" xmlns="http://www.w3.org/2000/svg">
    <path d="M59.8449 58.9541C61.6644 58.7115 63.7873 59.8032 65.0003 61.5015C66.1527 63.1997 66.3953 65.3832 66.0921 67.2634C65.6068 70.2961 63.9692 72.9041 61.5431 74.4811C59.117 76.0581 56.0238 76.5433 52.9305 75.8761C52.5059 75.7548 52.0207 75.6335 51.6568 75.2696C50.9896 74.6024 51.1716 73.5713 51.3535 72.7828C52.2633 69.5682 53.4157 66.4143 54.932 63.5636C55.8418 61.6834 57.5401 59.2573 59.8449 58.9541Z"
          fill="#FFE9D9"/>
    <path d="M9.44258 49.4316C7.80497 48.5825 5.43952 48.7644 3.74126 49.9168C1.98234 51.0692 1.07255 53.0101 0.647983 54.8903C-0.0191937 57.8623 0.587331 60.9556 2.22495 63.2604C3.86256 65.6258 6.65257 67.2028 9.74585 67.688C10.1704 67.7486 10.7163 67.8093 11.1409 67.6273C11.99 67.2634 12.2326 66.2323 12.2932 65.3832C12.5965 62.0473 12.6572 58.7114 12.3539 55.4969C12.1719 53.374 11.5048 50.5234 9.44258 49.4316Z"
          fill="#FFE9D9"/>
    <path d="M29.7004 25.7771C36.7361 26.0804 43.4685 27.3541 50.1403 29.5982C57.3579 32.085 61.8462 39.3026 60.9364 46.8842C60.0873 53.7379 58.8136 60.5309 57.1153 67.2027C55.2351 74.6023 48.3813 79.6971 40.7391 79.3332C33.7034 79.0299 26.971 77.6956 20.2993 75.4514C13.0816 72.9647 8.59334 65.7471 9.50312 58.1655C10.3523 51.3118 11.626 44.5187 13.3242 37.8469C15.2045 30.508 22.0582 25.4132 29.7004 25.7771Z"
          fill="#FFE9D9"/>
    <path d="M29.4578 63.8666C29.7004 63.0781 30.3069 62.411 31.0347 61.9257C31.7626 61.5012 32.6723 61.2586 33.5821 61.3799C34.0067 61.4405 34.4313 61.6225 34.8558 61.8651C35.2197 62.1077 35.5837 62.411 35.8263 62.7749C36.3115 63.5027 36.5541 64.3518 36.5541 65.1403C36.1902 64.4125 35.7656 63.7453 35.2804 63.1994C34.7952 62.6536 34.128 62.3503 33.4608 62.229C32.7936 62.1077 32.0658 62.229 31.3986 62.4716C30.6102 62.8355 29.943 63.2601 29.4578 63.8666Z"
          fill="#4D2108"/>
    <path d="M41.9523 64.1096C44.9243 63.1998 48.3815 63.867 51.2321 65.444C51.4141 65.262 51.596 65.08 51.778 64.8981C52.7484 63.7457 53.173 62.1687 53.0517 60.7131C52.9304 59.1361 52.2026 56.892 50.7469 56.1035C49.1093 55.1937 47.1078 55.133 45.4095 55.8609C43.4686 56.6493 42.013 58.4689 41.5884 60.4704C41.4064 61.3802 41.3458 62.3507 41.6491 63.1998C41.7097 63.5031 41.831 63.8063 41.9523 64.1096Z"
          fill="white"/>
    <path d="M42.7407 63.8665C44.6816 63.4419 46.8045 63.6845 48.806 64.3517C49.3519 63.8058 49.7764 63.078 49.9584 62.2289C50.383 60.0454 48.9273 57.9225 46.7438 57.498C44.5603 57.0734 42.4375 58.5291 42.0129 60.7125C41.7703 61.8649 42.0736 63.0173 42.7407 63.8665Z"
          fill="#4D2108"/>
    <path d="M44.9243 55.9819C44.8636 55.9819 44.9243 56.1032 44.9849 56.0425C48.5634 54.4655 52.8091 57.2556 53.0517 61.1373H53.1124C54.0828 56.2851 48.988 53.1918 44.9243 55.9819Z"
          fill="#4D2108"/>
    <path d="M25.1516 60.895C22.7255 58.9541 19.2683 58.3476 16.0537 58.7115C15.9324 58.4689 15.8111 58.2263 15.7505 57.9837C15.2652 56.5887 15.4472 54.9511 16.1144 53.6167C16.7815 52.2217 18.2979 50.4021 19.9355 50.2202C21.755 49.9776 23.6959 50.6447 24.9696 51.9184C26.4859 53.3741 27.1531 55.5576 26.8499 57.6198C26.7285 58.5295 26.3646 59.4393 25.8188 60.1672C25.6368 60.4098 25.4548 60.713 25.1516 60.895Z"
          fill="white"/>
    <path d="M24.4844 60.4099C22.7861 59.3181 20.7846 58.7116 18.6618 58.5903C18.3585 57.8625 18.2372 57.0133 18.3585 56.1642C18.7831 53.9807 20.9059 52.5251 23.0894 52.9496C25.2729 53.3742 26.7285 55.497 26.304 57.6805C26.122 58.8936 25.4548 59.864 24.4844 60.4099Z"
          fill="#4D2108"/>
    <path d="M25.3943 52.2824C25.3943 52.343 25.3336 52.4037 25.3336 52.343C22.5436 49.553 17.5701 50.5841 15.9325 54.1626H15.8718C16.7816 49.2498 22.6042 48.158 25.3943 52.2824Z"
          fill="#4D2108"/>
    <path d="M55.9631 52.8885C53.537 49.4919 48.6242 47.9756 44.2572 49.9165C44.0146 50.0378 43.8326 50.2804 43.8326 50.523C43.772 50.7656 43.8326 50.8263 43.9539 51.0689C44.0752 51.3115 44.3785 51.3115 44.5605 51.2508C48.8668 50.523 52.5059 50.7656 55.8418 53.1311C55.8418 53.1917 56.0238 53.0098 55.9631 52.8885Z"
          fill="#334166"/>
    <path d="M15.8112 45.3072C19.2684 43.0631 24.4238 43.427 27.8204 46.7629C28.0023 46.9448 28.063 47.2481 28.0023 47.4907C27.9417 47.7333 27.881 47.794 27.6991 47.9153C27.5171 48.0972 27.2138 47.9759 27.0319 47.8546C23.3321 45.6105 19.8142 44.5187 15.8718 45.4892C15.8112 45.6105 15.6899 45.3679 15.8112 45.3072Z"
          fill="#334166"/>
    <path d="M43.8931 69.5072C43.5898 69.022 42.9833 68.9614 42.4981 69.0827C42.0735 69.204 41.649 69.4466 41.4064 69.8712C41.4064 69.9318 41.3457 69.9318 41.3457 69.9925C41.1637 70.2957 40.9818 70.6596 40.6785 70.9023C39.8294 71.6301 38.6163 71.9333 37.4033 72.0546C36.7361 72.0546 36.0689 72.0546 35.4018 72.0546C34.1887 71.994 32.915 71.8727 31.702 71.6907C31.6413 71.6907 31.6413 71.6907 31.5807 71.6907C31.52 71.6907 31.52 71.6907 31.4594 71.6907C30.2463 71.4481 29.0333 71.0842 27.8809 70.6596C27.2743 70.417 26.6678 70.1744 26.0613 69.9318C24.9695 69.3859 23.9991 68.6581 23.4532 67.627C23.2713 67.2631 23.2713 66.8992 23.15 66.5353C23.15 66.4746 23.15 66.4746 23.15 66.414C23.0287 65.9894 22.7861 65.5648 22.4221 65.3222C21.9976 65.019 21.3911 64.837 20.9665 65.2009C20.5419 65.5648 20.2387 66.0501 20.36 66.6566C20.5419 67.5057 21.573 67.809 22.3008 68.2335C23.2713 68.8401 24.1204 69.5679 25.0909 70.1138C26.7285 70.9629 28.548 71.5088 30.3676 71.9333C30.7315 71.994 31.1561 72.0546 31.52 72.176C31.8839 72.2366 32.3085 72.3579 32.6724 72.4186C34.492 72.7218 36.4329 72.9038 38.2524 72.6612C39.4048 72.5399 40.4359 72.176 41.5277 71.9333C42.3161 71.812 43.4079 71.8727 43.8931 71.1449C44.257 70.599 44.1964 69.9925 43.8931 69.5072Z"
          fill="black"/>
    <path opacity="0.5"
          d="M64.0903 66.1717C64.0903 66.1717 64.151 66.1717 64.0903 66.1717C62.9379 63.685 60.8758 64.4735 59.2381 65.5045C58.1464 66.1717 57.1153 67.0815 56.2662 68.1126C55.9023 68.5372 55.599 69.0224 55.2957 69.5683C54.8105 70.2961 54.4466 71.1452 54.0827 72.055C53.8401 72.7222 54.6892 73.3287 54.9318 72.6615C55.417 71.3272 56.0236 70.1748 56.812 69.1437C58.6923 68.7191 61.179 68.6585 61.8462 70.66H61.9068C61.9675 67.9913 59.784 67.7487 57.9038 67.87L57.9644 67.8093C59.4808 66.4143 62.2708 64.3522 64.0903 66.1717Z"
          fill="black"/>
    <path opacity="0.5"
          d="M3.80194 54.6479C3.74128 54.7085 3.74128 54.6479 3.80194 54.6479C5.98542 53.0103 7.44108 54.7086 8.41152 56.3462C9.0787 57.4379 9.50326 58.7116 9.74587 60.046C9.86718 60.5918 9.92783 61.1984 9.92783 61.8049C9.98848 62.7147 9.92783 63.6245 9.80653 64.5342C9.68522 65.2621 8.65413 65.3227 8.77544 64.6555C8.95739 63.2605 8.95739 61.9262 8.77544 60.7131C7.31978 59.4394 5.13629 58.2264 3.61998 59.6214C3.61998 59.6214 3.55933 59.6214 3.55933 59.5607C4.83303 57.1953 6.77391 58.0444 8.41152 59.0149C8.41152 58.9542 8.41152 58.9542 8.35087 58.8936C7.74434 57.1346 6.22803 53.9807 3.80194 54.6479Z"
          fill="black"/>
    <path d="M67.3049 47.2482C66.5771 48.7646 65.7279 50.4628 64.7575 52.2824C62.8166 55.9215 60.4512 59.7426 58.2677 62.2294C57.2973 60.1066 58.3283 58.0444 58.6923 55.8609C57.9038 55.1331 57.3579 53.92 56.9333 52.5857C56.3268 50.7054 55.9022 48.5826 55.417 47.3089C54.5072 44.6402 54.4466 41.7895 55.2957 39.1208C54.2646 37.7865 51.4746 36.3308 49.8977 35.4817C46.5011 33.4801 42.1948 32.9343 38.6163 33.9654C35.4624 31.6606 28.3054 29.9623 24.6056 30.5688C22.9073 30.8721 21.391 31.4786 20.0567 32.3277C20.2993 35.1784 19.6321 37.9078 18.1764 40.1519C16.9634 41.9715 15.2651 43.4271 13.2029 44.3976C13.1423 44.3976 13.1423 44.3976 13.1423 44.4582C12.9603 47.7335 14.0521 51.3726 11.3834 53.2528C9.98836 49.8563 9.01792 46.2778 8.35074 42.578C7.98683 40.3339 7.68357 38.0897 7.56226 35.8456C7.3803 31.9638 7.74422 27.5969 11.0194 25.2314C11.5653 24.8675 12.1718 24.5036 12.7784 24.261C13.5062 21.2283 15.6897 18.4383 18.5403 16.3155C21.6336 14.0107 25.4547 12.3731 29.4578 10.9174C31.5806 6.48981 35.5837 2.5474 40.7998 0C41.4063 5.33741 43.3472 10.4322 46.3192 14.9812C50.6861 17.2859 54.8105 19.894 58.571 22.7447C60.9971 24.5642 63.3625 26.5658 65.0608 28.8706C66.4558 30.7508 67.3656 32.9343 67.4262 35.0571C67.7901 35.421 68.0934 35.7849 68.336 36.2095C70.3982 39.5454 69.0638 43.7304 67.3049 47.2482Z"
          fill="#334166"/>
    <path opacity="0.25"
          d="M11.3835 53.3135C9.98845 49.917 9.01801 46.3385 8.35083 42.6387C9.86714 43.4272 11.5048 43.973 13.203 44.4582C13.1424 44.4582 13.1424 44.4582 13.1424 44.5189C12.9604 47.7941 14.0522 51.4333 11.3835 53.3135Z"
          fill="black"/>
    <path opacity="0.25"
          d="M64.7575 52.2217C62.8166 55.8608 60.4512 59.6819 58.2677 62.1687C57.2973 60.0458 58.3284 57.9837 58.6923 55.8002C57.9038 55.0723 57.3579 53.8593 56.9333 52.5249C59.5414 52.5856 62.1495 52.4643 64.7575 52.2217Z"
          fill="black"/>
    <path opacity="0.5"
          d="M64.2117 34.3293C63.12 28.628 57.6612 24.2004 53.2336 21.2891C47.5323 17.468 39.5262 12.919 40.1327 4.54899C40.1327 4.42768 39.9507 4.42768 39.9507 4.54899C38.5557 11.3421 41.8916 16.7401 46.5619 21.3497C49.1093 23.8365 52.1419 25.656 55.1138 27.4756C58.3284 29.4771 61.0578 31.9639 63.7871 34.6326C64.0298 34.7539 64.2724 34.5719 64.2117 34.3293Z"
          fill="white"/>
    <path opacity="0.5"
          d="M26.7285 14.2532C20.36 15.9515 12.7784 22.138 14.2341 28.8705C14.2948 29.1737 14.7193 29.3557 14.9619 29.1131C17.1454 27.1722 18.5404 24.3215 20.2387 22.0167C22.1796 19.348 24.545 16.9219 26.9711 14.5565C27.0924 14.4352 26.9105 14.1926 26.7285 14.2532Z"
          fill="white"/>
    <path opacity="0.5"
          d="M38.6162 30.5686C36.1294 26.3229 33.764 22.2592 33.6427 17.1644C33.582 14.7989 34.0066 12.2515 34.7951 10.0074C35.6442 7.64194 37.2818 5.82237 38.3129 3.57823C38.3129 3.51758 38.3129 3.51758 38.2522 3.51758C33.582 5.33715 31.0953 12.0696 30.9133 16.6792C30.6707 22.1379 33.2181 28.3851 38.3129 30.8718C38.5555 30.9931 38.7981 30.7505 38.6162 30.5686Z"
          fill="white"/>
    <path opacity="0.5"
          d="M17.3273 31.3574C17.3273 31.0541 16.9027 30.9328 16.7814 31.1754C15.6897 32.8737 15.0831 34.9359 14.0521 36.6948C13.1423 38.3324 11.5047 39.7274 10.9588 41.4864C10.7768 42.0929 11.444 42.5175 11.9899 42.2748C13.7488 41.4257 14.9618 38.9996 15.7503 37.3013C16.5995 35.5424 17.5092 33.2983 17.3273 31.3574Z"
          fill="white"/>
    <path opacity="0.5"
          d="M57.3579 37.0586C57.2972 37.0586 57.1759 37.0586 57.1152 37.0586C56.5087 37.2406 57.0546 38.0897 57.1759 38.3929C57.4185 38.9995 57.6611 39.6667 57.9037 40.2732C58.7529 42.8206 59.1774 45.5499 59.1168 48.2793C59.1168 48.8252 59.0561 49.4317 58.9955 49.9776C58.9955 50.2202 58.9348 50.4021 59.0561 50.6447C59.1168 50.8267 59.3594 51.0087 59.5413 50.948C59.6626 50.8873 59.784 50.8267 59.8446 50.7054C61.179 49.1284 61.7855 47.0056 61.7855 44.9434C61.7248 42.3354 60.5724 39.606 58.5709 37.9077C58.3283 37.6651 57.7824 37.1192 57.3579 37.0586Z"
          fill="white"/>
    <path d="M37.7065 60.2278C36.6147 59.6819 35.4623 59.2574 34.1886 59.0148C32.8543 58.7721 31.4593 58.7115 30.1249 58.8934L29.8823 57.923C31.338 57.741 32.8543 57.741 34.31 58.0443C35.705 58.2869 36.9787 58.7721 38.1917 59.3787L37.7065 60.2278Z"
          fill="black"/>
    <path d="M48.8668 68.1733C48.0177 68.1733 47.2292 68.1126 46.38 67.9913C40.0722 66.8389 35.9478 60.9557 37.1609 54.5872C37.7674 51.3726 39.7083 48.4613 42.4983 46.5204C45.4096 44.5189 48.9274 43.7304 52.324 44.3369C55.7205 44.9434 58.5712 46.945 60.2088 49.7956C61.8464 52.5856 62.1497 55.9215 61.1792 59.0754C60.2088 62.1687 58.1466 64.7161 55.2959 66.3537C53.3551 67.5061 51.1109 68.1733 48.8668 68.1733ZM49.6553 45.186C47.4111 45.2467 45.167 45.9745 43.2261 47.3089C40.6181 49.1284 38.8591 51.7365 38.2526 54.7085C37.1002 60.5917 40.8607 65.9898 46.562 67.0816C49.352 67.6274 52.2633 67.0816 54.7501 65.5652C57.3581 64.0489 59.2384 61.6228 60.1481 58.7722C61.0579 55.8609 60.7547 52.8282 59.2384 50.2808C57.722 47.6728 55.1746 45.9139 52.0814 45.368C51.2929 45.2467 50.4437 45.186 49.6553 45.186Z"
          fill="black"/>
    <path d="M21.755 63.1392C20.9665 63.1392 20.1174 63.0786 19.3289 62.9573C13.0211 61.8049 8.22954 55.8003 8.6541 49.2498C8.83606 45.9746 10.3524 43.0026 12.8391 40.9404C15.4472 38.8782 18.7831 38.0291 22.1796 38.6356C25.5761 39.2422 28.6088 41.2437 30.6103 44.2157C32.5512 47.0663 33.279 50.4629 32.7331 53.6774C32.1872 56.8314 30.489 59.4394 27.9416 61.1983C26.0614 62.472 23.9385 63.1392 21.755 63.1392ZM9.68519 49.4318C9.26063 55.4364 13.6276 60.9557 19.3896 62.0475C22.1796 62.5327 24.909 61.9868 27.2137 60.4705C29.5185 58.8936 31.0955 56.4068 31.5807 53.4955C32.0659 50.5235 31.3988 47.4302 29.5792 44.7615C27.7596 42.0928 25.0303 40.3339 21.9976 39.7274C18.9044 39.1815 15.9324 39.9093 13.5669 41.7896C11.2622 43.6698 9.9278 46.3992 9.68519 49.4318Z"
          fill="black"/>
</svg>