<svg width="95" height="65" viewBox="0 0 95 65" fill="none" xmlns="http://www.w3.org/2000/svg">
    <path d="M44.4956 46.8297C44.0812 47.8139 43.7704 48.7463 43.0971 49.6269C40.9733 52.3204 38.1243 54.496 34.7574 55.6874C35.0164 57.8112 34.8092 59.6759 33.3588 61.3335C31.3904 63.6127 28.645 64.5451 25.4335 64.4933C23.8277 64.4415 22.2219 63.9235 20.7197 63.3537C19.7355 63.8717 18.855 64.1307 17.6118 63.9235C15.8506 63.5609 14.2448 62.6285 12.7944 61.3853C11.8621 60.5565 10.9815 59.4169 10.5153 58.2774C6.63032 58.381 2.95256 55.8946 0 53.3564C0.362595 52.424 0.828789 51.5952 1.45038 50.8701C3.31516 48.6945 6.31952 47.6585 9.47928 48.1247C9.42748 49.0571 9.32388 51.4916 9.32388 52.1132C9.32388 53.8744 9.53108 54.9622 10.1527 56.309C10.2563 56.4644 10.3081 56.6716 10.4117 56.8788C10.4635 56.827 10.5671 56.7752 10.6189 56.7234C11.3959 56.1536 12.121 55.6356 12.898 55.0658C13.8304 54.3924 14.711 53.8744 16.006 54.0298C16.6276 54.0816 17.3528 54.496 17.8708 54.8068C17.8708 52.7348 17.3528 51.1291 18.2852 49.1607C18.9586 47.8139 20.3571 46.9333 21.9111 46.5189C21.7557 45.8973 21.5485 45.3275 21.3931 44.7577C20.4607 41.2354 19.7355 38.231 20.9269 34.7605C21.8075 32.2741 23.9831 30.6165 26.5213 29.6323C30.7688 31.4971 34.7056 33.4655 38.0725 36.677C40.9733 39.4224 42.8381 42.4786 44.133 46.0527C44.2884 46.2599 44.392 46.5189 44.4956 46.8297Z" fill="#5C3725"/>
    <path d="M95 31.9117C93.5496 35.0196 91.4776 38.4384 88.4215 39.9406C88.3697 39.9924 88.2661 39.9924 88.2143 40.0442C88.2143 41.132 87.9035 42.4269 87.4373 43.4111C87.3855 43.4629 87.3855 43.5665 87.3337 43.6183C86.6085 45.1205 85.6761 46.4673 84.4329 47.3997C83.5005 48.0731 82.7235 48.2285 81.7393 48.2285C80.7034 49.3163 79.6156 50.3522 78.3724 51.0256C75.8342 52.3724 73.296 52.735 70.9651 51.699C69.2557 50.922 68.4787 49.5234 67.9607 47.7623C64.9046 48.1767 61.8484 47.5551 59.2066 46.3119C58.3778 45.8975 57.808 45.2759 57.1347 44.6543C57.0311 43.5665 57.0311 42.5305 57.0829 41.4428C57.1865 38.9046 57.7044 36.47 58.7404 33.9318C60.398 29.9951 62.8844 26.8871 65.6297 23.6756C68.0125 23.4166 70.3435 23.831 71.8457 25.4886C73.9694 27.7677 74.3838 30.5131 74.85 33.6729C74.9536 34.1908 74.9536 34.7606 75.0054 35.3304C76.404 35.0714 77.8026 35.175 78.7868 36.0038C80.2372 37.1952 80.3408 38.6974 81.0659 40.3032C81.4285 39.837 81.8429 39.2672 82.3091 38.9564C83.2933 38.283 84.1221 38.3348 85.1581 38.4902C86.0387 38.6456 86.8675 38.7492 87.7481 38.9046C87.8517 37.2988 87.6963 36.3146 87.0229 34.7088C86.8157 34.1908 85.8833 32.2743 85.5725 31.6009C88.2143 29.7361 91.374 29.5289 93.705 30.9275C94.1712 31.1865 94.5856 31.4973 95 31.9117Z" fill="#5C3725"/>
    <path opacity="0.5" d="M44.1848 45.9492C44.2884 46.2082 44.392 46.519 44.4956 46.8298C44.0812 47.814 43.7704 48.7464 43.0971 49.627C40.9733 52.3205 38.1243 54.4961 34.7574 55.6875C35.0164 57.8113 34.8092 59.676 33.3588 61.3336C31.3904 63.6128 28.645 64.5452 25.4335 64.4934C23.8277 64.4416 22.2219 63.9236 20.7197 63.3538C19.7355 63.8718 18.855 64.1308 17.6118 63.9236C15.8506 63.561 14.2448 62.6286 12.7944 61.3854C11.8621 60.5566 10.9815 59.4171 10.5153 58.2775C6.63032 58.3811 2.95256 55.8947 0 53.3565C0.362595 52.4241 0.828789 51.5953 1.45038 50.8702C1.81298 51.1292 2.17557 51.3882 2.48637 51.6471C4.81734 53.5119 7.9253 54.3925 10.1527 56.2573C10.3081 56.4127 10.4635 56.5163 10.6189 56.6717C10.9297 56.9825 11.1887 57.2933 11.4477 57.6041C12.3282 58.7437 13.6232 59.5206 15.0736 59.7796C16.4722 59.9868 18.2334 59.417 19.4248 58.5883C21.6521 59.8832 24.6047 59.8314 26.7803 58.3811C28.904 56.9307 30.1472 54.2371 29.8364 51.6989C35.0682 51.3364 40.1445 49.2644 44.1848 45.9492Z" fill="black"/>
    <path opacity="0.5" d="M87.3337 43.6184C86.6085 45.1206 85.6761 46.4674 84.4329 47.3998C83.5005 48.0732 82.7235 48.2286 81.7393 48.2286C80.7034 49.3164 79.6156 50.3524 78.3724 51.0258C75.8342 52.3725 73.296 52.7351 70.9651 51.6991C69.2557 50.9222 68.4787 49.5236 67.9607 47.7624C64.9046 48.1768 61.8484 47.5552 59.2066 46.312C58.3778 45.8976 57.808 45.276 57.1347 44.6544C57.0311 43.5666 57.0311 42.5307 57.0829 41.4429C57.3936 41.5983 57.7562 41.7019 58.067 41.8055C59.9836 42.4789 62.0038 42.8933 64.0758 43.1004C64.6974 43.1522 69.8255 42.8933 69.9291 43.0487C72.0011 46.3638 78.5796 48.4876 80.9624 44.2918C82.5681 45.535 85.0545 45.535 86.6603 44.2918C86.8675 44.1364 87.1265 43.8774 87.3337 43.6184Z" fill="black"/>
    <path opacity="0.5" d="M95.0001 31.912C93.5497 35.0199 91.4778 38.4387 88.4216 39.9409C88.3698 39.5265 88.2662 39.1639 88.1626 38.8013C90.908 36.9365 92.8763 34.0875 93.7569 30.876C94.1713 31.1868 94.5857 31.4976 95.0001 31.912Z" fill="black"/>
    <path d="M66.3549 27.1465C67.7535 26.4213 69.7736 26.6285 71.224 27.6127C72.6744 28.6487 73.5032 30.3063 73.814 31.8602C74.332 34.3984 73.814 37.0402 72.3636 39.0086C70.9132 40.9769 68.5823 42.3755 65.8887 42.7381C65.5261 42.7899 65.0599 42.8417 64.6973 42.6345C63.9721 42.3237 63.7649 41.4431 63.7131 40.7179C63.4541 37.869 63.4541 35.02 63.7649 32.2746C63.9721 30.4617 64.5937 28.0271 66.3549 27.1465Z" fill="#FFE9D9"/>
    <path opacity="0.5" d="M72.0011 31.2905C72.0529 31.2905 72.0529 31.2387 72.0011 31.2905C70.1363 29.8919 68.8932 31.3941 68.0644 32.7926C67.4946 33.7768 67.132 34.8128 66.9766 35.9524C66.873 36.4186 66.8212 36.9366 66.8212 37.4546C66.7694 38.2316 66.8212 39.0086 66.9766 39.7856C67.0802 40.4072 67.9608 40.459 67.8572 39.8374C67.7018 38.646 67.65 37.5064 67.8054 36.4704C69.0486 35.3826 70.8615 34.2948 72.2083 35.538C72.2083 35.538 72.2601 35.538 72.2601 35.4862C71.1723 33.466 69.5147 34.1912 68.1162 35.0718C68.1162 35.02 68.1162 35.02 68.168 34.9682C68.686 33.3624 69.9291 30.6689 72.0011 31.2905Z" fill="black"/>
    <path d="M54.0267 7.46258C48.018 7.66978 42.2165 8.70577 36.5186 10.5705C33.2034 11.6583 30.4062 13.9893 28.7487 17.0973C26.9357 20.4642 26.7803 24.3492 27.1947 28.0269C27.7645 33.6212 29.2666 39.371 32.4782 44.0847C37.5027 51.492 45.9978 53.8748 54.5965 52.8388C54.7001 52.8388 54.7519 52.8388 54.8555 52.787C62.7808 51.751 70.2917 46.8819 71.0687 38.335C71.1723 37.3508 71.1205 36.3666 71.0169 35.3824C70.3435 29.5291 69.3075 23.7276 67.909 18.0296C66.3032 11.6583 60.5535 7.25538 54.0267 7.46258Z" fill="#FFE9D9"/>
    <path d="M62.3147 40.4071C62.1593 39.7337 61.6931 39.2157 61.1752 38.8531C60.6572 38.5423 59.9838 38.4387 59.3104 38.6459C58.9996 38.7495 58.6888 38.9567 58.4298 39.2157C58.1708 39.4747 57.9118 39.7855 57.7564 40.0963C57.3938 40.7697 57.2384 41.4948 57.2384 42.22C57.4974 41.5466 57.8082 40.9251 58.1708 40.4071C58.5334 39.8891 58.9478 39.5265 59.4658 39.3711C59.932 39.2157 60.5018 39.2157 60.968 39.4229C61.4859 39.6301 61.9521 39.9409 62.3147 40.4071Z" fill="#4D2108"/>
    <path d="M37.451 30.1505C39.005 26.7835 43.1489 24.4525 47.3965 25.0741C47.6037 25.1259 47.8627 25.2813 47.9145 25.4885C47.9663 25.6957 47.9663 25.7475 47.9145 25.9547C47.8627 26.1619 47.6037 26.2655 47.3965 26.2655C43.4597 26.5763 40.1964 27.6123 37.6582 30.3059C37.6064 30.3577 37.3992 30.2541 37.451 30.1505Z" fill="#5C3725"/>
    <path d="M64.8011 22.6398C62.3665 20.5161 59.2586 20.4125 57.5492 22.8988C57.4456 23.0024 57.4456 23.3132 57.4974 23.4686C57.5492 23.6758 57.601 23.7276 57.7046 23.8312C57.86 23.9866 58.0154 23.9348 58.119 23.8312C60.1392 22.2772 62.1593 21.7074 64.6975 22.7952C64.8529 22.847 64.9047 22.6916 64.8011 22.6398Z" fill="#5C3725"/>
    <path d="M57.0311 44.0848C57.1865 44.4992 57.6527 44.7582 58.2743 44.9136C58.8959 45.069 59.6211 45.069 60.3981 44.8618C60.4499 44.8618 60.5017 44.8618 60.5017 44.81C60.8125 44.7064 61.1233 44.6028 61.4341 44.3956C61.6931 44.2402 61.9003 44.0848 62.1075 43.9294C62.1593 43.8776 62.2111 43.8258 62.2629 43.774C62.6773 43.3078 62.8845 42.8416 62.9363 42.4272C62.5737 42.8416 62.2629 43.256 61.7967 43.6186C61.6931 43.6704 61.5895 43.774 61.5377 43.8258C61.1751 44.0848 60.7607 44.2402 60.2945 44.3956C60.1391 44.4474 59.9837 44.4992 59.7765 44.4992C59.3621 44.551 58.9477 44.551 58.5333 44.551C57.9635 44.4474 57.4455 44.292 57.0311 44.0848Z" fill="black"/>
    <path d="M50.7117 39.4229C50.7635 39.4747 50.7117 39.5783 50.6599 39.5265C46.9822 36.0041 41.2842 37.5581 39.8857 42.3237C39.8857 42.3755 39.8339 42.3237 39.8339 42.3237C40.0929 35.7451 46.8268 34.1394 50.7117 39.4229Z" fill="#4D2108"/>
    <path d="M47.0858 35.538C48.2772 34.8128 49.7794 34.6574 50.2456 36.1078C50.2456 36.1596 50.1938 36.2632 50.142 36.2632C49.106 36.0042 48.2254 35.4344 47.0858 35.6934C47.034 35.6416 47.034 35.5898 47.0858 35.538Z" fill="#4D2108"/>
    <path d="M62.2111 37.04C62.2111 37.0918 62.2629 37.1436 62.2629 37.0918C63.4024 32.0673 67.0284 30.7723 69.1004 34.45C69.1004 34.45 69.1522 34.45 69.1522 34.3982C67.2356 28.6485 62.988 30.3579 62.2111 37.04Z" fill="#4D2108"/>
    <path d="M63.2471 31.7564C62.3665 31.6528 61.486 32.2226 61.6414 33.7766C61.6414 33.8284 61.6932 33.932 61.745 33.8802C62.2629 33.155 62.5737 32.2226 63.2989 31.86L63.2471 31.7564Z" fill="#4D2108"/>
    <path d="M27.9716 35.5379C26.4177 35.3307 24.6047 36.2113 23.5687 37.6616C22.5327 39.112 22.3773 40.9768 22.5845 42.5308C22.9471 45.1208 24.3457 47.3999 26.3659 48.7467C28.386 50.0935 31.0796 50.5597 33.7214 50.0417C34.084 49.9381 34.4984 49.8345 34.8092 49.5755C35.3789 49.0057 35.2753 48.1251 35.0681 47.4517C34.343 44.7064 33.3588 42.0128 32.1156 39.5264C31.3386 37.8688 29.94 35.7969 27.9716 35.5379Z" fill="#FFE9D9"/>
    <path opacity="0.5" d="M24.3457 42.22C24.2939 42.2718 24.2939 42.22 24.3457 42.22C25.3817 40.0962 27.1429 40.8732 28.5415 41.8056C29.4739 42.4272 30.3027 43.2042 30.976 44.1366C31.2868 44.551 31.5458 44.9654 31.8048 45.3798C32.1674 46.0532 32.4782 46.7784 32.7372 47.5035C32.9444 48.0733 32.1674 48.5395 31.9602 47.9697C31.5976 46.8302 31.0796 45.7942 30.4581 44.9136C28.8523 44.4992 26.7285 44.3956 26.1069 46.0532H26.0551C26.1069 43.774 27.9199 43.6186 29.5775 43.8258L29.5257 43.774C28.2825 42.5826 25.8997 40.7696 24.3457 42.22Z" fill="black"/>
    <path d="M70.8097 21.9145C70.8097 22.5361 70.4989 26.3174 70.0327 28.0786C69.9809 28.234 69.8255 28.234 69.7737 28.0786C67.7536 24.1419 64.9046 21.2411 61.952 19.1173C60.3462 17.9259 58.6887 16.9935 57.0829 16.2166C52.9907 14.2482 49.3648 13.5748 48.0698 13.4712C47.8108 13.4712 43.4079 17.2007 39.2639 23.0541C37.8135 25.0742 36.415 27.3534 35.2236 29.8398C33.825 32.9477 32.6854 36.1593 32.1674 39.5263C31.8566 41.4428 29.2148 36.8327 28.4379 35.7967C26.7285 33.5175 25.3299 30.9794 24.3457 28.3376C24.0867 27.716 23.8795 27.0944 23.7241 26.4728C23.5169 25.8512 23.3615 25.2296 23.2061 24.608C22.5845 21.6555 22.5845 18.4439 24.3975 15.9058C24.8637 15.2324 25.4853 14.7662 26.0551 14.2482C26.2105 14.0928 28.2825 13.0568 28.2825 13.4712C28.8522 6.78908 36.415 3.42212 39.5229 2.17893C42.8899 0.780352 46.5676 0.0551612 50.2972 0.00336186C54.6483 -0.0484375 59.7765 0.469556 63.4542 3.57752C64.9564 4.8207 66.1996 6.58188 67.2356 8.44666C68.0644 9.94884 68.7377 11.5028 69.2557 13.0568C69.4629 13.7302 69.6701 14.3518 69.8255 14.9734C70.4989 17.2525 70.8097 19.5835 70.8097 21.9145Z" fill="#5C3725"/>
    <path opacity="0.5" d="M25.4852 27.0943C25.3816 26.4209 25.3298 25.7993 25.278 25.1259C24.76 25.0223 24.242 24.8669 23.6722 24.7115C23.5168 24.6598 23.3615 24.608 23.2061 24.5562C23.3615 25.1777 23.5169 25.7993 23.724 26.4209C23.9312 27.0425 24.1384 27.6641 24.3456 28.2857C24.8636 28.4929 25.3298 28.7001 25.8478 28.9073C25.7442 28.3375 25.5888 27.7159 25.4852 27.0943Z" fill="white"/>
    <path opacity="0.5" d="M31.1314 25.4366C29.422 25.6438 27.6608 25.592 25.9514 25.2812C26.1068 26.628 26.4176 27.923 26.7802 29.218C26.7802 29.2698 26.7802 29.2698 26.832 29.3216C27.8162 29.6324 28.8004 29.8914 29.7846 30.0468C30.0436 30.0986 30.3026 30.0986 30.5098 30.1504C30.6652 28.4928 30.8724 26.9388 31.1314 25.4366Z" fill="white"/>
    <path opacity="0.5" d="M32.1155 25.2814C32.1155 26.939 32.0637 28.5966 32.0637 30.2024C33.0997 30.2542 34.1357 30.1506 35.1717 29.9952C36.3631 27.5088 37.7616 25.2296 39.212 23.2095C37.0365 24.1419 34.7055 24.8153 32.1155 25.2814Z" fill="white"/>
    <path opacity="0.5" d="M63.3505 16.4237C62.5735 15.6985 61.7447 14.9215 60.8642 14.1963C60.7606 14.2999 60.657 14.3517 60.5534 14.4553C59.362 15.2841 58.2224 15.9057 57.031 16.3719C58.6368 17.1489 60.2944 18.0812 61.9001 19.2726C62.9361 18.9618 63.9203 18.5474 64.8009 17.9776C64.3865 17.4078 63.9203 16.8899 63.3505 16.4237Z" fill="white"/>
    <path opacity="0.5" d="M68.8931 13.7303C69.0485 13.5231 69.1521 13.3159 69.3075 13.0569C68.7895 11.5029 68.1162 9.94896 67.2874 8.44678C66.9766 8.80937 66.6658 9.17197 66.355 9.53456C67.3392 10.8295 68.168 12.2799 68.8931 13.7303Z" fill="white"/>
    <path opacity="0.5" d="M65.9924 9.94873C64.6974 11.2437 63.247 12.4351 61.6412 13.6265C62.3664 14.1445 63.0398 14.7143 63.7132 15.2323C64.4384 15.8021 65.2154 16.4236 65.9924 17.097C66.873 16.3718 67.5982 15.5949 68.2198 14.7143C67.5982 13.0567 66.873 11.4509 65.9924 9.94873Z" fill="white"/>
</svg>
