<svg width="15" height="14" viewBox="0 0 15 14" fill="none" xmlns="http://www.w3.org/2000/svg">
    <path d="M6.37835 1.09082L7.12165 0.39707C7.43638 0.10332 7.94531 0.10332 8.2567 0.39707L14.7656 6.46895C15.0804 6.7627 15.0804 7.23769 14.7656 7.52832L8.2567 13.6033C7.94196 13.8971 7.43304 13.8971 7.12165 13.6033L6.37835 12.9096C6.06027 12.6127 6.06696 12.1283 6.39174 11.8377L10.4263 8.25019H0.803571C0.358259 8.25019 0 7.91582 0 7.5002V6.5002C0 6.08457 0.358259 5.7502 0.803571 5.7502H10.4263L6.39174 2.1627C6.06362 1.87207 6.05692 1.3877 6.37835 1.09082Z" fill="white"/>
</svg>