<svg width="53" height="53" viewBox="0 0 53 53" fill="none" xmlns="http://www.w3.org/2000/svg">
    <ellipse cx="26.9092" cy="26.5" rx="26" ry="26.5" fill="#0C0058"/>
    <g clip-path="url(#clip0_150_88242)">
        <path d="M39.6553 27.8775C39.6553 27.8775 40.788 25.081 42.8058 25.6587C44.8236 26.2364 43.5738 31.3698 39.6423 33.7594L39.6553 27.8775Z"
              fill="#E9B98F"/>
        <path d="M42.8189 27.2075C42.2331 27.2075 41.5171 28.0084 41.2697 28.5204C40.6999 29.3333 40.441 30.3266 40.5407 31.3169C40.5407 31.4088 40.7099 31.225 40.723 31.1857C40.723 30.8837 40.8271 30.5555 40.9052 30.2272C40.9908 30.3101 41.0871 30.3808 41.1916 30.4373C41.3348 30.5161 41.5561 30.6211 41.6993 30.5423C41.8425 30.4635 41.7905 30.4373 41.6993 30.4373C41.6082 30.4373 41.3739 30.201 41.2958 30.1222C41.2177 30.0434 41.0875 29.8859 40.9703 29.794C41.0705 29.2726 41.2819 28.7795 41.5899 28.3488C41.8979 27.918 42.295 27.56 42.7538 27.2994C42.7538 27.2994 42.858 27.2075 42.8189 27.2075Z"
              fill="#C39368"/>
        <path d="M15.3113 27.6545C15.3113 27.6545 13.4236 25.0287 11.4058 25.5932C9.38796 26.1578 9.83059 31.37 13.7491 33.7595L15.3113 27.6545Z"
              fill="#E9B98F"/>
        <path d="M11.5362 26.945C11.9918 27.0238 12.4344 27.7459 12.5776 28.1529C12.9243 28.8623 12.9985 29.676 12.7859 30.4373C12.7859 30.4373 12.6688 30.3454 12.6688 30.306C12.6688 30.0566 12.6688 29.794 12.6688 29.5314C12.5872 29.5816 12.4997 29.6213 12.4084 29.6496C12.2912 29.6496 12.109 29.7546 12.0048 29.6496C11.9007 29.5445 11.9397 29.5577 12.0048 29.5708C12.0699 29.5839 12.2912 29.4264 12.3693 29.387C12.4583 29.3045 12.5542 29.2298 12.6557 29.1638C12.6494 28.742 12.549 28.3271 12.362 27.9498C12.1749 27.5725 11.906 27.2425 11.5752 26.9844C11.5752 26.9844 11.5101 26.9318 11.5362 26.945Z"
              fill="#C39368"/>
        <path d="M40.1111 28.56L40.0069 24.9495C39.6424 19.514 35.8932 18.3061 35.8932 18.3061L35.3073 20.4725L33.5889 17.8466L24.1637 20.0917L26.6502 17.7153C23.1812 18.7368 19.6502 19.5306 16.0794 20.0917C15.8217 21.8478 15.3855 23.5724 14.7776 25.2383C14.0095 26.8401 12.7207 29.8992 12.7207 29.8992C12.7207 29.8992 8.8152 40.8095 22.7447 44.1312C32.925 45.234 39.2519 40.1924 39.9028 33.4309C40.1111 32.1311 40.1111 28.56 40.1111 28.56Z"
              fill="#F4D9BF"/>
        <g style="mix-blend-mode:multiply">
            <path d="M40.007 24.9498C39.9537 24.0557 39.7829 23.1727 39.4993 22.3239C36.427 20.197 32.3132 19.6981 28.6941 19.8031C27.3923 19.8031 26.0905 19.8031 24.7886 19.9344L24.1507 20.092L24.2549 19.9738C23.0125 20.0763 21.783 20.3006 20.5837 20.6434C18.6923 21.2821 16.929 22.2558 15.3764 23.5187C15.2331 24.1087 15.037 24.6843 14.7906 25.2386C14.0225 26.8404 12.7337 29.8994 12.7337 29.8994C12.5829 30.3754 12.4697 30.8627 12.3953 31.3568C14.0616 31.79 15.7279 32.2233 17.4073 32.6697C18.3887 33.0005 19.4189 33.1604 20.4535 33.1423C21.2712 32.9718 21.9984 32.5046 22.4974 31.8294C23.3173 30.8409 24.3752 30.0814 25.5697 29.6237C26.7153 29.2693 27.7828 30.4246 28.4207 31.2124C28.9111 31.9277 29.6007 32.4803 30.4025 32.8005C31.2042 33.1207 32.082 33.1939 32.925 33.0111C34.7416 32.616 36.4944 31.9664 38.1323 31.0811C38.6661 30.8054 39.5253 30.1752 39.8508 31.0811C39.9302 31.3014 39.9827 31.5306 40.007 31.7638C40.0721 30.3064 40.0721 28.6916 40.0721 28.6916L40.007 24.9498ZM21.1826 29.1905C20.8768 29.2762 20.5543 29.2811 20.2461 29.2047C19.9379 29.1282 19.6544 28.9731 19.4229 28.7541C19.1914 28.5352 19.0197 28.2598 18.9243 27.9545C18.8289 27.6492 18.8131 27.3243 18.8783 27.011C19.0085 26.2758 19.8287 25.1467 20.6488 25.3174C20.8436 25.2619 21.0453 25.2354 21.2477 25.2386C21.5517 25.2771 21.8409 25.394 22.0871 25.5779C22.3334 25.7619 22.5285 26.0068 22.6536 26.2889C22.7889 26.5733 22.8572 26.8854 22.8533 27.2008C22.8493 27.5162 22.7731 27.8264 22.6308 28.1072C22.4884 28.388 22.2836 28.6319 22.0324 28.8198C21.7812 29.0077 21.4904 29.1346 21.1826 29.1905ZM31.48 28.7178C29.2799 28.232 29.9178 25.0154 31.7925 24.9498C32.1999 24.8073 32.6467 24.8337 33.0348 25.0233C33.4229 25.2128 33.7206 25.55 33.8624 25.9607C33.9579 26.3074 33.9658 26.6727 33.8853 27.0232C33.8047 27.3737 33.6384 27.6983 33.4015 27.9673C33.1645 28.2363 32.8645 28.4411 32.5289 28.563C32.1932 28.685 31.8326 28.7201 31.48 28.6653V28.7178Z"
                  fill="#F4D9BF"/>
        </g>
        <g style="mix-blend-mode:multiply">
            <path d="M35.1641 40.704C32.2377 42.5032 28.845 43.3794 25.4213 43.2204C21.9976 43.0613 18.6992 41.8741 15.9492 39.8112C14.9634 39.1631 14.0355 38.4295 13.1763 37.6187C14.413 40.2445 17.0818 42.7915 22.7447 44.1832C30.1521 44.9972 35.5156 42.529 38.1453 38.5114C37.2329 39.3486 36.2334 40.0838 35.1641 40.704Z"
                  fill="#F4D9BF"/>
        </g>
        <g style="mix-blend-mode:multiply">
            <path d="M25.6738 32.6303C25.9771 32.5744 26.2508 32.4117 26.4463 32.1713C26.6418 31.9309 26.7463 31.6283 26.7413 31.3174C26.0383 31.6325 24.6974 31.9082 24.2288 31.4093C24.2741 31.7584 24.4477 32.0777 24.7153 32.3038C24.983 32.5299 25.325 32.6464 25.6738 32.6303Z"
                  fill="#F4D9BF"/>
        </g>
        <path d="M40.0069 24.9491C39.9623 24.2749 39.8533 23.6066 39.6814 22.9535C36.2812 21.3772 32.5647 20.6177 28.8242 20.7346C26.204 20.6662 23.5844 20.8908 21.0133 21.4042C19.5262 21.703 18.0856 22.202 16.7303 22.8878C16.2356 23.1504 15.7669 23.4524 15.2852 23.7543C15.1421 24.2609 14.9638 24.7567 14.7515 25.2379C13.9834 26.8397 12.6946 29.8988 12.6946 29.8988C12.6946 29.8988 12.5774 30.2664 12.4473 30.8572C13.3205 31.1726 14.2235 31.3969 15.1421 31.5268C16.5018 31.8491 17.88 32.0859 19.2688 32.2358C21.1044 32.3277 22.0808 31.3824 23.4867 30.3452C24.261 29.6198 25.281 29.2206 26.3377 29.2292C27.5354 29.4393 28.2384 30.4502 29.1106 31.2248C29.7654 31.7911 30.5692 32.1534 31.4243 32.2676C32.2794 32.3818 33.149 32.243 33.9274 31.8682C36.0103 31.1329 38.0542 30.2795 40.085 29.3736V28.5596L40.0069 24.9491ZM21.1955 29.4918C20.7773 29.5642 20.3472 29.5131 19.9572 29.3447C19.5671 29.1762 19.2336 28.8976 18.997 28.5424C18.7603 28.1872 18.6306 27.7705 18.6234 27.3426C18.6162 26.9147 18.7318 26.4938 18.9564 26.1307C19.2749 25.6706 19.7311 25.3256 20.2582 25.146C20.6078 25.0003 20.9893 24.9503 21.3642 25.001C21.7391 25.0518 22.0941 25.2014 22.3932 25.4349C22.6943 25.7428 22.9078 26.1266 23.0116 26.5462C23.1154 26.9658 23.1056 27.4058 22.9833 27.8203C22.8609 28.2348 22.6305 28.6086 22.316 28.9026C22.0016 29.1966 21.6146 29.4001 21.1955 29.4918ZM31.545 28.9797C31.2123 28.9408 30.8931 28.8244 30.6126 28.6397C30.3321 28.455 30.098 28.2071 29.9288 27.9155C29.7596 27.6239 29.66 27.2967 29.6377 26.9596C29.6155 26.6225 29.6712 26.2848 29.8006 25.9732C29.9123 25.4914 30.1952 25.0676 30.5959 24.7821C30.9965 24.4966 31.4871 24.3692 31.9746 24.4239C32.4551 24.3849 32.9346 24.5101 33.336 24.7792C33.7374 25.0482 34.0374 25.4457 34.1877 25.9075C34.294 26.2955 34.3035 26.704 34.2154 27.0967C34.1273 27.4893 33.9444 27.8538 33.6828 28.1579C33.4212 28.462 33.0892 28.6961 32.7162 28.8395C32.3433 28.9829 31.9409 29.0311 31.545 28.9797Z"
              fill="#F75B00"/>
        <path d="M40.111 28.4552C40.9498 26.4317 42.2956 24.6627 44.0165 23.3217C45.4485 22.1663 47.8569 20.9716 49.6013 21.9169C48.8042 20.6121 47.755 19.4825 46.516 18.5952L48.8072 19.0547C47.9955 18.0949 46.9158 17.404 45.7089 17.0722C46.6284 16.8173 47.5806 16.7022 48.5338 16.7309C46.1799 15.0031 43.3822 13.9957 40.4755 13.8293L43.4958 12.2276C41.484 11.818 39.3932 12.1585 37.6115 13.186C37.3602 11.7208 36.8344 10.3172 36.0623 9.05033L35.9322 12.5689C34.3542 10.8721 32.6095 9.34127 30.7248 8L31.2586 9.31291C31.2586 9.31291 20.844 5.91247 9.27077 14.1182C9.27077 14.1182 11.6922 14.5383 13.0851 14.9453C11.579 15.4058 10.1769 16.1597 8.95834 17.1641C10.1248 17.1511 11.2906 17.2213 12.4472 17.3742L8.54175 19.0154C8.54175 19.0154 13.033 26.8928 13.3976 28.3239C13.3976 28.2189 14.6994 25.2911 14.7905 25.2123C15.3984 23.5464 15.8347 21.8217 16.0923 20.0657C19.6631 19.5046 23.1941 18.7108 26.6632 17.6893L24.1637 20.0919L33.5628 17.8206L35.2812 20.4464L35.8671 18.2801C35.8671 18.2801 39.6163 19.488 39.9808 24.9235C40.085 27.4705 40.098 28.232 40.111 28.4552Z"
              fill="#C53623"/>
        <g style="mix-blend-mode:multiply">
            <g style="mix-blend-mode:multiply">
                <path d="M44.2117 21.8775C44.0815 21.9694 43.652 21.0241 43.5348 20.6565C43.3916 21.523 42.233 23.2036 42.1158 23.0066C41.8539 21.926 41.474 20.8781 40.9832 19.8819C40.3158 18.9293 39.4659 18.1213 38.4837 17.5055C38.4454 17.4774 38.4154 17.4394 38.397 17.3954C38.3786 17.3514 38.3724 17.3032 38.3791 17.256C38.3858 17.2087 38.4051 17.1642 38.435 17.1272C38.4649 17.0902 38.5042 17.0621 38.5488 17.046C40.3296 16.6485 42.1579 16.5114 43.9774 16.639C42.1679 15.4048 37.1689 15.1554 37.3121 15.011C38.8165 13.6654 40.5935 12.6663 42.5194 12.0832C40.8091 11.9208 39.0916 12.3067 37.6115 13.186C37.3601 11.7208 36.8344 10.3172 36.0623 9.05033L35.9321 12.5689C34.3542 10.8721 32.6095 9.34127 30.7248 8L31.2456 9.31291C32.3198 10.4064 33.0918 11.7642 33.4847 13.2517C33.4847 13.488 31.1284 12.0963 29.9698 11.7418C28.9829 11.3816 27.9551 11.1479 26.9105 11.046C28.3541 11.6349 29.6551 12.5305 30.7248 13.6718C29.4612 13.7891 28.1923 13.8373 26.9235 13.8162C28.1142 13.9718 29.2612 14.3693 30.2952 14.9847C27.7367 15.5133 25.2112 16.1928 22.7316 17.0197C20.4794 17.8206 18.2143 18.6215 15.9101 19.3042C15.2071 20.302 14.6082 21.3786 13.9703 22.4814C13.5247 21.7091 13.1332 20.9063 12.7987 20.0788C12.8238 21.4117 12.6437 22.7404 12.2649 24.0176C11.7448 23.0209 11.1393 22.072 10.4554 21.1817C9.92165 20.5909 9.34885 20.0132 8.78906 19.4355C9.71336 21.0898 13.0851 27.1292 13.4105 28.3239C13.4105 28.2189 14.7124 25.2911 14.8035 25.2123C15.4114 23.5464 15.8476 21.8217 16.1053 20.0657C19.6761 19.5046 23.2071 18.7108 26.6761 17.6893L24.1636 20.0919L33.5628 17.8206L35.2812 20.4464L35.867 18.2801C35.867 18.2801 39.6163 19.488 39.9808 24.9235C40.0589 27.4443 40.0719 28.2058 40.0849 28.429C40.9237 26.4054 42.2696 24.6364 43.9904 23.2955C45.4224 22.1401 47.8308 20.9453 49.5753 21.8906C48.7754 21.3732 47.8456 21.0971 46.8954 21.0948C45.9452 21.0925 45.014 21.364 44.2117 21.8775Z"
                      fill="#C53623"/>
            </g>
        </g>
        <path d="M20.4536 27.4969C20.4536 28.2059 20.6489 28.731 20.9223 28.7048C21.1957 28.6785 21.443 28.0483 21.456 27.3919C21.469 26.7354 21.2477 26.0789 20.9744 26.184C20.701 26.289 20.4666 26.8011 20.4536 27.4969Z"
              fill="#673121"/>
        <path d="M21.0393 26.8799C21.0393 27.1031 21.1304 27.2475 21.1955 27.2212C21.2606 27.195 21.3517 27.0243 21.3387 26.8274C21.3257 26.6304 21.2476 26.4597 21.1565 26.4729C21.0653 26.486 21.0263 26.6829 21.0393 26.8799Z"
              fill="white"/>
        <path d="M31.2327 26.9719C31.2327 27.6678 31.428 28.2061 31.7144 28.1667C32.0008 28.1273 32.2221 27.5234 32.2351 26.8538C32.2481 26.1842 32.0268 25.6196 31.7664 25.6459C31.5061 25.6722 31.2457 26.263 31.2327 26.9719Z"
              fill="#673121"/>
        <path d="M31.8184 26.3539C31.8184 26.564 31.9095 26.7216 31.9876 26.6953C32.0657 26.669 32.1308 26.4852 32.1178 26.2883C32.1048 26.0914 32.0397 25.9207 31.9486 25.9338C31.8574 25.9469 31.8054 26.1439 31.8184 26.3539Z"
              fill="white"/>
        <path d="M22.1851 41.8992C23.5419 42.4918 25.0183 42.7527 26.4941 42.6607C28.4958 42.363 30.3564 41.4454 31.8186 40.0349C30.1985 39.4194 28.4413 39.2678 26.7411 39.5969C25.041 39.9259 23.4642 40.7227 22.1851 41.8992Z"
              fill="#ED6C73"/>
        <path d="M26.2466 37.7108C30.9072 36.8705 31.8184 35.5707 31.8835 34.0215C28.186 35.3199 24.3035 36.0028 20.3884 36.0434C20.831 36.8836 22.237 38.3804 26.2466 37.7108Z"
              fill="white"/>
        <path d="M35.1252 32.3672C34.1027 33.0273 33.0167 33.5816 31.8836 34.0215C31.8186 35.5707 30.9073 36.8705 26.2468 37.7108C22.2371 38.4329 20.8312 36.8836 20.3885 36.0434C18.9956 36.0434 18.1104 36.0434 18.1104 36.0434C18.1846 37.3044 18.6049 38.5198 19.3245 39.5538C20.044 40.5878 21.0344 41.3998 22.1851 41.899C23.4628 40.7203 25.039 39.921 26.7392 39.5897C28.4394 39.2583 30.1974 39.4078 31.8186 40.0215C32.8879 39.0644 33.7377 37.8839 34.3087 36.562C34.8798 35.2402 35.1584 33.8087 35.1252 32.3672Z"
              fill="#F6B9C6"/>
        <path d="M19.5553 30.5034C19.5553 30.9629 18.657 31.3043 17.5895 31.2649C16.522 31.2255 15.6759 30.8185 15.6889 30.359C15.7019 29.8995 16.5871 29.5712 17.6546 29.6106C18.7221 29.65 19.5683 30.0833 19.5553 30.5034Z"
              fill="#F9CBC0"/>
        <path d="M36.8305 29.7022C36.8305 30.1486 36.0494 30.6081 35.008 30.7263C33.9665 30.8445 33.0422 30.5687 32.9901 30.1224C32.9381 29.676 33.7582 29.2033 34.8257 29.0852C35.8932 28.967 36.7784 29.1902 36.8305 29.7022Z"
              fill="#F9CBC0"/>
        <path d="M26.8844 30.9101C26.49 30.6584 26.0456 30.497 25.5826 30.4374C25.59 30.3632 25.59 30.2884 25.5826 30.2142C25.5826 30.1223 25.5826 30.0436 25.6477 29.9517C25.6393 29.8731 25.6393 29.7939 25.6477 29.7153C25.6477 29.7153 25.6477 29.7153 25.6477 29.7153C25.6477 29.7153 25.5695 29.781 25.6477 29.7941C25.6293 29.8966 25.6032 29.9976 25.5695 30.0961C25.5319 30.212 25.4884 30.3259 25.4394 30.4374C25.1269 30.4374 24.5801 30.4374 24.3588 30.6869C24.2878 30.8411 24.251 31.0092 24.251 31.1792C24.251 31.3493 24.2878 31.5173 24.3588 31.6716C24.4334 31.9509 24.5644 32.2118 24.7437 32.4377C24.9229 32.6636 25.1464 32.8498 25.4003 32.9845C25.4003 32.9845 25.5565 32.8795 25.5175 32.8269C25.2483 32.5007 25.0045 32.1539 24.7884 31.7897C24.7234 31.6584 24.4109 30.8182 24.5411 30.7788C25.3214 30.5833 26.1435 30.6478 26.8844 30.9626C26.8844 30.9626 26.9104 30.9232 26.8844 30.9101Z"
              fill="#C39368"/>
        <path d="M18.4229 24.6213C18.4229 24.6213 19.7247 22.1137 21.3129 22.5601C22.9011 23.0065 23.487 25.6192 23.487 25.6192C23.487 25.6192 21.0656 22.0612 18.4229 24.6213Z"
              fill="#C53623"/>
        <path d="M34.4743 23.9383C34.4743 23.9383 33.0813 21.47 31.5321 21.9689C29.983 22.4678 29.4492 25.0937 29.4492 25.0937C29.4492 25.0937 31.7535 21.5225 34.4743 23.9383Z"
              fill="#C53623"/>
        <g style="mix-blend-mode:screen">
            <path d="M10.5596 13.8295C16.153 10.1771 22.8261 8.58623 29.4491 9.32621C22.8545 8.96794 16.2971 10.5313 10.5596 13.8295Z"
                  fill="#C53623"/>
        </g>
        <g style="mix-blend-mode:screen">
            <path d="M25.0231 41.1774C25.0231 41.1774 24.5023 40.7048 23.7212 41.4794C22.9401 42.254 25.5568 41.6501 25.0231 41.1774Z"
                  fill="#ED6C73"/>
        </g>
    </g>
    <defs>
        <clipPath id="clip0_150_88242">
            <rect width="42" height="37" fill="white" transform="translate(8 8)"/>
        </clipPath>
    </defs>
</svg>