<svg width="255" height="276" viewBox="0 0 255 276" fill="none" xmlns="http://www.w3.org/2000/svg">
    <g clip-path="url(#clip0_150_87411)">
        <path d="M135.251 173.087C135.251 173.087 181.494 165.108 202.518 121.836L217.544 85.2031C217.544 85.2031 231.23 85.9602 232.22 86.1932C233.21 86.4261 228.027 114.672 217.544 143.326C207.061 171.98 173.922 201.566 149.753 207.39C125.584 213.214 135.251 173.087 135.251 173.087Z" fill="#F75B00"/>
        <path d="M135.251 173.087C135.251 173.087 181.494 165.108 202.518 121.836L217.544 85.2031C217.544 85.2031 231.23 85.9602 232.22 86.1932C233.21 86.4261 228.027 114.672 217.544 143.326C207.061 171.98 173.922 201.566 149.753 207.39C125.584 213.214 135.251 173.087 135.251 173.087Z" fill="#F75B00"/>
        <g style="mix-blend-mode:multiply">
            <path d="M232.22 86.1932C231.23 86.1932 217.544 85.2031 217.544 85.2031L206.304 112.576C207.094 114.732 208.301 116.711 209.856 118.4C211.618 120.023 213.235 121.796 214.69 123.699C216.903 127.427 212.593 134.881 211.021 138.143C204.895 151.306 196.586 163.338 186.444 173.727C179.979 180.308 170.079 191.199 160.061 190.733C156.043 190.733 153.364 186.598 151.325 183.57C149.65 180.709 147.298 178.305 144.474 176.568C141.651 174.831 138.443 173.816 135.135 173.611C134.028 178.561 127.389 211.816 149.753 207.04C173.922 201.799 207.119 172.097 217.544 142.977C227.969 113.857 233.269 86.4261 232.22 86.1932Z" fill="#F75B00"/>
        </g>
        <path d="M74.5076 171.983C74.5076 171.983 2.29059 193.881 8.46398 227.485C14.6374 261.089 65.7135 286.191 65.7135 286.191L68.1012 266.156C68.1012 266.156 25.8776 234.882 31.4686 223.001C37.0596 211.12 76.546 207.16 76.546 207.16L74.5076 171.983Z" fill="#F75B00"/>
        <path d="M74.5076 171.983C74.5076 171.983 2.29059 193.881 8.46398 227.485C14.6374 261.089 65.7135 286.191 65.7135 286.191L68.1012 266.156C68.1012 266.156 25.8776 234.882 31.4686 223.001C37.0596 211.12 76.546 207.16 76.546 207.16L74.5076 171.983Z" fill="#F75B00"/>
        <g style="mix-blend-mode:multiply">
            <path d="M76.5458 207.217L74.3909 172.273C68.5464 175.718 63.5349 180.411 59.7146 186.017C57.5796 190.316 55.9571 194.851 54.8807 199.529C54.3458 201.842 53.1759 203.96 51.5028 205.644C46.9601 209.896 21.2182 222.126 16.559 227.542C18.1652 226.988 19.8807 226.825 21.5625 227.068C23.2442 227.311 24.8435 227.953 26.2268 228.94C30.6127 235.579 34.3198 242.642 37.2923 250.023C35.5371 251.844 34.1842 254.014 33.3214 256.392C32.4585 258.77 32.105 261.302 32.2837 263.826C42.5539 272.69 53.8331 280.314 65.8879 286.539L68.2757 266.505C68.2757 266.505 26.052 235.23 31.643 223.349C37.234 211.468 76.5458 207.217 76.5458 207.217Z" fill="#F75B00"/>
        </g>
        <path d="M229.891 120.79C231.813 112.229 233.443 91.67 235.423 86.1955C230.156 85.6769 224.994 84.3816 220.106 82.3516C219.108 81.5079 218.192 80.572 217.369 79.5562C216.204 85.3801 208.051 104.424 205.372 111.297C208.06 115.128 211.825 118.075 216.19 119.765C220.555 121.455 225.323 121.812 229.891 120.79Z" fill="#383939"/>
        <g style="mix-blend-mode:multiply">
            <path d="M220.106 82.3516C219.108 81.5079 218.191 80.572 217.369 79.5562C216.808 81.9571 216.068 84.3127 215.156 86.6031C218.534 91.2623 226.804 91.6117 225.464 99.4158C224.358 104.89 222.552 110.307 221.679 115.781L220.805 121.081C223.741 121.719 226.78 121.719 229.716 121.081C231.638 112.52 233.268 91.9612 235.248 86.4867C230.026 85.8583 224.924 84.4651 220.106 82.3516Z" fill="#383939"/>
        </g>
        <path d="M251.439 60.3927C251.439 56.4324 250.682 53.8116 245.615 53.9863C243.81 48.1624 236.064 50.6667 236.064 50.6667C234.766 49.0772 233.118 47.8088 231.249 46.9603C229.38 46.1117 227.341 45.706 225.29 45.7745C214.341 46.9976 212.652 65.8089 211.836 66.2749C210.257 68.8259 209.475 71.79 209.589 74.7882C209.703 77.7864 210.709 80.6824 212.477 83.1061C214.098 85.3547 216.166 87.2445 218.551 88.6575C220.936 90.0705 223.587 90.9761 226.338 91.3179C238.627 91.3179 245.208 86.4257 247.071 76.9909C255.866 71.6911 256.564 60.2179 251.439 60.3927Z" fill="#454646"/>
        <g style="mix-blend-mode:multiply">
            <path d="M214.574 64.8763C214.574 64.8763 216.379 63.7697 219.291 62.2555C220.954 61.4503 222.666 60.7501 224.416 60.1588C225.406 59.8676 226.396 59.5182 227.503 59.2853C228.675 59.0436 229.884 59.0436 231.055 59.2853C231.488 59.4061 231.887 59.6254 232.22 59.9259V60.2753V60.683C232.492 61.4157 232.492 62.2217 232.22 62.9543C231.813 64.0746 231.132 65.0755 230.24 65.8663C228.809 67.1402 227.2 68.1995 225.464 69.0113C224.285 69.5847 223.057 70.0524 221.795 70.409L220.339 70.8167L221.679 70.0596L224.94 68.0212C226.403 67.0285 227.751 65.876 228.959 64.5851C229.582 63.9478 230.076 63.1964 230.415 62.372C230.487 62.0655 230.487 61.7466 230.415 61.4401V61.0907C229.508 60.9497 228.585 60.9497 227.678 61.0907C226.687 61.0907 225.697 61.4984 224.766 61.7896L219.524 63.3038L215.797 64.4103L214.574 64.8763Z" fill="#454646"/>
        </g>
        <g style="mix-blend-mode:multiply">
            <path d="M236.297 50.6689C236.77 51.4993 237.197 52.3548 237.578 53.2315C237.927 54.1633 238.219 55.0369 238.51 56.027C238.793 56.9578 238.988 57.9133 239.092 58.8807V60.3949C239.126 60.8797 239.126 61.3662 239.092 61.8509V64.8794L238.684 67.7914C238.745 68.2748 238.745 68.7639 238.684 69.2474L238.277 70.7033L237.403 73.4988C236.851 74.257 236.248 74.977 235.598 75.6537L234.491 76.5273C234.126 76.8131 233.736 77.0664 233.326 77.2844C232.938 77.5324 232.529 77.7467 232.103 77.9251C231.647 78.1065 231.18 78.262 230.706 78.391H229.25C228.766 78.4448 228.278 78.4448 227.794 78.391C227.299 78.3038 226.826 78.1261 226.396 77.8668C225.962 77.6428 225.568 77.3475 225.231 76.9932C224.882 76.5856 224.649 76.1779 224.357 75.7702C224.123 75.3493 223.947 74.8987 223.833 74.4307V73.0912C223.833 72.6835 223.833 72.2176 223.833 71.7517C223.775 70.8596 223.775 69.9647 223.833 69.0726C223.833 69.9462 223.833 70.8781 224.183 71.6934C224.252 72.1263 224.349 72.5543 224.474 72.9747L224.882 74.1395L225.464 75.1878C225.755 75.1878 225.93 75.8284 226.221 76.0031C226.524 76.24 226.857 76.4358 227.211 76.5855C227.55 76.7054 227.92 76.7054 228.26 76.5855C228.26 76.5855 228.958 76.5855 229.308 76.5855H230.473C230.842 76.4797 231.195 76.3229 231.521 76.1196C231.869 75.9804 232.201 75.8047 232.511 75.5955C232.872 75.4103 233.206 75.175 233.501 74.8966L234.433 74.0812C234.988 73.5068 235.513 72.9042 236.005 72.2758L236.821 69.5968L237.228 68.3155C237.261 67.8502 237.261 67.3831 237.228 66.9178L237.578 64.8794C237.607 64.4139 237.607 63.9471 237.578 63.4816V62.0839C237.607 61.6184 237.607 61.1516 237.578 60.6861V59.2884C237.662 58.339 237.662 57.384 237.578 56.4346C237.479 55.4942 237.324 54.5607 237.112 53.6392C236.903 52.633 236.63 51.641 236.297 50.6689Z" fill="#454646"/>
        </g>
        <g style="mix-blend-mode:multiply">
            <path d="M223.484 55.4443C223.719 55.7389 223.897 56.0746 224.008 56.4344C224.294 57.0751 224.433 57.7715 224.416 58.4728C224.374 59.1983 224.196 59.9093 223.892 60.5694C223.738 60.9036 223.542 61.2167 223.309 61.5012C223.075 61.2067 222.897 60.8709 222.785 60.5112C222.515 59.8469 222.395 59.1307 222.436 58.4145C222.481 57.7146 222.639 57.0265 222.902 56.3762C223.037 56.0326 223.235 55.7168 223.484 55.4443Z" fill="#454646"/>
        </g>
        <g style="mix-blend-mode:multiply">
            <path d="M245.848 53.9883C246.079 54.9676 246.254 55.9592 246.372 56.9585C246.372 57.9486 246.372 58.9386 246.372 59.9869C246.375 62.0454 246.14 64.0972 245.673 66.1021C245.673 66.6263 245.674 67.0922 245.266 67.6163C245.117 68.1106 244.942 68.5966 244.742 69.0723C244.346 70.0378 243.879 70.9723 243.344 71.8678C243.344 72.3337 242.703 72.7414 242.412 73.1491C242.111 73.5781 241.759 73.9691 241.364 74.3139C240.956 74.6633 240.607 75.071 240.199 75.3622L238.859 76.1775H238.277H237.578C237.408 76.2352 237.224 76.2352 237.054 76.1775C236.722 76.0524 236.423 75.8532 236.18 75.5952C235.92 75.3648 235.737 75.0598 235.656 74.7215C235.811 75.0071 236.057 75.2326 236.355 75.3622C236.624 75.4141 236.901 75.4141 237.17 75.3622C237.17 75.3622 237.17 75.3622 237.578 75.3622H237.986H238.335L239.384 74.3721C239.706 74.0497 239.998 73.6988 240.257 73.3238L241.073 72.2172L241.83 70.9942C242.266 70.1627 242.655 69.3071 242.994 68.4317L243.868 65.6944C244.382 63.7803 244.771 61.8349 245.033 59.8705C245.382 57.9486 245.615 55.9684 245.848 53.9883Z" fill="#454646"/>
        </g>
        <g style="mix-blend-mode:multiply">
            <path d="M251.439 60.3945C251.578 61.4772 251.578 62.5733 251.439 63.656C251.225 66.1384 250.47 68.5437 249.226 70.7029C248.871 71.2882 248.482 71.8522 248.061 72.3919C247.656 72.9143 247.186 73.3839 246.664 73.7896L245.091 74.8379L243.577 75.3621H242.179C241.831 75.3996 241.479 75.3996 241.131 75.3621H240.257H241.131C241.131 75.3621 241.713 75.3621 242.063 75.0709L243.169 74.6632C243.535 74.3775 243.925 74.1241 244.334 73.9061L245.499 72.8578C245.894 72.4488 246.245 71.9999 246.547 71.5183L247.537 70.0623C248.12 69.0722 248.586 67.9074 249.11 66.9174C249.634 65.9273 249.983 64.8207 250.274 63.9471L251.439 60.3945Z" fill="#454646"/>
        </g>
        <g style="mix-blend-mode:multiply">
            <path d="M242.995 75.2451H243.868H244.567H245.208H245.907L246.547 75.5946L247.304 76.1187C247.102 76.3854 246.844 76.6042 246.547 76.7594C246.264 76.857 245.957 76.857 245.674 76.7594C245.309 76.8419 244.931 76.8419 244.567 76.7594C244.197 76.6156 243.86 76.3976 243.577 76.1187C243.348 75.8637 243.17 75.5672 243.053 75.2451C243.034 75.2455 243.014 75.2455 242.995 75.2451Z" fill="#454646"/>
        </g>
        <path d="M186.502 368.132C175.611 340.585 143.696 288.344 143.696 288.344L146.608 252.818L65.713 251.653C65.713 251.653 70.7799 283.568 72.0029 291.023C58.4913 308.087 42.126 347.224 34.5548 391.37C30.6528 414.083 33.1571 442.038 35.5449 465.043C48.94 467.838 45.038 465.334 45.038 465.334C45.038 465.334 56.6859 352 107.005 318.628C120.167 322.647 169.438 378.906 198.324 456.714C210.264 458.403 207.526 443.086 209.972 443.494C203.754 417.901 195.914 392.73 186.502 368.132Z" fill="#F75B00"/>
        <path d="M186.502 368.132C175.611 340.585 143.696 288.344 143.696 288.344L146.608 252.818L65.713 251.653C65.713 251.653 70.7799 283.568 72.0029 291.023C58.4913 308.087 42.126 347.224 34.5548 391.37C30.6528 414.083 33.1571 442.038 35.5449 465.043C48.94 467.838 45.038 465.334 45.038 465.334C45.038 465.334 56.6859 352 107.005 318.628C120.167 322.647 169.438 378.906 198.324 456.714C210.264 458.403 207.526 443.086 209.972 443.494C203.754 417.901 195.914 392.73 186.502 368.132Z" fill="#F75B00"/>
        <path d="M186.502 368.132C175.611 340.585 143.696 288.344 143.696 288.344L146.608 252.818L65.713 251.653C65.713 251.653 70.7799 283.568 72.0029 291.023C58.4913 308.087 42.126 347.224 34.5548 391.37C30.6528 414.083 33.1571 442.038 35.5449 465.043C48.94 467.838 45.038 465.334 45.038 465.334C45.038 465.334 56.6859 352 107.005 318.628C120.167 322.647 169.438 378.906 198.324 456.714C210.264 458.403 207.526 443.086 209.972 443.494C203.754 417.901 195.914 392.73 186.502 368.132Z" fill="#F75B00"/>
        <path d="M100.541 158.062V176.874C100.36 179.044 101.031 181.2 102.411 182.885C103.792 184.569 105.773 185.651 107.937 185.901C115.974 187.124 118.711 178.854 118.886 176.408L119.352 157.13L100.541 158.062Z" fill="#A52318"/>
        <path d="M105.899 167.903C105.899 167.903 76.4294 162.778 64.0244 181.007C51.6194 199.236 64.3156 276.52 80.8556 291.662C97.3957 306.805 136.591 322.762 143.114 266.386C143.114 266.386 158.023 213.971 154.412 191.082C150.801 168.194 111.606 168.719 105.899 167.903Z" fill="#F75B00"/>
        <path d="M103.219 268.717C107.587 257.826 112.771 247.284 117.197 236.335C126.07 215.985 132.879 194.797 137.523 173.087C127.281 169.859 116.634 168.094 105.898 167.846C96.249 166.359 86.3811 167.299 77.1864 170.583C71.3624 205.527 83.651 241.46 102.113 271.454C102.521 270.464 102.87 269.532 103.219 268.717Z" fill="#DA3020"/>
        <path d="M70.3143 272.212C69.569 270.558 68.9081 268.867 68.3342 267.145C68.3085 266.952 68.3085 266.756 68.3342 266.563L47.3097 244.723C42.6292 247.342 38.9954 251.495 37.0219 256.482C35.0484 261.468 34.856 266.983 36.4771 272.096L66.0045 287.879L70.7802 272.969C70.6616 272.696 70.5047 272.441 70.3143 272.212Z" fill="#1E2F33"/>
        <g style="mix-blend-mode:multiply">
            <g style="mix-blend-mode:multiply">
                <path d="M70.3142 272.211C69.5689 270.557 68.908 268.866 68.3341 267.144C68.3084 266.951 68.3084 266.755 68.3341 266.562L47.3096 244.722C43.6596 246.77 40.6426 249.781 38.5884 253.427C36.5341 257.074 35.5217 261.214 35.6617 265.397C36.1859 258.292 38.7484 251.944 45.3877 257.535C50.0469 261.437 55.4049 264.291 58.0257 270.115C58.8812 273.169 59.5042 276.284 59.8894 279.433C60.5036 281.832 61.5069 284.114 62.8596 286.189L66.2375 288.052L71.0131 273.143C70.8402 272.792 70.6032 272.476 70.3142 272.211Z" fill="#383939"/>
            </g>
        </g>
        <path d="M74.0996 279.957L67.9262 277.919C66.2467 277.138 64.5147 276.477 62.7429 275.938C62.685 276.067 62.6551 276.206 62.6551 276.346C62.6551 276.487 62.685 276.626 62.7429 276.754C62.1605 279.957 62.3934 284.383 65.4801 286.13C67.3475 286.888 69.4367 286.888 71.3041 286.13C73.4238 285.794 75.4259 284.933 77.128 283.626C78.3511 282.054 76.2544 280.714 74.0996 279.957Z" fill="#293B3F"/>
        <g style="mix-blend-mode:multiply">
            <path d="M69.0911 283.277C71.4031 283.017 73.5688 282.016 75.2645 280.423L74.0996 279.957L67.9263 277.919C66.2468 277.138 64.5148 276.477 62.743 275.938C62.6851 276.067 62.6552 276.206 62.6552 276.346C62.6552 276.487 62.6851 276.626 62.743 276.754C62.7691 276.967 62.7691 277.182 62.743 277.394C62.9229 278.972 63.6623 280.433 64.827 281.512C65.9916 282.591 67.5045 283.217 69.0911 283.277Z" fill="#293B3F"/>
        </g>
        <path d="M75.4397 277.743C73.6174 275.994 71.671 274.378 69.6157 272.909C67.3444 271.104 65.2477 269.182 63.0928 267.085C63.0928 267.085 62.627 267.085 62.5105 267.551C61.7832 269.1 61.4061 270.791 61.4061 272.502C61.4061 274.213 61.7832 275.903 62.5105 277.452C64.8983 282.344 70.664 282.111 75.2649 281.645C78.1187 281.587 77.0121 279.374 75.4397 277.743Z" fill="#293B3F"/>
        <g style="mix-blend-mode:multiply">
            <path d="M62.3937 267.784C62.1304 270.02 62.6018 272.28 63.7365 274.224C64.8712 276.167 66.6077 277.689 68.6836 278.559C71.1948 279.186 73.7942 279.383 76.3713 279.141C76.0869 278.614 75.7124 278.141 75.2647 277.743C73.4424 275.994 71.496 274.378 69.4407 272.909C67.1694 271.104 65.0727 269.182 62.9178 267.085C62.8596 267.144 62.5102 267.435 62.3937 267.784Z" fill="#293B3F"/>
        </g>
        <path d="M71.7121 270.814C71.3559 270.508 71.0425 270.155 70.7802 269.765C68.7406 266.423 67.4123 262.696 66.8782 258.816C64.7233 258.409 62.1025 262.078 61.7531 264.64C60.8795 271.047 65.5387 274.658 70.4308 277.278C71.8868 278.035 78.8755 281.763 78.7008 277.744C78.7008 276.172 74.7988 273.842 73.8087 272.969C73.0401 272.322 72.3377 271.6 71.7121 270.814Z" fill="#293B3F"/>
        <path d="M172.932 88.174C172.932 88.174 177.999 75.769 187.026 78.3315C196.053 80.8941 190.462 103.666 172.874 114.265L172.932 88.174Z" fill="#E9B98F"/>
        <path d="M187.084 85.2031C184.464 85.2031 181.26 88.7557 180.154 91.0271C177.605 94.6327 176.446 99.0389 176.892 103.432C176.892 103.84 177.65 103.024 177.708 102.85C177.708 101.51 178.174 100.054 178.523 98.5982C178.906 98.9657 179.337 99.2793 179.804 99.5301C180.445 99.8795 181.435 100.345 182.076 99.996C182.716 99.6465 182.483 99.5301 182.076 99.5301C181.668 99.5301 180.62 98.4817 180.27 98.1323C179.921 97.7829 179.339 97.084 178.814 96.6763C179.263 94.3638 180.209 92.1764 181.586 90.2657C182.964 88.3549 184.741 86.7666 186.793 85.6108C186.793 85.6108 187.259 85.2031 187.084 85.2031Z" fill="#C39368"/>
        <path d="M64.0241 87.1844C64.0241 87.1844 55.5794 75.5365 46.5522 78.0408C37.5251 80.5451 39.5053 103.666 57.0354 114.266L64.0241 87.1844Z" fill="#E9B98F"/>
        <path d="M47.1353 84.0386C49.1737 84.3881 51.1538 87.5912 51.7945 89.3967C53.3454 92.5437 53.6772 96.1533 52.7262 99.5304C52.7262 99.5304 52.2021 99.1227 52.2021 98.948C52.2021 97.8414 52.2021 96.6766 52.2021 95.5118C51.8372 95.7344 51.4459 95.9105 51.0373 96.036C50.5132 96.036 49.6978 96.5019 49.2319 96.036C48.766 95.5701 48.9407 95.6283 49.2319 95.6866C49.5231 95.7448 50.5132 95.0459 50.8626 94.8712C51.2607 94.5053 51.6894 94.1741 52.1439 93.8811C52.1156 92.0102 51.6664 90.1696 50.8296 88.4959C49.9927 86.8223 48.7898 85.3586 47.31 84.2134C47.31 84.2134 47.0188 83.9804 47.1353 84.0386Z" fill="#C39368"/>
        <path d="M174.97 91.2021L174.504 75.1862C172.874 51.075 156.101 45.717 156.101 45.717L153.48 55.3265L145.792 43.6786L103.627 53.6376L114.751 43.0962C99.2313 47.6274 83.4347 51.1486 67.4601 53.6376C66.3074 61.4272 64.3557 69.0775 61.6361 76.4675C58.2 83.5727 52.4343 97.1425 52.4343 97.1425C52.4343 97.1425 34.9625 145.54 97.2788 160.274C142.822 165.166 171.127 142.802 174.038 112.809C174.97 107.043 174.97 91.2021 174.97 91.2021Z" fill="#F4D9BF"/>
        <g style="mix-blend-mode:multiply">
            <path d="M174.505 75.1868C174.266 71.2208 173.503 67.304 172.234 63.5389C158.489 54.1041 140.085 51.891 123.895 52.3569C118.071 52.3569 112.247 52.3569 106.423 52.9393L103.569 53.6382L104.035 53.114C98.4772 53.5687 92.9767 54.5634 87.6115 56.0843C79.1499 58.9174 71.2612 63.2365 64.3157 68.8387C63.6743 71.4558 62.7971 74.0093 61.6949 76.4681C58.2588 83.5733 52.4931 97.1431 52.4931 97.1431C51.8183 99.2546 51.312 101.416 50.9789 103.608C58.4335 105.53 65.8882 107.452 73.4011 109.432C77.7917 110.899 82.4003 111.608 87.0291 111.528C90.6871 110.772 93.9405 108.699 96.1727 105.704C99.8406 101.32 104.573 97.9504 109.917 95.9201C115.042 94.3476 119.818 99.4727 122.672 102.967C124.866 106.14 127.951 108.592 131.537 110.012C135.124 111.432 139.051 111.757 142.823 110.946C150.949 109.194 158.791 106.312 166.118 102.385C168.506 101.162 172.35 98.3662 173.806 102.385C174.162 103.362 174.396 104.379 174.505 105.413C174.796 98.9486 174.796 91.7851 174.796 91.7851L174.505 75.1868ZM90.2906 93.9982C88.9226 94.3785 87.4798 94.4002 86.101 94.0611C84.7222 93.7221 83.4539 93.0338 82.4183 92.0625C81.3826 91.0913 80.6145 89.8697 80.1878 88.5155C79.7611 87.1612 79.6903 85.72 79.9822 84.3304C80.5646 81.069 84.2337 76.0604 87.9027 76.8175C88.774 76.5715 89.6765 76.4538 90.5817 76.4681C91.9421 76.6388 93.2356 77.1573 94.3373 77.9734C95.439 78.7895 96.3118 79.8757 96.8716 81.1273C97.4767 82.3888 97.7824 83.773 97.7646 85.172C97.7469 86.5711 97.4062 87.9471 96.7692 89.1929C96.1323 90.4386 95.2162 91.5204 94.0924 92.3539C92.9686 93.1875 91.6676 93.7502 90.2906 93.9982ZM136.358 91.9016C126.516 89.7467 129.369 75.478 137.756 75.1868C139.578 74.5548 141.578 74.6721 143.314 75.5129C145.05 76.3538 146.382 77.8494 147.016 79.6713C147.443 81.209 147.479 82.8294 147.118 84.3843C146.758 85.9392 146.014 87.379 144.954 88.5722C143.894 89.7655 142.552 90.674 141.05 91.2149C139.549 91.7558 137.935 91.9118 136.358 91.6686V91.9016Z" fill="#F4D9BF"/>
        </g>
        <g style="mix-blend-mode:multiply">
            <path d="M152.84 145.073C139.748 153.053 124.57 156.94 109.253 156.235C93.937 155.529 79.1807 150.263 66.8781 141.112C62.468 138.237 58.3172 134.983 54.4731 131.386C60.0058 143.034 71.945 154.333 97.2792 160.506C130.418 164.117 154.412 153.168 166.177 135.347C162.095 139.06 157.623 142.321 152.84 145.073Z" fill="#F4D9BF"/>
        </g>
        <g style="mix-blend-mode:multiply">
            <path d="M110.383 109.257C111.74 109.008 112.964 108.287 113.839 107.22C114.713 106.154 115.181 104.812 115.159 103.433C112.014 104.83 106.015 106.053 103.918 103.84C104.121 105.389 104.898 106.805 106.095 107.808C107.292 108.811 108.823 109.328 110.383 109.257Z" fill="#F4D9BF"/>
        </g>
        <path d="M174.504 75.1846C174.305 72.1938 173.817 69.2293 173.048 66.3322C157.837 59.34 141.21 55.9709 124.477 56.4897C112.755 56.1863 101.035 57.1824 89.5329 59.4599C82.88 60.7853 76.4353 62.9988 70.3721 66.041C68.159 67.2058 66.0623 68.5453 63.9075 69.8848C63.2673 72.1319 62.4694 74.331 61.5197 76.4659C58.0836 83.5711 52.3179 97.1409 52.3179 97.1409C52.3179 97.1409 51.7937 98.7716 51.2113 101.392C55.118 102.791 59.1576 103.786 63.2669 104.363C69.3498 105.792 75.5157 106.843 81.7289 107.508C89.9406 107.915 94.3085 103.722 100.598 99.121C104.062 95.9035 108.625 94.1324 113.353 94.1707C118.711 95.1025 121.856 99.5869 125.758 103.023C128.687 105.535 132.283 107.142 136.109 107.649C139.934 108.155 143.824 107.54 147.307 105.877C156.625 102.615 165.768 98.8298 174.854 94.8113V91.2005L174.504 75.1846ZM90.3483 95.3355C88.4773 95.6568 86.5533 95.4302 84.8082 94.683C83.063 93.9358 81.5713 92.6998 80.5125 91.1241C79.4538 89.5483 78.8734 87.7 78.8412 85.8019C78.809 83.9038 79.3264 82.0369 80.3311 80.4261C81.7559 78.3853 83.7969 76.8545 86.155 76.0582C87.7189 75.4118 89.4257 75.19 91.1029 75.415C92.78 75.6399 94.3681 76.3038 95.7063 77.3394C97.0532 78.7055 98.0087 80.408 98.473 82.2693C98.9373 84.1306 98.8935 86.0824 98.3461 87.921C97.7987 89.7596 96.7678 91.4176 95.361 92.7218C93.9542 94.026 92.223 94.9286 90.3483 95.3355ZM136.649 93.0641C135.16 92.8915 133.732 92.3751 132.477 91.5559C131.222 90.7366 130.175 89.6368 129.418 88.3433C128.661 87.0499 128.216 85.5982 128.116 84.1029C128.016 82.6076 128.266 81.1096 128.845 79.7273C129.344 77.5902 130.61 75.7104 132.402 74.4439C134.195 73.1774 136.389 72.6121 138.571 72.855C140.72 72.6821 142.865 73.2371 144.661 74.4307C146.457 75.6244 147.799 77.3873 148.471 79.4361C148.947 81.1573 148.989 82.9693 148.595 84.7109C148.201 86.4525 147.382 88.0697 146.212 89.4185C145.042 90.7673 143.557 91.806 141.888 92.442C140.22 93.0781 138.42 93.2918 136.649 93.0641Z" fill="#F75B00"/>
        <path d="M174.97 90.7372C178.723 81.761 184.744 73.914 192.442 67.9656C198.849 62.8405 209.623 57.5407 217.427 61.7339C213.861 55.9462 209.167 50.9352 203.624 46.9993L213.874 49.0377C210.243 44.7798 205.413 41.7151 200.013 40.2435C204.127 39.1127 208.387 38.6023 212.651 38.7293C202.121 31.0649 189.605 26.5964 176.601 25.8584L190.113 18.7531C181.113 16.9361 171.759 18.4467 163.788 23.0046C162.664 16.5049 160.312 10.2789 156.858 4.65916L156.275 20.2674C149.216 12.7404 141.411 5.94974 132.98 0L135.367 5.82396C135.367 5.82396 88.7758 -9.26009 37.0008 27.1396C37.0008 27.1396 47.8334 29.0033 54.0651 30.8087C47.327 32.8516 41.0548 36.1954 35.6031 40.6512C40.8213 40.5934 46.0371 40.9048 51.2113 41.583L33.7394 48.863C33.7394 48.863 53.8321 83.8067 55.4628 90.1548C55.4628 89.6889 61.2868 76.7015 61.6944 76.3521C64.4141 68.9621 66.3657 61.3118 67.5184 53.5221C83.493 51.0332 99.2895 47.5121 114.809 42.9808L103.627 53.6386L145.676 43.5632L153.363 55.2111L155.984 45.6016C155.984 45.6016 172.757 50.9596 174.388 75.0708C174.854 86.3693 174.912 89.7472 174.97 90.7372Z" fill="#C53623"/>
        <g style="mix-blend-mode:multiply">
            <g style="mix-blend-mode:multiply">
                <path d="M193.316 61.5592C192.734 61.9669 190.812 57.7736 190.288 56.1429C189.647 59.9867 184.464 67.4414 183.94 66.5678C182.768 61.7745 181.068 57.1258 178.873 52.7068C175.887 48.4814 172.085 44.897 167.691 42.1654C167.519 42.0409 167.385 41.8721 167.303 41.677C167.22 41.482 167.193 41.2682 167.223 41.0585C167.253 40.8489 167.339 40.6514 167.473 40.4873C167.607 40.3232 167.783 40.1986 167.982 40.127C175.949 38.3639 184.128 37.7558 192.268 38.3216C184.173 32.8471 161.809 31.7406 162.449 31.0999C169.18 25.1311 177.129 20.6994 185.745 18.1125C178.094 17.3922 170.41 19.1041 163.789 23.0046C162.664 16.5049 160.312 10.2789 156.858 4.65916L156.276 20.2674C149.217 12.7404 141.411 5.94974 132.98 0L135.31 5.82396C140.116 10.6743 143.569 16.6977 145.327 23.2958C145.327 24.3441 134.785 18.1707 129.602 16.5983C125.187 15.0005 120.589 13.9635 115.916 13.5116C122.374 16.1239 128.194 20.0966 132.98 25.1595C127.327 25.6798 121.65 25.8937 115.974 25.8001C121.301 26.4902 126.432 28.2535 131.058 30.9834C119.612 33.3284 108.314 36.3426 97.2208 40.0106C87.1454 43.5632 77.0118 47.1158 66.7034 50.1443C63.5584 54.5705 60.8794 59.3461 58.0256 64.2382C56.032 60.8122 54.2806 57.2509 52.7841 53.5804C52.8962 59.4928 52.0907 65.3868 50.3963 71.0523C48.0693 66.6313 45.3606 62.422 42.301 58.4725C39.9131 55.8517 37.3506 53.2892 34.8463 50.7266C38.9813 58.0648 54.0654 84.855 55.5214 90.1548C55.5214 89.6889 61.3453 76.7015 61.753 76.3521C64.4726 68.9621 66.4242 61.3118 67.5769 53.5221C83.5515 51.0332 99.3481 47.512 114.867 42.9808L103.627 53.6386L145.676 43.5632L153.364 55.2111L155.985 45.6016C155.985 45.6016 172.758 50.9596 174.388 75.0708C174.738 86.2528 174.796 89.6307 174.854 90.6207C178.607 81.6445 184.627 73.7976 192.326 67.8491C198.732 62.724 209.507 57.4242 217.311 61.6174C213.733 59.3223 209.573 58.0974 205.322 58.0871C201.071 58.0768 196.905 59.2814 193.316 61.5592Z" fill="#C53623"/>
            </g>
        </g>
        <path d="M87.0288 86.4871C87.0288 89.632 87.9024 91.9616 89.1254 91.8451C90.3485 91.7287 91.455 88.9332 91.5133 86.0212C91.5715 83.1092 90.5815 80.1972 89.3584 80.6631C88.1354 81.1291 87.087 83.4004 87.0288 86.4871Z" fill="#673121"/>
        <path d="M89.6496 83.7485C89.6496 84.7386 90.0572 85.3792 90.3484 85.2627C90.6396 85.1463 91.0473 84.3892 90.9891 83.5156C90.9308 82.642 90.5814 81.8849 90.1737 81.9431C89.7661 82.0013 89.5914 82.8749 89.6496 83.7485Z" fill="white"/>
        <path d="M135.251 84.1566C135.251 87.2433 136.125 89.6311 137.406 89.4564C138.687 89.2817 139.677 86.6027 139.736 83.6325C139.794 80.6622 138.804 78.1579 137.639 78.2744C136.474 78.3909 135.309 81.0117 135.251 84.1566Z" fill="#673121"/>
        <path d="M137.872 81.4171C137.872 82.3489 138.28 83.0478 138.629 82.9313C138.978 82.8148 139.27 81.9995 139.211 81.1259C139.153 80.2523 138.862 79.4952 138.454 79.5534C138.047 79.6117 137.814 80.4853 137.872 81.4171Z" fill="white"/>
        <path d="M94.7751 150.373C100.845 153.002 107.45 154.159 114.052 153.751C123.008 152.43 131.331 148.36 137.872 142.103C130.625 139.373 122.763 138.701 115.157 140.16C107.552 141.62 100.497 145.154 94.7751 150.373Z" fill="#ED6C73"/>
        <path d="M112.946 131.795C133.796 128.068 137.872 122.302 138.163 115.43C121.622 121.189 104.253 124.219 86.738 124.399C88.7182 128.126 95.0081 134.765 112.946 131.795Z" fill="white"/>
        <path d="M152.665 108.09C148.091 111.018 143.232 113.477 138.164 115.428C137.872 122.3 133.796 128.066 112.946 131.793C95.0081 134.997 88.7182 128.124 86.7381 124.397C80.5064 124.397 76.5461 124.397 76.5461 124.397C76.8783 129.991 78.7587 135.382 81.9778 139.969C85.1968 144.556 89.6275 148.157 94.7751 150.372C100.491 145.143 107.543 141.598 115.149 140.128C122.755 138.658 130.62 139.321 137.872 142.044C142.656 137.798 146.458 132.561 149.013 126.698C151.567 120.834 152.814 114.484 152.665 108.09Z" fill="#F6B9C6"/>
        <path d="M83.0107 99.8222C83.0107 101.861 78.9921 103.375 74.2164 103.2C69.4408 103.025 65.6553 101.22 65.7135 99.1815C65.7718 97.1431 69.732 95.6871 74.5077 95.8619C79.2833 96.0366 83.0689 97.9585 83.0107 99.8222Z" fill="#F9CBC0"/>
        <path d="M160.295 96.2681C160.295 98.2483 156.8 100.287 152.141 100.811C147.482 101.335 143.347 100.112 143.114 98.1318C142.881 96.1517 146.55 94.055 151.326 93.5309C156.101 93.0067 160.062 93.9968 160.295 96.2681Z" fill="#F9CBC0"/>
        <path d="M115.799 101.627C114.034 100.511 112.046 99.7951 109.975 99.5308C110.009 99.2016 110.009 98.8699 109.975 98.5407C109.975 98.133 109.975 97.7836 110.266 97.376C110.229 97.0275 110.229 96.6761 110.266 96.3276C110.266 96.3276 110.266 96.3276 110.266 96.3276C110.266 96.3276 109.917 96.6188 110.266 96.6771C110.184 97.1318 110.067 97.5797 109.917 98.0166C109.748 98.5308 109.554 99.0362 109.334 99.5308C107.937 99.5308 105.491 99.5308 104.5 100.637C104.183 101.322 104.018 102.067 104.018 102.821C104.018 103.576 104.183 104.321 104.5 105.005C104.834 106.245 105.42 107.402 106.222 108.404C107.024 109.406 108.024 110.232 109.16 110.829C109.16 110.829 109.859 110.363 109.684 110.13C108.48 108.683 107.389 107.145 106.422 105.529C106.131 104.947 104.733 101.22 105.316 101.045C108.807 100.178 112.484 100.464 115.799 101.86C115.799 101.86 115.915 101.686 115.799 101.627Z" fill="#C39368"/>
        <path d="M77.9437 73.7303C77.9437 73.7303 83.7677 62.6066 90.8729 64.5867C97.9781 66.5669 100.599 78.1565 100.599 78.1565C100.599 78.1565 89.7664 62.3736 77.9437 73.7303Z" fill="#C53623"/>
        <path d="M149.753 70.6998C149.753 70.6998 143.521 59.7507 136.591 61.9638C129.66 64.1769 127.273 75.8249 127.273 75.8249C127.273 75.8249 137.581 59.9837 149.753 70.6998Z" fill="#C53623"/>
        <g style="mix-blend-mode:screen">
            <path d="M42.7667 25.8588C67.79 9.65708 97.6432 2.60012 127.272 5.88261C97.7704 4.29337 68.4344 11.2281 42.7667 25.8588Z" fill="#C53623"/>
        </g>
        <g style="mix-blend-mode:screen">
            <path d="M107.471 147.171C107.471 147.171 105.142 145.074 101.647 148.51C98.1529 151.947 109.859 149.268 107.471 147.171Z" fill="#ED6C73"/>
        </g>
    </g>
    <defs>
        <clipPath id="clip0_150_87411">
            <rect width="255" height="276" fill="white"/>
        </clipPath>
    </defs>
</svg>