<svg width="354" height="322" viewBox="0 0 354 322" fill="none" xmlns="http://www.w3.org/2000/svg">
    <path d="M176.076 212.39C176.076 212.39 216.514 197.043 284.625 201.603C324.612 204.228 364.429 209.376 403.879 217.02C403.879 217.02 372.955 256.594 359.678 277.46C346.401 298.327 341.628 307.876 341.628 307.876C341.628 307.876 310.808 269.56 261.867 254.981C212.926 240.403 187.606 246.127 187.606 246.127C187.606 246.127 170.791 219.013 176.076 212.39Z"
          fill="#FF7824"/>
    <path d="M157.387 197.996C157.387 197.996 162.365 208.816 161.97 215.319C161.576 221.821 155.369 223.076 158.164 228.983C160.96 234.89 172.092 236.365 178.761 230.858C185.43 225.35 188.407 215.079 183.672 214.582C181.698 214.365 174.816 210.197 173.125 204.453C172.18 201.296 171.404 198.081 170.798 194.825L157.387 197.996Z"
          fill="#FAB88E"/>
    <g style="mix-blend-mode:multiply">
        <path d="M173.915 206.361C173.58 205.716 173.302 205.036 173.086 204.332C172.158 201.214 171.395 198.04 170.798 194.825L157.387 197.996C159.504 202.626 161.015 207.562 161.877 212.657C166.109 211.108 170.152 208.993 173.915 206.361Z"
              fill="#EFE3DC"/>
    </g>
    <path d="M122.027 63.492C107.066 72.0901 95.446 86.3612 89.3181 103.662C79.4373 132.336 79.126 163.356 107.959 187.196C140.074 213.844 173.069 202.844 186.711 191.965C201.087 180.263 210.92 163.026 214.247 143.697C220.379 107.421 193.968 73.4821 164.273 61.8987C151.368 56.852 134.577 57.1571 122.027 63.492Z"
          fill="#FBC6A5"/>
    <path d="M164.376 76.3615C167.406 83.2468 171.02 89.8023 174.159 96.6444C179.524 108.195 181.849 121.164 180.872 134.09C179.9 151.749 173.726 177.99 181.458 195.528C183.281 194.473 185.036 193.282 186.711 191.964C201.087 180.262 210.92 163.025 214.247 143.696C220.379 107.42 193.968 73.4808 164.273 61.8973C162.072 61.0507 159.823 60.3635 157.54 59.8399C159.995 65.2369 162.003 70.9526 164.376 76.3615Z"
          fill="#FAB88E"/>
    <path d="M130.507 116.855C129.646 122.079 127.934 129.1 123.977 132.582C120.345 135.764 115.204 131.385 112.026 134.78C107.615 139.468 116.143 148.537 120.918 145.767C121.069 145.684 121.191 145.549 121.265 145.383C121.339 145.217 121.361 145.028 121.327 144.847C121.294 144.665 121.207 144.501 121.081 144.379C120.954 144.258 120.794 144.185 120.626 144.173C117.962 143.887 115.518 143.387 114.027 140.641C110.998 135.112 115.974 135.764 118.646 135.842C121.074 136.056 123.487 135.249 125.397 133.585C127.52 131.471 129.195 128.871 130.305 125.967C131.415 123.063 131.933 119.927 131.821 116.779C131.748 115.904 130.651 116.147 130.524 116.861L130.507 116.855Z"
          fill="#DE956D"/>
    <path d="M158.505 130.361C157.635 125.627 152.554 120.932 147.384 122.811C146.125 123.246 144.944 123.918 143.894 124.797C141.501 126.711 139.73 129.42 138.842 132.525C137.505 136.807 137.765 144.298 141.561 146.94C150.516 153.163 160.264 139.774 158.505 130.361Z"
          fill="white"/>
    <path d="M142.799 125.653C140.897 127.474 139.491 129.839 138.739 132.486C138.071 134.989 137.906 137.623 138.254 140.203C138.964 141.492 140.023 142.502 141.283 143.092C142.543 143.682 143.939 143.822 145.276 143.493C149.745 142.068 151.545 136.182 151.042 131.628C150.872 130.633 150.521 129.685 150.011 128.841C149.501 127.997 148.841 127.275 148.072 126.718C147.303 126.16 146.44 125.779 145.534 125.596C144.628 125.413 143.698 125.432 142.799 125.653Z"
          fill="#541301"/>
    <path d="M147.843 129.974C147.295 129.826 146.717 129.908 146.222 130.205C145.727 130.503 145.351 130.992 145.168 131.579C144.984 132.166 145.007 132.806 145.232 133.375C145.456 133.944 145.866 134.4 146.381 134.654C146.928 134.802 147.506 134.719 148.001 134.422C148.496 134.125 148.873 133.635 149.056 133.049C149.239 132.462 149.216 131.821 148.992 131.252C148.767 130.683 148.357 130.227 147.843 129.974Z"
          fill="white"/>
    <path d="M141.135 136.59C140.815 136.47 140.465 136.493 140.161 136.657C139.857 136.82 139.625 137.109 139.515 137.461C139.405 137.813 139.427 138.198 139.575 138.532C139.724 138.866 139.987 139.122 140.307 139.243C140.626 139.364 140.977 139.34 141.28 139.177C141.584 139.013 141.817 138.724 141.926 138.372C142.036 138.021 142.015 137.635 141.866 137.301C141.718 136.967 141.455 136.711 141.135 136.59Z"
          fill="white"/>
    <path d="M117.061 111.879C116.19 107.144 111.11 102.449 105.939 104.329C104.672 104.753 103.485 105.423 102.433 106.308C100.042 108.225 98.2714 110.933 97.3805 114.037C96.0431 118.318 96.297 125.828 100.099 128.451C109.072 134.681 118.807 121.33 117.061 111.879Z"
          fill="white"/>
    <path d="M101.348 107.191C99.4469 109.003 98.0429 111.362 97.2945 114.004C96.6026 116.491 96.4077 119.112 96.7234 121.689C97.4332 122.978 98.4928 123.988 99.7527 124.578C101.013 125.168 102.409 125.308 103.745 124.979C108.215 123.554 110.015 117.668 109.512 113.114C109.337 112.131 108.987 111.196 108.48 110.364C107.974 109.531 107.321 108.818 106.561 108.267C105.801 107.715 104.948 107.336 104.053 107.151C103.158 106.966 102.239 106.98 101.348 107.191Z"
          fill="#541301"/>
    <path d="M106.323 111.486C105.761 111.274 105.146 111.316 104.612 111.603C104.078 111.889 103.67 112.398 103.477 113.016C103.284 113.634 103.322 114.311 103.583 114.898C103.844 115.485 104.306 115.934 104.868 116.147C105.429 116.359 106.045 116.317 106.579 116.03C107.113 115.744 107.521 115.235 107.714 114.617C107.907 113.999 107.869 113.322 107.608 112.735C107.347 112.148 106.885 111.699 106.323 111.486Z"
          fill="white"/>
    <path d="M99.7078 118.115C99.3881 117.994 99.0378 118.018 98.734 118.182C98.4302 118.345 98.1978 118.634 98.088 118.986C97.9781 119.338 97.9998 119.723 98.1482 120.057C98.2966 120.391 98.5596 120.647 98.8793 120.768C99.1991 120.889 99.5494 120.865 99.8532 120.701C100.157 120.538 100.389 120.249 100.499 119.897C100.609 119.545 100.587 119.16 100.439 118.826C100.291 118.492 100.028 118.236 99.7078 118.115Z"
          fill="white"/>
    <path d="M104.482 98.8857C105.899 97.3779 107.643 96.2942 109.548 95.7377C110.444 95.4959 111.381 95.5075 112.272 95.7716C113.082 96.1842 113.947 96.4538 114.834 96.5705C114.925 96.5767 115.016 96.5601 115.1 96.5218C115.185 96.4835 115.26 96.4245 115.32 96.3494C115.381 96.2743 115.425 96.185 115.45 96.0883C115.474 95.9916 115.479 95.89 115.462 95.7913C114.947 93.309 111.8 92.9034 109.891 93.2198C107.359 93.8162 105.071 95.3003 103.371 97.4491C102.598 98.3218 103.692 99.6886 104.499 98.8922L104.482 98.8857Z"
          fill="#541301"/>
    <path d="M156.188 114.722C157.307 115.23 158.323 115.976 159.179 116.918C160.035 117.859 160.714 118.977 161.176 120.208C161.942 122.255 161.706 125.047 162.987 126.739C163.049 126.818 163.126 126.881 163.213 126.922C163.3 126.963 163.394 126.982 163.489 126.977C163.584 126.972 163.676 126.943 163.759 126.892C163.842 126.842 163.913 126.771 163.967 126.685C165.402 124.432 164.175 120.409 163.105 118.225C162.445 116.88 161.547 115.694 160.462 114.739C159.378 113.783 158.13 113.077 156.793 112.663C156.546 112.569 156.276 112.588 156.042 112.714C155.807 112.84 155.628 113.063 155.543 113.334C155.459 113.605 155.475 113.903 155.59 114.16C155.704 114.418 155.907 114.615 156.154 114.709L156.188 114.722Z"
          fill="#541301"/>
    <path d="M98.8448 151.088C98.8448 151.088 106.858 158.354 121.361 161.06C135.863 163.766 150.352 158.439 150.352 158.439C150.352 158.439 138.62 188.786 117.875 182.513C94.1043 175.266 98.8448 151.088 98.8448 151.088Z"
          fill="#6B2916"/>
    <path d="M109.752 162.158C113.447 163.781 117.311 164.893 121.255 165.467C124.92 166.211 128.671 166.298 132.362 165.725C136.795 164.604 137.739 163.245 138.35 161.167C132.702 162.03 126.972 162.004 121.332 161.09C115.046 159.954 108.978 157.661 103.385 154.307C103.764 156.098 104.546 157.754 105.658 159.126C106.771 160.498 108.179 161.54 109.752 162.158Z"
          fill="white"/>
    <path d="M132.533 171.467C129.513 173.318 126.999 176.025 125.251 179.306C124.662 180.549 124.212 181.865 123.911 183.227C133.375 183.012 140.506 175.349 144.974 168.565C140.658 168.17 136.332 169.179 132.533 171.467Z"
          fill="#DC3231"/>
    <path d="M148.129 75.7292C148.129 75.7292 168.576 74.2637 179.727 107.117C190.879 139.97 170.808 165.449 208.315 197.397C247.207 230.525 304.298 216.114 334.027 187.95C363.755 159.787 352.613 129.31 352.613 129.31C350.997 135.157 347.775 140.309 343.39 144.06C339.004 147.811 333.671 149.977 328.122 150.26C307.395 151.577 298.565 140.635 298.565 140.635C298.565 140.635 319.836 135.605 318.042 112.559C316.782 96.4924 302.313 89.8588 302.313 89.8588C302.313 89.8588 311.911 104.628 292.752 116.832C273.592 129.036 263.179 124.338 241.396 101.786C230.559 90.5516 222.627 67.3036 194.738 50.3661C161.343 30.0343 128.774 43.8638 114.321 57.3381C90.9692 79.1418 91.0262 99.1806 91.0262 99.1806C91.0262 99.1806 110.463 69.6907 128.004 67.1061C145.545 64.5215 148.129 75.7292 148.129 75.7292Z"
          fill="#995322"/>
    <g style="mix-blend-mode:soft-light" opacity="0.7">
        <g style="mix-blend-mode:soft-light" opacity="0.7">
            <path d="M353.471 142.894C350.159 148.505 347.567 154.77 343.356 159.681C338.436 165.384 331.599 168.964 325.122 172.066C311.135 178.747 295.811 182 280.731 178.123C266.025 174.344 253.967 164.428 244.31 151.945C234.652 139.462 228.387 125.549 220.245 112.347C211.89 98.6177 199.595 88.3628 185.322 83.2191C185.117 83.1414 184.892 83.1567 184.696 83.2617C184.501 83.3666 184.352 83.5526 184.281 83.7787C184.21 84.0048 184.224 84.2526 184.32 84.4674C184.415 84.6822 184.584 84.8465 184.79 84.9242C200.291 90.7828 212.493 102.702 221.126 117.848C229.169 131.924 236.386 146.365 246.962 158.433C256.266 169.491 268.395 177.191 281.753 180.521C295.814 183.717 309.889 181.072 323.074 175.295C330.282 172.131 338.078 168.256 343.709 162.187C348.521 157.016 351.555 150.325 354.559 143.729C354.922 142.934 353.944 142.12 353.471 142.894Z"
                  fill="#D3B5A0"/>
        </g>
        <g style="mix-blend-mode:soft-light" opacity="0.7">
            <path d="M143.788 49.4319C138.718 46.118 132.4 42.7344 126.445 42.009C126.356 42.0055 126.267 42.0338 126.193 42.0898C126.119 42.1457 126.064 42.2263 126.034 42.3197C126.005 42.4131 126.004 42.5143 126.031 42.6084C126.058 42.7026 126.112 42.7846 126.185 42.8426C134.901 48.7211 150.924 50.6888 153 64.1404C153.154 65.0669 154.4 64.7754 154.281 63.8619C153.404 57.2391 148.794 52.7009 143.788 49.4319Z"
                  fill="#D3B5A0"/>
        </g>
        <g style="mix-blend-mode:soft-light" opacity="0.7">
            <path d="M165.191 34.7274C165.328 39.7146 166.507 44.6933 166.898 49.5436C167.387 55.5623 166.919 61.6286 165.516 67.4708C165.472 67.6115 165.481 67.7657 165.54 67.8993C165.599 68.033 165.705 68.1352 165.833 68.1836C165.96 68.2319 166.101 68.2224 166.222 68.1571C166.344 68.0918 166.437 67.9761 166.481 67.8354C169.97 57.0387 169.777 45.2152 165.935 34.5639C165.906 34.4666 165.845 34.3844 165.764 34.3329C165.684 34.2814 165.589 34.264 165.497 34.2841C165.406 34.3042 165.324 34.3603 165.268 34.442C165.212 34.5236 165.184 34.6251 165.191 34.7274Z"
                  fill="#D3B5A0"/>
        </g>
        <g style="mix-blend-mode:soft-light" opacity="0.7">
            <path d="M177.18 68.6606C176.265 69.1835 176.967 70.6983 177.881 70.2388C184.111 66.8458 191.009 65.2027 197.957 65.4562C204.37 65.7618 210.104 68.1195 216.313 69.4494C216.899 69.6707 217.167 68.5648 216.698 68.2179C211.15 64.2783 203.195 63.1145 196.703 63.1818C189.886 63.2229 183.182 65.1042 177.18 68.6606Z"
                  fill="#D3B5A0"/>
        </g>
        <g style="mix-blend-mode:soft-light" opacity="0.7">
            <path d="M182.908 53.9012C186.293 50.5841 190.442 48.2758 193.703 44.6787C193.798 44.5738 193.858 44.4356 193.871 44.2878C193.884 44.1399 193.851 43.9915 193.776 43.8681C193.7 43.7446 193.589 43.6537 193.459 43.6109C193.33 43.568 193.191 43.576 193.066 43.6333C183.988 48.0394 175.63 57.1028 173.046 67.8401C172.733 68.8442 174.208 69.423 174.476 68.3804C175.938 62.7506 178.87 57.7164 182.908 53.9012Z"
                  fill="#D3B5A0"/>
        </g>
        <g style="mix-blend-mode:soft-light" opacity="0.7">
            <path d="M141.39 37.3187C140.947 37.2572 140.67 38.0209 141.094 38.2659C146.171 41.2442 150.437 44.2332 153.339 49.7995C155.866 54.8103 157.416 60.3449 157.891 66.051C158.009 67.0911 159.44 66.7635 159.34 65.7299C158.361 54.6207 153.206 38.8193 141.39 37.3187Z"
                  fill="#D3B5A0"/>
        </g>
        <g style="mix-blend-mode:soft-light" opacity="0.7">
            <path d="M140.678 63.8238C133.239 60.1438 124.843 60.762 117.073 62.888C109.783 64.8985 100.84 68.1276 95.24 73.912C95.1401 73.9866 95.0712 74.1018 95.0485 74.2322C95.0258 74.3627 95.0512 74.4977 95.119 74.6076C95.1868 74.7175 95.2915 74.7933 95.4101 74.8182C95.5287 74.8432 95.6515 74.8153 95.7514 74.7407C102.879 71.5249 109.193 67.2175 116.802 65.0519C124.411 62.8863 132.728 62.0265 140.181 65.4152C141.099 65.868 141.579 64.27 140.678 63.8238Z"
                  fill="#D3B5A0"/>
        </g>
        <g style="mix-blend-mode:soft-light" opacity="0.7">
            <path d="M333.847 176.252C324.176 188.102 308.534 191.574 294.865 194.647C280.906 197.844 267.123 198.079 253.384 193.543C238.647 188.693 226.666 179.209 219.745 163.883C212.433 147.838 208.035 130.29 201.133 114.04C195.368 100.38 187.408 82.4596 172.771 78.7068C172.048 78.4334 171.605 79.7276 172.375 79.9761C187.587 85.2172 195.276 104.434 201.269 119.154C204.656 127.424 207.742 135.792 210.746 144.299C213.899 153.561 217.022 163.108 221.968 171.438C237.103 196.964 269.023 202.228 294.192 196.617C307.809 193.587 325.774 189.955 334.916 177.206C335.21 176.576 334.319 175.667 333.847 176.252Z"
                  fill="#D3B5A0"/>
        </g>
        <g style="mix-blend-mode:soft-light" opacity="0.7">
            <path d="M232.99 200.515C228.308 197.008 223.743 194.732 219.791 189.998C216.224 185.584 213.324 180.568 211.202 175.144C206.952 164.705 204.951 153.357 202.78 142.306C198.917 120.913 190.415 100.863 177.997 83.8598C177.513 83.1897 176.602 84.0738 177.091 84.7249C184.155 94.2885 189.911 104.935 194.18 116.327C198.309 127.398 200.441 138.88 202.757 150.516C204.846 161.028 207.29 171.822 212.019 181.341C216.267 189.873 223.584 199.248 232.753 201.273C233.046 201.32 233.362 200.804 232.99 200.515Z"
                  fill="#D3B5A0"/>
        </g>
        <g style="mix-blend-mode:soft-light" opacity="0.7">
            <path d="M249.174 135.015C241.617 126.842 234.909 117.74 227.933 109.003C222.005 101.594 215.391 93.6716 206.779 90.4168C206.617 90.3865 206.451 90.4205 206.31 90.5127C206.169 90.6048 206.062 90.7492 206.009 90.9199C205.955 91.0907 205.959 91.2767 206.019 91.4449C206.078 91.613 206.191 91.7523 206.335 91.8378C217.255 95.9648 224.738 107.393 231.998 116.64C239.828 126.589 247.422 137.297 257.264 144.935C266.277 151.994 276.819 156.321 287.832 157.484C295.314 158.193 304.491 157.786 309.504 150.678C309.918 150.093 309.118 149.324 308.618 149.814C301.244 157.024 290.784 156.418 281.672 154.457C269.344 151.611 258.046 144.851 249.174 135.015Z"
                  fill="#D3B5A0"/>
        </g>
        <g style="mix-blend-mode:soft-light" opacity="0.7">
            <path d="M198.256 81.3278C211.075 78.6954 222.048 88.2015 230.952 97.1165C238.857 105.039 246.047 113.582 254.802 120.45C263.556 127.317 273.63 133.412 284.523 133.801C294.299 134.128 305.196 129.265 309.686 119.206C314.698 108.031 310.881 93.4339 303.994 84.2859C303.476 83.6028 302.352 84.3643 302.772 85.1794C306.376 92.1339 309.662 99.4336 309.749 107.601C309.879 111.93 308.846 116.205 306.78 119.892C304.714 123.579 301.706 126.515 298.132 128.332C284.524 135.771 269.56 129.056 257.935 120.405C247.478 112.64 239.212 102.42 229.779 93.4113C220.98 85.0231 210.204 77.5399 198.091 80.4392C198.028 80.4998 197.98 80.5777 197.953 80.6651C197.926 80.7525 197.921 80.8462 197.938 80.9366C197.955 81.027 197.993 81.1108 198.049 81.1796C198.105 81.2483 198.177 81.2995 198.256 81.3278Z"
                  fill="#D3B5A0"/>
        </g>
    </g>
    <g style="mix-blend-mode:multiply">
        <path d="M105.04 76.2619C101.54 78.5149 98.1827 81.025 94.9902 83.7751C92.7195 88.5698 91.3662 93.8256 91.0139 99.218C91.0139 99.218 107.114 74.8005 123.246 68.4639C116.81 69.8735 110.648 72.5128 105.04 76.2619Z"
              fill="#DBC3B2"/>
    </g>
    <g style="mix-blend-mode:multiply">
        <path d="M324.352 185.077C302.681 195.95 278.167 199.712 255.399 190.98C243.764 186.835 233.389 179.25 225.409 169.055C217.151 157.948 213.055 144.305 208.258 131.181C199.39 106.985 183.715 86.7633 161.659 80.3126C167.747 84.4351 174.679 92.2658 179.727 107.116C190.855 139.981 170.807 165.449 208.315 197.396C247.206 230.524 304.297 216.113 334.026 187.95C340.016 182.44 345.027 175.759 348.808 168.245C341.4 175.068 333.17 180.732 324.352 185.077Z"
              fill="#E7D6CA"/>
    </g>
    <g style="mix-blend-mode:multiply">
        <path d="M136.575 97.925C147.67 89.5856 161.208 86.1364 174.506 88.2613C201.048 91.9383 207.661 100.792 207.661 100.792C207.661 100.792 216.471 93.3614 205.428 85.375C183.775 69.2612 159.172 58.5672 133.354 54.0467C108.946 49.9478 111.704 61.7085 111.704 61.7085C111.704 61.7085 118.249 64.1821 127.395 74.4806C135.719 83.8966 136.575 97.925 136.575 97.925Z"
              fill="#E8EDEB"/>
    </g>
    <path d="M136.686 95.594C147.779 87.2363 161.323 83.7732 174.629 85.8925C201.154 89.5629 207.784 98.4232 207.784 98.4232C207.784 98.4232 216.583 90.9671 205.557 82.9872C181.903 65.8709 157.88 55.7322 133.466 51.6524C109.052 47.5725 111.81 59.3331 111.81 59.3331C111.81 59.3331 118.355 61.8067 127.507 72.0863C135.824 81.5846 136.686 95.594 136.686 95.594Z"
          fill="#FFCF38"/>
    <path d="M148.599 80.1418C147.475 83.7414 144.376 85.8324 141.689 84.8169C139.002 83.8014 137.709 80.0506 138.833 76.4509C139.958 72.8512 143.056 70.7603 145.761 71.7823C148.465 72.8043 149.741 76.4853 148.599 80.1418Z"
          fill="#FF7824"/>
    <path d="M245.617 279.385C245.617 279.385 262.046 300.273 286.569 305.114C311.092 309.956 323.087 298.433 323.087 298.433L320.235 314.407C305.667 319.541 290.043 319.813 275.335 315.188C251.102 307.385 239.535 291.765 239.535 291.765L245.617 279.385Z"
          fill="#FBC6A5"/>
    <path d="M305.775 305.213C304.012 308.055 301.848 310.569 299.366 312.662C296.56 315.119 293.46 317.14 290.153 318.669C290.153 318.669 307.553 321.221 320.561 315.334C333.568 309.447 340.974 291.657 340.974 291.657C340.974 291.657 355.245 304.041 362.181 303.909C368.499 303.84 372.25 296.022 363.568 288.123C353.062 278.602 339.372 273.111 336.098 278.355C332.823 283.599 327.599 295.329 319.412 300.517C315.275 303.265 310.598 304.876 305.775 305.213Z"
          fill="#541301"/>
    <path d="M309.818 304.602C308.32 304.923 306.8 305.107 305.275 305.152C303.542 308.023 301.39 310.559 298.906 312.658C296.095 315.108 292.991 317.121 289.681 318.64C292.651 319.253 295.665 319.57 298.687 319.586C303.597 315.834 307.453 310.643 309.818 304.602Z"
          fill="#FF7824"/>
    <g style="mix-blend-mode:multiply">
        <path d="M268.656 298.408C260.016 293.613 252.215 287.173 245.617 279.385L239.57 291.779C239.57 291.779 247.275 302.189 263.299 310.258C265.226 306.369 266.999 302.421 268.656 298.408Z"
              fill="#EFE3DC"/>
    </g>
    <path d="M224.587 283.214C224.587 283.214 228.695 310.44 247.347 328.652C265.999 346.864 281.654 343.906 281.654 343.906L271.659 355.93C256.8 351.95 243.345 343.216 232.994 330.832C216.004 310.26 213.55 290.311 213.55 290.311L224.587 283.214Z"
          fill="#FBC6A5"/>
    <g style="mix-blend-mode:multiply">
        <path d="M250.216 331.304C249.261 330.477 248.307 329.587 247.347 328.652C228.695 310.44 224.587 283.214 224.587 283.214L213.55 290.311C213.55 290.311 215.992 310.298 232.994 330.832C235.718 334.121 238.687 337.156 241.868 339.905C244.846 337.276 247.637 334.401 250.216 331.304Z"
              fill="#EFE3DC"/>
    </g>
    <path d="M192.911 293.504L207.881 338.053C215.976 338.738 224.111 337.528 231.75 334.505C239.389 331.481 246.359 326.711 252.201 320.509C272.075 299.361 269.369 264.066 269.369 264.066L224.364 264.446C219.489 270.626 214.005 276.191 208.012 281.038C202.788 284.907 197.748 289.068 192.911 293.504Z"
          fill="#FFCF38"/>
    <path d="M78.8655 173.129C90.5856 187.535 104.574 199.495 120.158 208.434C145.288 222.55 159.627 222.081 159.627 222.081L157.358 237.851C140.23 233.44 123.899 225.886 109.052 215.506C83.9381 198.071 72.1233 179.795 72.1233 179.795L78.8655 173.129Z"
          fill="#FBC6A5"/>
    <g style="mix-blend-mode:multiply">
        <path d="M140.889 225.23C132.664 221.821 124.647 217.836 116.886 213.298C101 203.989 86.6673 191.985 75.9437 176.134L72.2096 179.827C72.2096 179.827 84.0244 198.103 109.053 215.506C123.899 225.886 140.23 233.44 157.358 237.851L158.347 231.235C152.295 230.388 146.416 227.509 140.889 225.23Z"
              fill="#F3EAE4"/>
    </g>
    <path d="M181.806 215.867C181.806 215.867 186.8 208.202 214.927 207.669C245.122 207.05 278.267 220.106 278.267 220.106L277.623 229.564C277.623 229.564 244.647 221.21 226.151 220.871C215.314 220.638 204.476 221.242 193.717 222.678L198.65 232.655C197.182 234.432 195.15 235.52 192.974 235.695C190.797 235.87 188.643 235.118 186.956 233.594C180.245 228.325 181.806 215.867 181.806 215.867Z"
          fill="#FBC6A5"/>
    <g style="mix-blend-mode:multiply">
        <path d="M259.523 223.89C250.403 221.587 241.913 220.221 232.649 218.626C219.847 216.456 199.644 217.082 190.513 221.468C190.056 222.279 189.767 223.19 189.668 224.138C189.568 225.085 189.66 226.045 189.937 226.949C190.765 230.122 192.13 233.096 193.959 235.713C195.765 235.232 197.398 234.168 198.649 232.656L193.654 222.571C204.414 221.135 215.252 220.531 226.088 220.764C244.584 221.103 277.561 229.458 277.561 229.458L277.599 229.027C271.473 228.11 265.616 225.345 259.523 223.89Z"
              fill="#F3EAE4"/>
    </g>
    <path d="M263.501 212.45C263.652 215.213 263.435 217.985 262.856 220.679C262.244 223.961 261.458 227.2 260.5 230.38C260.5 230.38 268.723 229.082 283.064 233.231C297.404 237.38 299.389 239.041 299.389 239.041C299.389 239.041 305.438 248.465 309.697 250.796C313.957 253.126 314.669 251.955 313.253 248.475C312.06 245.686 310.653 243.014 309.046 240.488C309.046 240.488 323.647 234.123 327.439 230.494C331.23 226.864 328.988 226.334 326.788 226.965C324.589 227.595 312.822 232.531 312.822 232.531C312.822 232.531 326.839 221.625 325.273 219.423C323.708 217.222 308.095 226.889 308.095 226.889C308.095 226.889 316.942 217.736 315.831 215.685C314.719 213.634 309.774 217.505 305.304 221.027C302.336 223.378 299.772 225.544 297.099 227.69C295.671 226.96 263.501 212.45 263.501 212.45Z"
          fill="#541301"/>
    <path d="M76.7778 191.403C79.0809 189.889 81.2629 188.163 83.3001 186.243C85.5448 184.287 87.5482 182.018 89.2598 179.493C89.2598 179.493 81.24 174.343 72.0393 160.953C65.747 151.69 66.3383 149.859 67.1688 146.275C68.0786 141.765 68.4349 137.141 68.2283 132.526C68.3342 127.44 65.6488 124.879 64.512 128.58C63.7674 131.308 63.3148 134.123 63.1633 136.967C63.1633 136.967 56.3581 122.935 52.3674 119.436C48.3767 115.936 48.2506 118.621 49.2164 120.892C50.1823 123.164 56.13 135.749 56.13 135.749C56.13 135.749 44.3012 121.894 42.584 124.063C40.8669 126.231 52.3541 140.994 52.3541 140.994C52.3541 140.994 42.6763 133.693 41.0958 135.362C39.5153 137.031 43.9679 141.764 48.096 146.057C50.762 148.865 76.7778 191.403 76.7778 191.403Z"
          fill="#541301"/>
    <path d="M160.856 219.133C160.856 219.133 158.908 226.108 163.875 229.319C171.11 233.96 178.629 228.753 180.563 219.846C181.138 217.806 181.198 215.632 180.737 213.557L185.968 212.717C185.968 212.717 182.232 228.251 188.823 232.86C195.12 237.358 198.46 231.291 198.46 231.291C203.057 240.236 209.166 248.131 216.459 254.552C227.72 263.935 232.391 263.9 232.391 263.9C229.157 274.701 222.417 283.813 213.459 289.492C198.353 299.14 192.951 296.336 192.951 296.336C192.951 296.336 171.337 286.62 162.505 264.345C150.512 234.246 156.099 220.492 156.099 220.492L160.856 219.133Z"
          fill="#541301"/>
    <path d="M269.318 264.046L266.207 264.078C265.798 286.164 260.557 306.827 244.198 321.657C234.721 330.234 219.884 336.615 206.644 334.492L207.829 338.033C215.924 338.718 224.059 337.509 231.698 334.485C239.337 331.461 246.308 326.691 252.15 320.49C272.023 299.341 269.318 264.046 269.318 264.046Z"
          fill="#FF7824"/>
    <path d="M233.224 263.452C231.111 263.103 229.041 262.491 227.054 261.629C221.674 272.686 211.685 281.239 201.251 285.916C195.678 288.497 189.827 290.28 183.842 291.22C188.926 294.857 193.632 297.483 193.632 297.483C193.632 297.483 199.111 299.3 214.218 289.652C223.271 283.793 230.039 274.463 233.224 263.452Z"
          fill="#FF7824"/>
    <path d="M170.728 243.073L172.082 254.642L163.683 255.577L172.611 260.286L173.606 273.562L178.773 262.445L191.703 265.807L181.963 257.042L188.5 247.27L177.703 253.356L170.728 243.073Z"
          fill="#FFCF38"/>
    <g style="mix-blend-mode:multiply">
        <path d="M205.352 310.576C202.027 298.474 210.444 294.708 216.606 287.865C210.807 290.587 205.028 289.42 198.898 286.976C190.575 283.661 183.648 276.616 177.618 269.719C166.054 256.494 159.738 237.754 158.996 219.66L156.098 220.492C156.098 220.492 150.512 234.246 162.556 264.365C171.423 286.654 193.003 296.356 193.003 296.356C193.313 296.51 193.636 296.632 193.967 296.72L207.852 338.147C211.78 338.558 215.739 338.447 219.644 337.817C213.269 329.881 208.409 320.618 205.352 310.576Z"
              fill="#EFE3DC"/>
    </g>
    <path d="M179.695 238.35C177.132 237.384 174.702 236.038 172.471 234.349C170.728 232.758 169.075 231.051 167.521 229.237C169.082 227.843 170.471 226.232 171.656 224.445C172.373 223.636 172.978 222.716 173.452 221.714C174.217 220.499 174.999 219.291 175.827 218.121C177.637 216.03 179.543 214.043 181.538 212.166C181.627 212.076 181.687 211.956 181.71 211.825C181.732 211.693 181.715 211.557 181.662 211.437C181.609 211.317 181.522 211.219 181.414 211.158C181.306 211.097 181.183 211.075 181.063 211.097C177.714 211.462 175.185 214.934 173.126 218.011L172.755 217.595C169.021 214.51 166.389 223.366 165.224 227.776C164.761 227.961 164.266 228.028 163.776 227.97C162.654 227.291 161.623 226.445 160.711 225.456C160.759 222.856 161.143 220.277 161.852 217.795C161.898 217.611 161.885 217.414 161.814 217.239C161.742 217.064 161.617 216.922 161.461 216.837C161.304 216.753 161.125 216.732 160.956 216.777C160.787 216.822 160.637 216.931 160.533 217.085C159.182 219.173 158.473 221.68 158.509 224.242C158.165 224.112 157.803 223.976 157.476 223.852C156.511 223.487 155.168 222.98 154.217 223.68C150.469 226.372 158.882 233.407 163.634 231.2L163.755 231.245C163.597 233.304 163.203 235.333 162.581 237.283C161.616 239.82 159.696 241.34 158.502 243.685C158.413 243.826 158.375 243.997 158.393 244.167C158.411 244.336 158.485 244.493 158.601 244.607C158.716 244.721 158.866 244.784 159.022 244.786C159.177 244.787 159.327 244.725 159.444 244.613C161.386 242.992 162.941 240.876 163.975 238.448C165.008 236.02 165.49 233.351 165.378 230.673C165.457 230.659 165.533 230.628 165.601 230.58C165.669 230.533 165.727 230.471 165.772 230.398L165.923 230.285C169.011 234.948 174.117 239.991 179.56 239.337C180.13 239.298 180.096 238.544 179.695 238.35ZM159.35 229.072C158.954 228.922 156.277 227.381 156.207 226.804C156.217 225.6 157.338 225.833 158.709 226.563C158.835 227.478 159.115 228.36 159.533 229.163L159.35 229.072ZM167.563 225.525C167.942 224.313 170.061 217.53 170.67 221.128C170.719 221.493 170.683 221.866 170.563 222.211C169.683 223.835 168.577 225.296 167.284 226.542L167.563 225.525Z"
          fill="#FF7824"/>
    <path d="M119.413 53.0567C116.811 52.2004 114.026 56.1254 114.257 58.7125C114.33 59.6508 115.538 59.7897 115.965 59.1035C116.412 58.1541 116.961 57.2665 117.599 56.4593C118.308 55.7316 119.255 55.4117 119.872 54.6071C119.951 54.4763 120.002 54.3277 120.021 54.1724C120.04 54.0171 120.027 53.859 119.983 53.71C119.939 53.561 119.864 53.4248 119.766 53.3117C119.667 53.1986 119.547 53.1114 119.413 53.0567Z"
          fill="white"/>
    <path d="M123.309 53.4055C123.081 53.3192 122.831 53.3362 122.614 53.4529C122.397 53.5695 122.231 53.7761 122.152 54.0274C122.074 54.2786 122.089 54.5538 122.195 54.7925C122.301 55.0312 122.489 55.2138 122.718 55.3001C122.946 55.3864 123.196 55.3694 123.413 55.2528C123.63 55.1362 123.796 54.9295 123.875 54.6783C123.953 54.4271 123.938 54.1518 123.832 53.9131C123.726 53.6744 123.538 53.4919 123.309 53.4055Z"
          fill="white"/>
    <path d="M181.901 84.7431C175.701 80.9172 166.114 82.0809 159.271 82.8416C158.533 82.9228 158.608 84.3489 159.357 84.2932C163.317 84.0497 167.288 84.1344 171.236 84.5464C174.695 84.8792 178.244 86.0935 181.69 85.7863C181.816 85.8169 181.948 85.7914 182.057 85.7153C182.165 85.6391 182.242 85.5187 182.27 85.3803C182.298 85.242 182.274 85.0971 182.205 84.9776C182.136 84.8581 182.027 84.7738 181.901 84.7431Z"
          fill="white"/>
    <path d="M193.479 87.8696C193.127 87.3959 192.722 86.9725 192.275 86.6094C191.28 85.7251 190.098 87.9051 191.459 88.4193C191.951 88.6686 192.464 88.8627 192.992 88.9987C193.121 89.0302 193.255 89.0127 193.374 88.949C193.493 88.8852 193.588 88.7791 193.645 88.6479C193.701 88.5168 193.716 88.3683 193.686 88.2269C193.656 88.0855 193.583 87.9595 193.479 87.8696Z"
          fill="white"/>
    <path d="M210.512 91.724C210.458 91.2799 210.192 90.7134 209.714 90.7022C209.236 90.6911 209.088 91.2281 208.889 91.5555C207.85 93.2808 206.251 92.2953 205.042 91.5419C204.063 90.9175 203.059 92.4658 204.038 93.1535C204.63 93.7129 205.321 94.1321 206.067 94.3849C206.813 94.6377 207.598 94.7187 208.374 94.6228C208.985 94.4967 209.535 94.136 209.927 93.605C210.318 93.0741 210.526 92.4075 210.512 91.724Z"
          fill="white"/>
    <path d="M145.14 73.0318C144.267 73.1497 143.433 73.4978 142.708 74.0463C141.983 74.5949 141.39 75.3277 140.978 76.1826C140.3 77.3668 139.175 79.7374 140.223 81.1291C141.271 82.5208 142.094 80.4385 142.361 79.5226C143.135 77.5481 144.285 75.7795 145.734 74.3365C145.808 74.2132 145.851 74.0704 145.859 73.9227C145.868 73.775 145.84 73.6275 145.78 73.4952C145.72 73.3628 145.629 73.2503 145.516 73.1689C145.404 73.0876 145.274 73.0403 145.14 73.0318Z"
          fill="white"/>
    <path d="M142.964 81.8465C142.726 81.7946 142.48 81.8392 142.27 81.9721C142.06 82.105 141.901 82.3171 141.822 82.5692C141.743 82.8212 141.75 83.0962 141.841 83.343C141.933 83.5898 142.103 83.7918 142.319 83.9116C142.557 83.9635 142.803 83.9188 143.014 83.786C143.224 83.6531 143.383 83.4409 143.461 83.1889C143.54 82.9368 143.533 82.6619 143.442 82.415C143.35 82.1682 143.181 81.9662 142.964 81.8465Z"
          fill="white"/>
    <path d="M54.5928 123.285C53.634 122.172 52.5273 121.225 51.3105 120.477C51.1759 120.404 51.0235 120.381 50.8761 120.412C50.7287 120.442 50.5943 120.525 50.4933 120.647C50.3922 120.769 50.3298 120.923 50.3156 121.088C50.3014 121.252 50.3361 121.417 50.4145 121.557C51.3086 122.683 52.2612 123.75 53.2674 124.754C54.0151 125.566 54.7353 126.897 55.8699 126.903C55.944 126.908 56.0184 126.898 56.0889 126.872C56.1593 126.846 56.2245 126.806 56.2806 126.752C56.3367 126.698 56.3826 126.633 56.4157 126.56C56.4489 126.487 56.4686 126.407 56.4737 126.326C56.6339 125.073 55.3862 124.135 54.5928 123.285Z"
          fill="#6E3627"/>
    <path d="M58.2179 129.864C58.0293 129.827 57.8347 129.865 57.6694 129.971C57.504 130.078 57.3788 130.246 57.3166 130.445C57.2543 130.645 57.259 130.862 57.3299 131.058C57.4008 131.254 57.5332 131.415 57.703 131.513C57.8916 131.55 58.0862 131.513 58.2516 131.406C58.4169 131.3 58.5421 131.131 58.6044 130.932C58.6666 130.733 58.6619 130.515 58.591 130.319C58.5201 130.124 58.3877 129.962 58.2179 129.864Z"
          fill="#6E3627"/>
    <path d="M51.8203 133.949C51.7749 132.491 50.5951 131.707 49.6353 130.772C48.4931 129.62 47.3159 128.519 46.1624 127.341C45.4767 126.701 44.4758 127.932 45.1034 128.636C46.2047 129.857 47.312 131.059 48.4483 132.23C49.2761 133.093 50.1407 134.394 51.3737 134.331C51.4764 134.332 51.5764 134.295 51.6575 134.226C51.7386 134.156 51.7959 134.059 51.8203 133.949Z"
          fill="#6E3627"/>
    <path d="M67.7107 135.847C67.8187 133.969 67.5818 132.085 67.0141 130.309C66.9655 130.125 66.855 129.967 66.705 129.868C66.555 129.769 66.3765 129.736 66.2054 129.776C66.0343 129.816 65.8833 129.926 65.7829 130.084C65.6824 130.241 65.6398 130.435 65.6638 130.625C65.8753 132.416 65.8911 134.228 65.7108 136.023C65.3416 137.37 65.2666 138.793 65.4917 140.177C65.5152 140.252 65.5538 140.32 65.6047 140.376C65.6556 140.432 65.7175 140.474 65.7856 140.5C65.8537 140.526 65.9262 140.534 65.9976 140.524C66.0691 140.515 66.1376 140.487 66.1979 140.444C66.7448 139.849 67.1643 139.128 67.426 138.333C67.6877 137.538 67.785 136.689 67.7107 135.847Z"
          fill="#6E3627"/>
    <path d="M69.9712 158.941C69.0818 157.165 67.8217 155.651 67.0427 153.768C66.3052 151.846 65.863 149.804 65.7341 147.723C65.84 147.622 65.9199 147.492 65.9656 147.345C66.0114 147.199 66.0214 147.042 65.9946 146.891C65.9679 146.739 65.9054 146.598 65.8133 146.481C65.7213 146.364 65.6029 146.276 65.4702 146.226C65.3196 146.18 65.1605 146.181 65.0106 146.229C64.8607 146.278 64.7262 146.371 64.6221 146.499C64.518 146.628 64.4485 146.785 64.4215 146.954C64.3945 147.124 64.4111 147.298 64.4693 147.457C63.8746 151.765 65.4711 157.813 69.3717 159.689C69.4635 159.723 69.5622 159.727 69.6557 159.699C69.7492 159.671 69.8332 159.614 69.8972 159.534C69.9612 159.454 70.0023 159.356 70.0155 159.25C70.0287 159.145 70.0132 159.037 69.9712 158.941Z"
          fill="#6E3627"/>
    <path d="M74.6542 165.711C74.3974 164.886 73.8883 164.184 73.2137 163.726C72.5215 163.168 71.7617 164.491 72.4781 164.91C73.0196 165.27 73.5377 165.671 74.0288 166.11C74.3265 166.328 74.7548 166.067 74.6542 165.711Z"
          fill="#6E3627"/>
    <path d="M50.4935 140.355C49.4654 139.416 48.2826 138.703 47.0095 138.255C45.5358 137.486 44.0911 136.686 42.6115 135.936C42.4936 135.893 42.3658 135.893 42.2482 135.938C42.1306 135.982 42.0296 136.068 41.961 136.183C41.8924 136.297 41.86 136.433 41.8689 136.569C41.8777 136.706 41.9273 136.835 42.0099 136.937C43.917 138.908 47.4523 141.769 50.3079 141.196C50.3842 141.171 50.4531 141.125 50.5079 141.061C50.5627 140.998 50.6014 140.919 50.6202 140.834C50.639 140.749 50.6371 140.66 50.6149 140.576C50.5927 140.492 50.5508 140.416 50.4935 140.355Z"
          fill="#6E3627"/>
    <path d="M315.234 216.179C312.418 216.132 309.583 219.043 307.535 220.853C304.199 223.828 301.176 227.092 296.961 228.443C296.887 228.307 296.783 228.195 296.658 228.117C291.805 225.491 286.826 223.157 281.743 221.124C276.914 218.637 271.8 216.882 266.542 215.908C265.707 215.805 265.395 217.36 266.24 217.552C276.691 219.913 285.735 226.467 295.86 229.87C296.021 229.918 296.19 229.915 296.349 229.863C296.508 229.811 296.651 229.711 296.761 229.575C296.818 229.641 296.888 229.691 296.966 229.72C297.044 229.75 297.128 229.758 297.209 229.744C300.447 228.701 303.464 226.962 306.087 224.626C307.583 223.349 309.029 221.989 310.565 220.769C312.314 219.703 313.982 218.485 315.554 217.126C315.804 216.818 315.695 216.184 315.234 216.179Z"
          fill="#6E3627"/>
    <path d="M323.078 220.966C321.134 220.04 319.258 221.916 317.654 222.919C315.239 224.485 312.53 225.452 309.996 226.846C309.896 226.912 309.819 227.015 309.78 227.136C309.74 227.258 309.74 227.39 309.779 227.512C309.817 227.633 309.893 227.736 309.993 227.804C310.093 227.871 310.211 227.899 310.327 227.882C314.82 226.662 319.125 224.72 323.103 222.119C323.231 222.099 323.348 222.028 323.431 221.919C323.514 221.811 323.559 221.672 323.556 221.53C323.552 221.388 323.502 221.253 323.414 221.149C323.326 221.045 323.207 220.98 323.078 220.966Z"
          fill="#6E3627"/>
    <path d="M329.435 227.308C327.385 226.533 324.915 227.908 322.95 228.649C320.228 229.72 317.605 231.077 315.119 232.7C314.996 232.766 314.902 232.883 314.857 233.025C314.813 233.167 314.822 233.323 314.882 233.458C314.942 233.593 315.048 233.696 315.177 233.745C315.306 233.794 315.448 233.784 315.571 233.718C318.126 232.566 320.819 231.465 323.546 230.378C325.453 229.7 328.063 229.48 329.597 227.962C329.63 227.909 329.653 227.849 329.663 227.785C329.673 227.721 329.671 227.656 329.655 227.593C329.64 227.531 329.612 227.473 329.574 227.424C329.536 227.374 329.489 227.335 329.435 227.308Z"
          fill="#6E3627"/>
    <path d="M336.637 283.409C336.614 283.291 336.564 283.181 336.491 283.091C336.418 283 336.325 282.932 336.221 282.892C336.117 282.853 336.005 282.844 335.897 282.866C335.789 282.888 335.688 282.941 335.604 283.019C334.073 284.283 333.696 286.661 332.719 288.431C331.482 290.658 330.001 292.709 328.308 294.538C328.146 294.69 328.045 294.907 328.028 295.141C328.011 295.375 328.079 295.607 328.217 295.785C328.355 295.964 328.552 296.075 328.765 296.094C328.978 296.112 329.188 296.038 329.351 295.885C331.453 294.281 333.248 292.24 334.636 289.876C335.7 288.075 337.217 285.62 336.637 283.409Z"
          fill="#6E3627"/>
</svg>