<svg width="64" height="53" viewBox="0 0 64 53" fill="none" xmlns="http://www.w3.org/2000/svg">
    <ellipse cx="38" cy="26.5" rx="26" ry="26.5" fill="#FF6202"/>
    <path d="M50.2607 16.6531C52.8712 19.022 54.6127 22.3512 55.1626 26.0242C56.02 32.0994 54.912 38.1983 48.3578 41.5596C41.0539 45.322 34.9965 41.6596 32.7305 38.9036C30.3518 35.9526 29.0726 32.1231 29.1486 28.18C29.3131 20.7846 35.7726 15.3319 42.0341 14.414C44.7556 14.0126 48.0376 14.8382 50.2607 16.6531Z"
          fill="#FBC6A5"/>
    <path d="M41.4688 17.2464C40.615 18.4589 39.6591 19.5799 38.7855 20.7789C37.2977 22.7998 36.3528 25.2377 36.0574 27.8177C35.5823 31.3259 35.8045 36.7547 33.6268 39.8423C33.309 39.5521 33.0096 39.2385 32.7307 38.9035C30.3519 35.9525 29.0728 32.1231 29.1487 28.1799C29.3132 20.7846 35.7728 15.3318 42.0342 14.414C42.4979 14.3483 42.9649 14.316 43.4324 14.3174C42.7476 15.2642 42.1382 16.2937 41.4688 17.2464Z"
          fill="#FAB88E"/>
    <path d="M46.5863 26.7335C46.5583 27.7975 46.6295 29.2528 47.2744 30.1163C47.8669 30.906 49.0403 30.2815 49.5359 31.0924C50.2243 32.2131 48.2096 33.6031 47.3775 32.8419C47.3511 32.8189 47.3322 32.7869 47.324 32.7509C47.3157 32.7149 47.3185 32.6769 47.3319 32.6428C47.3452 32.6088 47.3684 32.5805 47.3979 32.5624C47.4274 32.5443 47.4614 32.5374 47.4948 32.5427C48.0282 32.608 48.5263 32.6214 48.9224 32.1508C49.725 31.2043 48.7243 31.1053 48.1973 30.9987C47.7128 30.93 47.27 30.6618 46.9581 30.2482C46.6213 29.7367 46.3907 29.1502 46.2824 28.53C46.1741 27.9098 46.1909 27.2711 46.3314 26.6588C46.3788 26.4905 46.5847 26.588 46.5826 26.734L46.5863 26.7335Z"
          fill="#DE956D"/>
    <path d="M40.585 28.106C40.9341 27.2169 42.1077 26.5277 43.051 27.1322C43.2816 27.2748 43.4879 27.4605 43.6606 27.6808C44.058 28.1654 44.3033 28.7776 44.3603 29.4272C44.4613 30.328 44.128 31.7855 43.2838 32.1307C41.2926 32.9429 39.8853 29.8721 40.585 28.106Z"
          fill="white"/>
    <path d="M43.8433 27.8988C44.1478 28.3426 44.3343 28.8707 44.3822 29.4242C44.4187 29.9457 44.3519 30.4698 44.1864 30.9601C43.9986 31.1804 43.7527 31.3303 43.4833 31.3886C43.214 31.4469 42.9348 31.4107 42.6851 31.2851C41.8621 30.8019 41.7308 29.5652 42.0012 28.6949C42.0721 28.5073 42.1766 28.3374 42.3085 28.1952C42.4404 28.053 42.5969 27.9414 42.7688 27.8671C42.9407 27.7928 43.1244 27.7574 43.309 27.7628C43.4936 27.7683 43.6753 27.8145 43.8433 27.8988Z"
          fill="#541301"/>
    <path d="M42.6911 28.5164C42.804 28.5123 42.9143 28.5549 43.0002 28.6357C43.0861 28.7165 43.1414 28.8298 43.1553 28.9532C43.1691 29.0766 43.1405 29.2013 43.075 29.3026C43.0095 29.404 42.9119 29.4747 42.8014 29.501C42.6884 29.5051 42.5781 29.4625 42.4922 29.3817C42.4063 29.3008 42.351 29.1876 42.3372 29.0642C42.3234 28.9407 42.352 28.8161 42.4175 28.7147C42.483 28.6134 42.5806 28.5426 42.6911 28.5164Z"
          fill="white"/>
    <path d="M43.7576 30.1199C43.8248 30.1107 43.8927 30.1314 43.9461 30.1773C43.9995 30.2231 44.0342 30.2905 44.0425 30.3645C44.0508 30.4385 44.032 30.5131 43.9903 30.5719C43.9486 30.6306 43.8874 30.6688 43.8201 30.6779C43.7528 30.687 43.685 30.6664 43.6316 30.6205C43.5781 30.5746 43.5435 30.5073 43.5352 30.4333C43.5269 30.3593 43.5457 30.2847 43.5874 30.2259C43.6291 30.1671 43.6903 30.129 43.7576 30.1199Z"
          fill="white"/>
    <path d="M49.4113 26.3706C49.7604 25.4816 50.934 24.7923 51.8773 25.3968C52.1098 25.5378 52.3175 25.7235 52.4905 25.945C52.8873 26.43 53.1324 27.042 53.1902 27.6913C53.2912 28.5922 52.9584 30.0537 52.1137 30.3948C50.1189 31.2076 48.7125 28.1448 49.4113 26.3706Z"
          fill="white"/>
    <path d="M52.6699 26.1673C52.9747 26.6094 53.1611 27.1363 53.2083 27.6887C53.2503 28.208 53.1898 28.7311 53.0307 29.2222C52.8429 29.4425 52.597 29.5923 52.3276 29.6507C52.0583 29.709 51.779 29.6728 51.5294 29.5472C50.7064 29.0639 50.5751 27.8272 50.8455 26.957C50.9167 26.772 51.0207 26.6046 51.1514 26.4644C51.2822 26.3242 51.437 26.2142 51.6069 26.1406C51.7768 26.0671 51.9584 26.0316 52.1409 26.0362C52.3234 26.0407 52.5033 26.0853 52.6699 26.1673Z"
          fill="#541301"/>
    <path d="M51.5321 26.7831C51.6503 26.7671 51.7694 26.8034 51.8633 26.884C51.9572 26.9646 52.0182 27.0829 52.0327 27.2129C52.0473 27.343 52.0143 27.4741 51.941 27.5773C51.8677 27.6806 51.7602 27.7477 51.642 27.7637C51.5237 27.7797 51.4046 27.7434 51.3107 27.6628C51.2168 27.5822 51.1559 27.4639 51.1413 27.3338C51.1267 27.2038 51.1597 27.0727 51.233 26.9694C51.3063 26.8662 51.4139 26.7991 51.5321 26.7831Z"
          fill="white"/>
    <path d="M52.5798 28.3855C52.6471 28.3763 52.7149 28.397 52.7684 28.4429C52.8218 28.4888 52.8565 28.5561 52.8648 28.6301C52.8731 28.7041 52.8543 28.7787 52.8126 28.8375C52.7709 28.8963 52.7096 28.9344 52.6424 28.9435C52.5751 28.9526 52.5073 28.932 52.4538 28.8861C52.4004 28.8402 52.3657 28.7729 52.3574 28.6989C52.3491 28.6249 52.3679 28.5503 52.4096 28.4915C52.4513 28.4327 52.5126 28.3946 52.5798 28.3855Z"
          fill="white"/>
    <path d="M52.3681 24.3956C52.1471 24.0352 51.8459 23.7431 51.4931 23.5471C51.3265 23.4588 51.1422 23.4183 50.9576 23.4295C50.783 23.4735 50.6033 23.4869 50.4249 23.4694C50.4068 23.4664 50.3896 23.459 50.3744 23.4477C50.3593 23.4363 50.3468 23.4213 50.3377 23.4038C50.3287 23.3863 50.3234 23.3668 50.3222 23.3467C50.321 23.3266 50.324 23.3065 50.331 23.2879C50.5255 22.8244 51.1581 22.8884 51.5206 23.0375C51.9949 23.27 52.3877 23.6654 52.6402 24.1645C52.759 24.3709 52.4928 24.5891 52.3645 24.3961L52.3681 24.3956Z"
          fill="#541301"/>
    <path d="M41.6289 25.1442C41.3903 25.1929 41.1628 25.293 40.9595 25.4386C40.7561 25.5842 40.5809 25.7726 40.4438 25.9929C40.2163 26.3596 40.1575 26.9179 39.8424 27.1913C39.8273 27.2041 39.8098 27.2128 39.7912 27.217C39.7726 27.2211 39.7533 27.2205 39.735 27.2152C39.7166 27.2098 39.6996 27.1999 39.6852 27.1862C39.6709 27.1726 39.6596 27.1554 39.6522 27.1362C39.4556 26.6287 39.848 25.8956 40.1402 25.5161C40.3202 25.2822 40.5412 25.0906 40.7899 24.9526C41.0386 24.8146 41.31 24.7331 41.5879 24.7128C41.6398 24.7057 41.6921 24.7216 41.7334 24.757C41.7746 24.7924 41.8013 24.8444 41.8077 24.9015C41.8141 24.9586 41.7996 25.0161 41.7675 25.0614C41.7353 25.1068 41.6881 25.1362 41.6362 25.1433L41.6289 25.1442Z"
          fill="#541301"/>
    <path d="M51.5065 34.8924C51.5065 34.8924 49.6608 35.952 46.7141 35.8214C43.7675 35.6909 41.1263 33.9852 41.1263 33.9852C41.1263 33.9852 42.2837 40.4729 46.5892 40.1886C51.5251 39.8511 51.5065 34.8924 51.5065 34.8924Z"
          fill="#6B2916"/>
    <path d="M48.9497 36.5664C48.1639 36.7164 47.3641 36.7582 46.5688 36.691C45.8217 36.6697 45.0827 36.5157 44.3803 36.2351C43.5531 35.8131 43.4191 35.5035 43.3777 35.068C44.4529 35.4947 45.5778 35.7509 46.7187 35.829C47.9945 35.8929 49.2711 35.7198 50.4946 35.3169C50.3528 35.6508 50.137 35.9402 49.8671 36.1585C49.5972 36.3768 49.2818 36.5171 48.9497 36.5664Z"
          fill="white"/>
    <path d="M44.1304 37.3536C44.6531 37.8543 45.0443 38.4999 45.2633 39.2233C45.3322 39.4938 45.3708 39.7726 45.3785 40.0534C43.5301 39.5797 42.4202 37.7514 41.7994 36.2169C42.6609 36.3362 43.4715 36.7315 44.1304 37.3536Z"
          fill="#DC3231"/>
    <path d="M44.6794 17.8633C44.6794 17.8633 40.7241 16.6434 37.2984 22.579C33.8728 28.5147 36.8495 34.4279 28.2881 38.984C19.4109 43.7084 8.75546 38.278 3.98556 31.398C-0.784342 24.518 2.55 19.0479 2.55 19.0479C2.64662 20.2684 3.08439 21.426 3.80318 22.3618C4.52197 23.2976 5.48652 23.9656 6.56434 24.2742C10.5804 25.4777 12.7247 23.7342 12.7247 23.7342C12.7247 23.7342 8.74199 21.7775 9.96254 17.3386C10.8151 14.2447 13.9033 13.6033 13.9033 13.6033C13.9033 13.6033 11.464 16.0627 14.7622 19.3303C18.0604 22.5979 20.2801 22.1512 25.4029 18.721C27.952 17.0116 30.3841 12.8132 36.4929 10.7627C43.8097 8.29751 49.677 12.4955 52.0042 15.7977C55.7629 21.1395 54.9965 25.0675 54.9965 25.0675C54.9965 25.0675 52.2954 18.3966 48.9521 17.0897C45.6087 15.7827 44.6794 17.8633 44.6794 17.8633Z"
          fill="#995322"/>
    <g style="mix-blend-mode:soft-light" opacity="0.7">
        <g style="mix-blend-mode:soft-light" opacity="0.7">
            <path d="M1.86975 21.6733C2.30801 22.925 2.58037 24.272 3.22121 25.4274C3.97136 26.7704 5.17761 27.7844 6.33104 28.6882C8.82291 30.6367 11.7061 31.9736 14.8102 31.9007C17.8373 31.8302 20.5762 30.435 22.941 28.4268C25.3058 26.4187 27.059 23.9755 29.1538 21.7571C31.3101 19.4451 34.1082 17.9943 37.1018 17.6362C37.145 17.6304 37.1886 17.6436 37.223 17.6731C37.2573 17.7026 37.2796 17.7459 37.2849 17.7935C37.2903 17.8411 37.2782 17.889 37.2514 17.9268C37.2246 17.9646 37.1852 17.9891 37.142 17.995C33.8806 18.4372 31.0379 20.2188 28.7736 22.7961C26.6654 25.1903 24.7056 27.6938 22.1761 29.5786C19.9344 31.3233 17.265 32.2806 14.5192 32.3246C11.6408 32.3103 8.97971 31.1496 6.61115 29.415C5.31649 28.4656 3.93333 27.3502 3.05745 25.9029C2.30849 24.669 1.96564 23.2182 1.62502 21.7874C1.58363 21.6149 1.80617 21.4998 1.86975 21.6733Z"
                  fill="#D3B5A0"/>
        </g>
        <g style="mix-blend-mode:soft-light" opacity="0.7">
            <path d="M46.5222 12.9032C47.6414 12.4844 49.0083 12.1088 50.2037 12.2381C50.2214 12.2415 50.2377 12.2511 50.2501 12.2654C50.2625 12.2798 50.2704 12.2981 50.2726 12.3178C50.2748 12.3374 50.2712 12.3573 50.2623 12.3746C50.2535 12.3918 50.2398 12.4054 50.2234 12.4135C48.292 13.1691 45.0749 12.8243 44.1607 15.3682C44.0957 15.5429 43.8622 15.4289 43.92 15.2552C44.3417 13.9961 45.417 13.3161 46.5222 12.9032Z"
                  fill="#D3B5A0"/>
        </g>
        <g style="mix-blend-mode:soft-light" opacity="0.7">
            <path d="M42.878 9.04225C42.6632 10.0143 42.2443 10.9371 41.9847 11.8706C41.6621 13.029 41.5252 14.2402 41.5802 15.4501C41.5835 15.4797 41.576 15.5096 41.5593 15.5331C41.5426 15.5566 41.5181 15.5719 41.4912 15.5755C41.4643 15.5792 41.4372 15.5709 41.4158 15.5526C41.3944 15.5342 41.3806 15.5073 41.3772 15.4777C41.0996 13.2007 41.5833 10.8903 42.7382 8.97623C42.7476 8.95849 42.7627 8.94515 42.7804 8.93872C42.7982 8.93229 42.8174 8.93322 42.8346 8.94133C42.8518 8.94944 42.8657 8.96417 42.8737 8.98276C42.8817 9.00134 42.8832 9.0225 42.878 9.04225Z"
                  fill="#D3B5A0"/>
        </g>
        <g style="mix-blend-mode:soft-light" opacity="0.7">
            <path d="M39.2476 15.1515C39.4072 15.2958 39.2126 15.5609 39.0506 15.4291C37.9564 14.4794 36.6653 13.8426 35.2928 13.5754C34.0233 13.3429 32.8098 13.5439 31.5418 13.5216C31.4186 13.5383 31.4076 13.3091 31.5127 13.2625C32.7494 12.7427 34.3538 12.8772 35.6245 13.1865C36.9602 13.5054 38.2043 14.1802 39.2476 15.1515Z"
                  fill="#D3B5A0"/>
        </g>
        <g style="mix-blend-mode:soft-light" opacity="0.7">
            <path d="M38.6802 11.9959C38.1412 11.1908 37.4144 10.5488 36.9103 9.69456C36.8955 9.66962 36.889 9.6398 36.892 9.61019C36.895 9.58058 36.9072 9.55302 36.9266 9.53223C36.946 9.51144 36.9713 9.4987 36.9983 9.4962C37.0253 9.4937 37.0522 9.50159 37.0745 9.51852C38.6893 10.7968 39.9871 12.9558 40.0892 15.1798C40.1128 15.391 39.8016 15.4373 39.7884 15.2205C39.7137 14.0496 39.3284 12.9284 38.6802 11.9959Z"
                  fill="#D3B5A0"/>
        </g>
        <g style="mix-blend-mode:soft-light" opacity="0.7">
            <path d="M47.4492 10.6366C47.5384 10.6447 47.5639 10.8072 47.4715 10.8359C46.3632 11.1885 45.4139 11.5803 44.6348 12.5398C43.9503 13.4074 43.4376 14.4224 43.1294 15.52C43.067 15.7186 42.7987 15.5891 42.8574 15.3909C43.468 13.2564 45.0747 10.392 47.4492 10.6366Z"
                  fill="#D3B5A0"/>
        </g>
        <g style="mix-blend-mode:soft-light" opacity="0.7">
            <path d="M46.5895 15.8676C48.1874 15.485 49.8111 15.9892 51.255 16.7606C52.6093 17.4874 54.2417 18.5286 55.1222 19.9187C55.139 19.9379 55.1481 19.9636 55.1477 19.9902C55.1472 20.0168 55.1371 20.0422 55.1197 20.0606C55.1022 20.0791 55.0788 20.0892 55.0546 20.0887C55.0304 20.0882 55.0074 20.0771 54.9906 20.0579C53.7136 19.102 52.6376 17.9692 51.2267 17.1974C49.8158 16.4256 48.2167 15.8776 46.627 16.2025C46.43 16.2494 46.3961 15.9141 46.5895 15.8676Z"
                  fill="#D3B5A0"/>
        </g>
        <g style="mix-blend-mode:soft-light" opacity="0.7">
            <path d="M4.46179 29.1113C5.91215 31.8768 8.84959 33.2712 11.415 34.4974C14.0325 35.7612 16.7274 36.4357 19.5931 36.1726C22.6668 35.8934 25.3742 34.5793 27.3094 31.8889C29.3485 29.0751 30.8725 25.8334 32.8388 22.9607C34.4846 20.5443 36.7212 17.3921 39.7338 17.3235C39.886 17.3029 39.9241 17.5769 39.7638 17.5906C36.5823 17.9249 34.3498 21.3435 32.6194 23.9576C31.6434 25.4254 30.7227 26.9261 29.8128 28.4578C28.8451 30.1308 27.8729 31.861 26.5886 33.2694C22.6578 37.5861 16.1982 37.1631 11.4728 34.9145C8.91596 33.6992 5.52903 32.1675 4.21612 29.2498C4.18237 29.1128 4.39135 28.9752 4.46179 29.1113Z"
                  fill="#D3B5A0"/>
        </g>
        <g style="mix-blend-mode:soft-light" opacity="0.7">
            <path d="M23.3305 38.47C24.381 37.9957 25.3623 37.7575 26.3158 37.009C27.1819 36.3058 27.9397 35.4544 28.5605 34.487C29.7875 32.6332 30.6078 30.4986 31.4502 28.4298C33.0142 24.4098 35.4375 20.8647 38.5142 18.0958C38.6343 17.9864 38.7798 18.2014 38.6592 18.3068C36.9133 19.8606 35.3829 21.6863 34.1162 23.7262C32.889 25.7096 32.0379 27.8645 31.1451 30.0413C30.3392 32.008 29.453 34.014 28.1665 35.6654C27.0117 37.1453 25.2232 38.6504 23.3484 38.6295C23.289 38.6254 23.2467 38.5097 23.3305 38.47Z"
                  fill="#D3B5A0"/>
        </g>
        <g style="mix-blend-mode:soft-light" opacity="0.7">
            <path d="M22.6246 24.8844C24.4149 23.6259 26.0738 22.1465 27.7715 20.7509C29.2135 19.5679 30.8095 18.3155 32.6214 18.0699C32.6543 18.0713 32.6856 18.0855 32.7098 18.1101C32.734 18.1346 32.7495 18.1678 32.7536 18.2037C32.7576 18.2396 32.7499 18.2759 32.7318 18.3062C32.7137 18.3364 32.6865 18.3586 32.6549 18.3688C30.3574 18.6804 28.4588 20.5808 26.6862 22.0635C24.7753 23.658 22.8823 25.412 20.6639 26.4614C18.6299 27.4349 16.399 27.803 14.1948 27.5289C12.7006 27.3268 10.9157 26.8283 10.2004 25.2055C10.1413 25.0718 10.3272 24.9576 10.4067 25.0763C11.5814 26.8271 13.656 27.1851 15.5172 27.216C18.0426 27.22 20.5137 26.4093 22.6246 24.8844Z"
                  fill="#D3B5A0"/>
        </g>
        <g style="mix-blend-mode:soft-light" opacity="0.7">
            <path d="M34.6358 16.6755C32.2205 15.5746 29.71 16.9388 27.6274 18.2815C25.7783 19.4751 24.0458 20.8228 22.0698 21.7706C20.0938 22.7184 17.8881 23.4546 15.7367 23.0341C13.8067 22.6524 11.8525 21.2016 11.3509 19.0237C10.789 16.6031 12.0879 13.914 13.7835 12.4336C13.911 12.3232 14.1027 12.5239 13.9897 12.6646C13.0205 13.8644 12.101 15.1464 11.7761 16.7444C11.5874 17.5876 11.6288 18.4733 11.8951 19.2908C12.1614 20.1083 12.6408 20.8213 13.2734 21.3407C15.6623 23.4205 18.8506 22.7859 21.4569 21.6191C23.8007 20.5728 25.8072 18.9451 27.9971 17.6081C30.0392 16.3641 32.435 15.3877 34.7017 16.5088C34.7119 16.5235 34.7183 16.541 34.7202 16.5594C34.7222 16.5777 34.7197 16.5963 34.713 16.6133C34.7063 16.6303 34.6956 16.645 34.6821 16.6559C34.6685 16.6668 34.6526 16.6736 34.6358 16.6755Z"
                  fill="#D3B5A0"/>
        </g>
    </g>
    <g style="mix-blend-mode:multiply">
        <path d="M53.1115 19.9326C53.713 20.5342 54.277 21.1796 54.7995 21.8646C55.0642 22.9087 55.1316 24.0014 54.9975 25.0752C54.9975 25.0752 52.7598 19.5514 49.8341 17.5727C51.0435 18.1427 52.1527 18.9415 53.1115 19.9326Z"
              fill="#DBC3B2"/>
    </g>
    <g style="mix-blend-mode:multiply">
        <path d="M5.99183 31.2754C9.83281 34.3966 14.4995 36.2525 19.2947 35.5779C21.7331 35.2954 24.054 34.2807 26.0035 32.6448C28.042 30.8428 29.3596 28.3535 30.7952 25.9979C33.4467 21.6564 37.2835 18.4046 41.8529 18.1451C40.5034 18.6761 38.8485 19.896 37.2987 22.5787C33.8772 28.5179 36.8498 34.4276 28.2884 38.9837C19.4112 43.7081 8.75578 38.2777 3.98588 31.3977C3.01867 30.0438 2.28743 28.5048 1.82906 26.8584C3.02502 28.5347 4.42587 30.0211 5.99183 31.2754Z"
              fill="#E7D6CA"/>
    </g>
    <g style="mix-blend-mode:multiply">
        <path d="M46.1094 22.7439C44.2475 20.6021 41.7219 19.3081 39.0334 19.1185C33.6884 18.6293 32.0577 20.0644 32.0577 20.0644C32.0577 20.0644 30.6096 18.2051 33.0766 17.1421C37.9314 14.9689 43.1603 13.9932 48.3949 14.2839C53.3371 14.593 52.3528 16.7741 52.3528 16.7741C52.3528 16.7741 50.9758 16.9609 48.7937 18.5638C46.806 20.0312 46.1094 22.7439 46.1094 22.7439Z"
              fill="#E8EDEB"/>
    </g>
    <path d="M46.1754 22.2814C44.3146 20.1361 41.7884 18.8392 39.0985 18.648C33.7572 18.1583 32.1228 19.594 32.1228 19.594C32.1228 19.594 30.6779 17.7301 33.1413 16.6677C38.4262 14.389 43.5206 13.4959 48.4632 13.809C53.4059 14.1221 52.4216 16.3032 52.4216 16.3032C52.4216 16.3032 51.0445 16.4899 48.862 18.0889C46.8725 19.5727 46.1754 22.2814 46.1754 22.2814Z"
          fill="#FFCF38"/>
    <path d="M44.4213 18.707C44.5062 19.4643 45.0352 20.0158 45.6005 19.9391C46.1658 19.8625 46.5608 19.1857 46.4759 18.4284C46.3911 17.671 45.8621 17.1195 45.2931 17.1967C44.7242 17.2738 44.3351 17.9377 44.4213 18.707Z"
          fill="#FF7824"/>
    <path d="M51.1666 14.7256C51.7093 14.6763 52.1078 15.5732 51.9648 16.0701C51.9152 16.2509 51.6729 16.223 51.6152 16.069C51.5631 15.8623 51.4889 15.6632 51.3942 15.4757C51.2826 15.3007 51.1089 15.1947 51.0181 15.0088C51.0076 14.9795 51.0033 14.9481 51.0054 14.9167C51.0075 14.8854 51.016 14.855 51.0303 14.8278C51.0446 14.8005 51.0642 14.7772 51.0879 14.7595C51.1115 14.7418 51.1384 14.7302 51.1666 14.7256Z"
          fill="white"/>
    <path d="M50.3894 14.6164C50.4374 14.6099 50.4859 14.6246 50.524 14.6574C50.5622 14.6901 50.587 14.7382 50.5929 14.7911C50.5988 14.844 50.5854 14.8972 50.5556 14.9392C50.5258 14.9812 50.4821 15.0085 50.434 15.015C50.386 15.0215 50.3375 15.0067 50.2994 14.974C50.2612 14.9412 50.2364 14.8931 50.2305 14.8402C50.2246 14.7874 50.238 14.7341 50.2678 14.6921C50.2976 14.6501 50.3413 14.6229 50.3894 14.6164Z"
          fill="white"/>
    <path d="M37.7153 18.0915C39.0755 17.6237 40.9123 18.2892 42.2258 18.7505C42.3675 18.8001 42.2991 19.0764 42.1543 19.0313C41.3867 18.803 40.6046 18.6385 39.8146 18.5392C39.1236 18.4468 38.3817 18.5231 37.7172 18.3057C37.6914 18.306 37.6665 18.2949 37.6481 18.2751C37.6296 18.2552 37.6191 18.228 37.6189 18.1996C37.6186 18.1712 37.6286 18.1439 37.6467 18.1236C37.6648 18.1033 37.6895 18.0917 37.7153 18.0915Z"
          fill="white"/>
    <path d="M35.3263 18.1768C35.4132 18.1 35.5085 18.0354 35.6101 17.9846C35.8385 17.8565 35.9881 18.338 35.7018 18.3768C35.5959 18.4032 35.4879 18.4179 35.3793 18.4205C35.3529 18.4208 35.3271 18.4113 35.3062 18.3933C35.2853 18.3754 35.2706 18.3503 35.2645 18.3219C35.2583 18.2936 35.2611 18.2639 35.2723 18.2375C35.2835 18.2111 35.3025 18.1897 35.3263 18.1768Z"
          fill="white"/>
    <path d="M31.8398 18.1556C31.8671 18.071 31.9407 17.972 32.0348 17.9916C32.129 18.0112 32.1379 18.1233 32.1645 18.1966C32.3034 18.5824 32.6541 18.462 32.9196 18.3694C33.1353 18.2916 33.2738 18.641 33.0558 18.7313C32.9186 18.814 32.7673 18.8647 32.6114 18.8803C32.4556 18.8959 32.2985 18.8759 32.1499 18.8218C32.0349 18.7692 31.9405 18.6733 31.8837 18.5513C31.8269 18.4293 31.8114 18.2891 31.8398 18.1556Z"
          fill="white"/>
    <path d="M45.3676 17.4706C45.5344 17.5335 45.6849 17.6398 45.8063 17.7805C45.9278 17.9211 46.0165 18.0919 46.0651 18.2784C46.1535 18.5416 46.2849 19.0579 46.0269 19.2831C45.7688 19.5083 45.6857 19.0623 45.6679 18.8705C45.5906 18.4479 45.4317 18.0485 45.2019 17.6994C45.192 17.6718 45.1888 17.6419 45.1928 17.6125C45.1968 17.5832 45.2077 17.5555 45.2245 17.5323C45.2413 17.5091 45.2634 17.4911 45.2885 17.4803C45.3136 17.4695 45.3409 17.4661 45.3676 17.4706Z"
          fill="white"/>
    <path d="M45.462 19.2983C45.5106 19.2989 45.5573 19.319 45.5935 19.3546C45.6297 19.3902 45.6529 19.4391 45.6589 19.4921C45.6648 19.5452 45.6531 19.5988 45.6258 19.643C45.5986 19.6873 45.5577 19.7192 45.5107 19.7328C45.4621 19.7321 45.4154 19.7121 45.3792 19.6765C45.343 19.6408 45.3198 19.592 45.3139 19.5389C45.3079 19.4859 45.3197 19.4323 45.3469 19.388C45.3742 19.3438 45.4151 19.3119 45.462 19.2983Z"
          fill="white"/>
</svg>