<svg width="329" height="167" viewBox="0 0 329 167" fill="none" xmlns="http://www.w3.org/2000/svg">
    <path d="M187.703 67.9925L170.188 153.665C170.188 153.665 195.613 167.809 209.724 178.831C223.796 189.879 226.862 194.399 226.862 194.399C226.862 194.399 249.247 180.049 271.904 175.035C294.568 169.985 299.587 170.81 299.587 170.81L315.87 91.8311C315.87 91.8311 257.835 95.1565 245.048 92.1429C232.262 89.1293 226.464 78.6549 213.662 74.7478C200.893 70.8488 202.679 53.769 187.703 67.9925Z" fill="#FFD336"/>
    <path d="M187.703 67.992L170.188 153.664C170.188 153.664 195.613 167.809 209.724 178.83C223.796 189.879 226.862 194.399 226.862 194.399L248.141 92.6658C246.959 92.5149 245.912 92.3612 245.08 92.1505C232.294 89.1369 226.496 78.6625 213.694 74.7554C200.893 70.8484 202.678 53.7685 187.703 67.992Z" fill="#CC9814"/>
    <path opacity="0.2" d="M187.703 67.9926L185.455 79.0621C188.049 81.1642 191.653 84.0779 196.694 88.0223C213.367 101.138 240.513 129.135 240.513 129.135C240.513 129.135 250.899 121.867 266.065 115.439C277.378 110.666 301.265 108.15 312.724 107.195L315.917 91.7689C315.917 91.7689 257.881 95.0943 245.095 92.0807C232.309 89.067 226.51 78.5927 213.709 74.6856C200.893 70.8489 202.679 53.7691 187.703 67.9926Z" fill="black"/>
    <path d="M189.28 47.5604L186.102 67.1049C186.102 67.1049 202.248 75.4908 219.415 89.9543C236.582 104.418 241.124 111.387 241.124 111.387C241.124 111.387 260.598 102.898 284.607 102.377C308.584 101.847 316.274 102.793 316.274 102.793L320.896 77.7947C320.896 77.7947 285.873 70.3762 264.621 66.7396C243.394 63.1464 227.598 59.3711 189.28 47.5604Z" fill="#EAB234"/>
    <path d="M189.28 47.5615L186.102 67.106C186.102 67.106 202.248 75.4919 219.414 89.9554C236.581 104.419 241.124 111.388 241.124 111.388L246.506 85.1736C246.516 82.5446 250.495 75.2861 242.753 62.5035C229.304 59.4334 213.947 55.1759 189.28 47.5615Z" fill="#CC9814"/>
    <path d="M189.282 47.557C189.282 47.557 207.735 49.2621 226.191 46.4458C244.678 43.6376 253.702 39.6574 253.702 39.6574C253.702 39.6574 262.682 50.7146 283.301 61.567C303.927 72.3841 320.898 77.7913 320.898 77.7913C320.898 77.7913 299.478 76.8921 278.792 78.773C258.098 80.6892 246.491 85.0905 246.491 85.0905C246.491 85.0905 231.943 65.8413 189.282 47.557Z" fill="#FFD336"/>
    <path d="M188.993 166.097L213.593 59.6079L284.369 60.8042L293.47 64.9979L224.008 66.0615L198.532 173.033L188.993 166.097Z" fill="#E62129"/>
    <path d="M278.814 78.8202L215.65 46.7107L225.34 45.3456L290.681 78.0061L271.918 177.707L261.406 180.421L278.814 78.8202Z" fill="#E62129"/>
    <path d="M253.29 60.3142C253.29 60.3142 225.345 48.3861 224.959 30.5712C224.86 26.2095 226.685 22.9648 229.476 21.2249C229.478 21.3738 229.274 25.251 233.398 35.6723C237.613 46.3019 250.785 55.5289 250.785 55.5289C241.317 24.8889 229.732 21.2897 229.476 21.2249C238.006 15.8968 255.487 24.9912 253.29 60.3142Z" fill="#E62129"/>
    <path d="M253.29 60.3155C253.29 60.3155 225.345 48.3873 224.959 30.5724C224.86 26.2108 226.685 22.9661 229.476 21.2262C229.478 21.3751 229.274 25.2523 233.398 35.6735C237.613 46.3031 250.785 55.5302 250.785 55.5302L253.29 60.3155Z" fill="#AE3033"/>
    <path d="M253.29 60.3156C253.29 60.3156 283.164 63.0209 290.59 47.183C292.411 43.3075 292.059 39.5119 290.24 36.6052C290.179 36.7379 288.822 40.3234 280.972 47.7142C272.958 55.2486 257.444 57.2157 257.444 57.2157C278.134 34.2084 289.984 36.5403 290.24 36.6052C284.652 27.7037 265.316 27.4801 253.29 60.3156Z" fill="#E62129"/>
    <path d="M253.29 60.3144C253.29 60.3144 283.164 63.0197 290.589 47.1818C292.411 43.3063 292.059 39.5107 290.24 36.604C290.179 36.7367 288.822 40.3222 280.972 47.713C272.958 55.2474 257.444 57.2145 257.444 57.2145L253.29 60.3144Z" fill="#AE3033"/>
    <path d="M254.863 55.3753C258.032 56.1774 260.181 58.7969 259.673 61.2258C259.165 63.6547 256.191 64.9778 253.022 64.1757C249.852 63.3735 247.703 60.754 248.212 58.3251C248.688 55.8881 251.693 54.5731 254.863 55.3753Z" fill="#AE3033"/>
    <path d="M25.7335 113.858L59.8955 216.947C59.8955 216.947 96.0261 216.442 118.042 219.577C140.032 222.764 146.13 225.733 146.13 225.733C146.13 225.733 161.352 196.428 182.645 177.007C203.924 157.543 209.838 155.325 209.838 155.325L178.493 60.2058C178.493 60.2058 118.06 99.7041 102.427 104.372C86.7946 109.04 74.0687 101.351 57.8665 105.066C41.7037 108.771 33.0561 89.2746 25.7335 113.858Z" fill="#FFD336"/>
    <path d="M25.7327 113.858L59.8946 216.947C59.8946 216.947 96.0253 216.442 118.041 219.576C140.031 222.764 146.13 225.733 146.13 225.733L106.081 103.021C104.715 103.591 103.493 104.073 102.466 104.361C86.8333 109.029 74.1074 101.339 57.9051 105.055C41.7028 108.771 33.0553 89.2744 25.7327 113.858Z" fill="#CC9814"/>
    <path opacity="0.2" d="M25.7332 113.858L30.1635 127.169C34.2578 127.827 39.942 128.733 47.8105 129.861C73.881 133.664 120.438 147.011 120.438 147.011C120.438 147.011 127.123 132.758 139.474 116.449C148.703 104.309 172.866 86.8161 184.614 78.6965L178.505 60.1097C178.505 60.1097 118.072 99.6081 102.439 104.276C86.806 108.944 74.0802 101.255 57.8779 104.97C41.7033 108.771 33.0558 89.2746 25.7332 113.858Z" fill="black"/>
    <path d="M14.7864 90.8822L23.4605 113.894C23.4605 113.894 46.0357 112.931 73.4717 117.88C100.908 122.83 110.112 127.522 110.112 127.522C110.112 127.522 125.826 106.33 151.356 90.9097C176.846 75.5007 185.712 71.7594 185.712 71.7594L175.218 41.9817C175.218 41.9817 132.915 55.6692 107.781 64.906C82.7004 74.1742 63.3559 79.8847 14.7864 90.8822Z" fill="#EAB234"/>
    <path d="M14.7869 90.8833L23.4609 113.895C23.4609 113.895 46.0361 112.932 73.4721 117.882C100.908 122.831 110.112 127.524 110.112 127.524L99.6839 95.966C98.0682 93.1287 97.8605 82.8504 81.6125 73.8784C65.2316 78.8957 46.0601 83.816 14.7869 90.8833Z" fill="#CC9814"/>
    <path d="M14.7864 90.8768C14.7864 90.8768 35.7116 81.2923 53.8406 66.838C72.0091 52.3727 79.2625 42.5022 79.2625 42.5022C79.2625 42.5022 95.775 48.8506 124.693 47.7752C153.598 46.6573 175.218 41.9764 175.218 41.9764C175.218 41.9764 151.597 54.2646 130.487 69.0927C109.39 83.9632 99.6162 95.8856 99.6162 95.8856C99.6162 95.8856 72.0385 84.1622 14.7864 90.8768Z" fill="#FFD336"/>
    <path d="M87.8384 218.695L48.4217 88.807L125.371 46.2927L137.766 45.1759L63.6301 89.3104L102.402 220.261L87.8384 218.695Z" fill="#E62129"/>
    <path d="M130.54 69.1294L42.6544 73.6464L52.244 66.1791L142.814 60.908L184.313 179.875L174.674 189.303L130.54 69.1294Z" fill="#E62129"/>
    <path d="M91.6036 64.9996C91.6036 64.9996 54.1312 69.4506 42.6898 50.5072C39.8839 45.872 39.8407 41.2489 41.7691 37.648C41.864 37.8068 44.0437 42.108 54.9338 50.777C66.0512 59.6139 85.9448 61.3973 85.9448 61.3973C56.7868 34.2651 42.085 37.5593 41.7691 37.648C47.6571 26.6314 72.1083 25.6053 91.6036 64.9996Z" fill="#E62129"/>
    <path d="M91.6038 65.0006C91.6038 65.0006 54.1315 69.4516 42.6901 50.5082C39.8841 45.873 39.8409 41.2499 41.7694 37.6491C41.8643 37.8078 44.044 42.1091 54.9341 50.778C66.0515 59.6149 85.9451 61.3983 85.9451 61.3983L91.6038 65.0006Z" fill="#AE3033"/>
    <path d="M91.6044 65.0005C91.6044 65.0005 125.446 49.4247 123.639 27.7756C123.203 22.475 120.474 18.606 116.717 16.602C116.733 16.7829 117.491 21.4834 113.613 34.2996C109.646 47.3725 94.159 59.0916 94.159 59.0916C102.198 21.5136 116.401 16.6907 116.717 16.602C105.191 10.4756 84.2317 22.2018 91.6044 65.0005Z" fill="#E62129"/>
    <path d="M91.6035 64.9995C91.6035 64.9995 125.445 49.4238 123.639 27.7747C123.202 22.4741 120.473 18.6051 116.716 16.6011C116.732 16.782 117.49 21.4824 113.612 34.2987C109.645 47.3715 94.1581 59.0907 94.1581 59.0907L91.6035 64.9995Z" fill="#AE3033"/>
    <path d="M90.24 58.7078C94.1492 57.61 98.0842 59.1007 99.0404 62.0305C99.9966 64.9603 97.6136 68.2252 93.7044 69.323C89.7952 70.4209 85.8601 68.9302 84.904 66.0004C83.9083 63.0817 86.3307 59.8057 90.24 58.7078Z" fill="#AE3033"/>
</svg>
