<svg width="46" height="46" viewBox="0 0 46 46" fill="none" xmlns="http://www.w3.org/2000/svg">
    <circle cx="22.5893" cy="22.5893" r="22.5893" fill="#537BC2"/>
    <g clip-path="url(#clip0_150_98020)">
        <path fill-rule="evenodd" clip-rule="evenodd"
              d="M34.7568 16.7859C34.9273 16.2253 34.7568 15.8125 33.9405 15.8125H31.2452C30.5593 15.8125 30.2431 16.1688 30.0716 16.5621C30.0716 16.5621 28.7009 19.8437 26.7592 21.9753C26.1308 22.5934 25.8454 22.7895 25.5024 22.7895C25.3309 22.7895 25.0732 22.5934 25.0732 22.0317V16.7859C25.0732 16.1123 24.8843 15.8125 24.3134 15.8125H20.0748C19.6467 15.8125 19.3889 16.1246 19.3889 16.4214C19.3889 17.059 20.3603 17.2069 20.4599 19.0017V22.9014C20.4599 23.7567 20.3028 23.9118 19.9598 23.9118C19.046 23.9118 16.823 20.6148 15.5036 16.8424C15.2479 16.1082 14.9892 15.8125 14.3002 15.8125H11.6028C10.8327 15.8125 10.6787 16.1688 10.6787 16.5621C10.6787 17.2623 11.5926 20.7411 14.9347 25.3421C17.1629 28.4841 20.2997 30.1875 23.1572 30.1875C24.8709 30.1875 25.0825 29.8096 25.0825 29.1576V26.7827C25.0825 26.0259 25.2447 25.875 25.7879 25.875C26.1883 25.875 26.8732 26.0721 28.4729 27.5867C30.3006 29.3825 30.6014 30.1875 31.6303 30.1875H34.3256C35.0957 30.1875 35.4817 29.8096 35.26 29.0621C35.0156 28.3188 34.1428 27.2396 32.9856 25.9592C32.3572 25.2302 31.4146 24.4447 31.1282 24.0514C30.7288 23.5473 30.8427 23.3224 31.1282 22.8737C31.1282 22.8737 34.4139 18.3292 34.7558 16.7859H34.7568Z"
              fill="white"/>
    </g>
    <defs>
        <clipPath id="clip0_150_98020">
            <rect width="24.6429" height="24.6429" fill="white" transform="translate(10.6787 10.6787)"/>
        </clipPath>
    </defs>
</svg>